<svg width="758.812" height="351.31" viewBox="0 0 200.769 92.951" xmlns="http://www.w3.org/2000/svg"><g transform="translate(32.908 1.038) scale(.47829)"><path fill="#d9d9d9" d="M0 0h292.159v189H0Z"/><path fill="#b3b0b0" d="M-.25 26.165h285.943v.5H-.25Zm0 135.68h288.233v.5H-.25Z"/><path fill="red" d="M-.25 24h281.036v.5H-.25Zm0 162h281.69v.5H-.25Z"/><path fill="#00f" d="M-.25 3h280.708v.5H-.25Zm0 162h282.671v.5H-.25Z"/><path fill="#ccc9c9" d="M-.25 89h279.073v9H-.25Z"/><g transform="translate(-.25)"><path d="M16.642 144a2.992 2.992 0 1 1-5.984 0" fill="#e6e6e6"/><circle cx="13.65" cy="144" r="1.496" fill="#383838"/></g>7<g transform="translate(-.25)"><path d="M10.658 135a2.992 2.992 0 0 1 5.984 0" fill="#bfbfbf"/><path d="M16.642 135a2.992 2.992 0 1 1-5.984 0" fill="#e6e6e6"/><circle cx="13.65" cy="135" r="1.496" fill="#383838"/></g><g transform="translate(-.25)"><path d="M10.658 126a2.992 2.992 0 0 1 5.984 0" fill="#bfbfbf"/><path d="M16.642 126a2.992 2.992 0 1 1-5.984 0" fill="#e6e6e6"/><circle cx="13.65" cy="126" r="1.496" fill="#383838"/></g><g transform="translate(-.25)"><path d="M10.658 117a2.992 2.992 0 0 1 5.984 0" fill="#bfbfbf"/><path d="M16.642 117a2.992 2.992 0 1 1-5.984 0" fill="#e6e6e6"/><circle cx="13.65" cy="117" r="1.496" fill="#383838"/></g><g transform="translate(-.25)"><path d="M10.658 108a2.992 2.992 0 0 1 5.984 0" fill="#bfbfbf"/><path d="M16.642 108a2.992 2.992 0 1 1-5.984 0" fill="#e6e6e6"/><circle cx="13.65" cy="108" r="1.496" fill="#383838"/></g><g transform="translate(-.25)"><path d="M10.658 81a2.992 2.992 0 0 1 5.984 0" fill="#bfbfbf"/><path d="M16.642 81a2.992 2.992 0 1 1-5.984 0" fill="#e6e6e6"/><circle cx="13.65" cy="81" r="1.496" fill="#383838"/></g><g transform="translate(-.25)"><path d="M10.658 72a2.992 2.992 0 0 1 5.984 0" fill="#bfbfbf"/><path d="M16.642 72a2.992 2.992 0 1 1-5.984 0" fill="#e6e6e6"/><circle cx="13.65" cy="72" r="1.496" fill="#383838"/></g><g transform="translate(-.25)"><path d="M10.658 63a2.992 2.992 0 0 1 5.984 0" fill="#bfbfbf"/><path d="M16.642 63a2.992 2.992 0 1 1-5.984 0" fill="#e6e6e6"/><circle cx="13.65" cy="63" r="1.496" fill="#383838"/></g><g transform="translate(-.25)"><path d="M10.658 54a2.992 2.992 0 0 1 5.984 0" fill="#bfbfbf"/><path d="M16.642 54a2.992 2.992 0 1 1-5.984 0" fill="#e6e6e6"/><circle cx="13.65" cy="54" r="1.496" fill="#383838"/></g><g transform="translate(-.25)"><path d="M10.658 45a2.992 2.992 0 0 1 5.984 0" fill="#bfbfbf"/><path d="M16.642 45a2.992 2.992 0 1 1-5.984 0" fill="#e6e6e6"/><circle cx="13.65" cy="45" r="1.496" fill="#383838"/></g><g transform="translate(-.25)"><path d="M19.658 144a2.992 2.992 0 0 1 5.984 0" fill="#bfbfbf"/><path d="M25.642 144a2.992 2.992 0 1 1-5.984 0" fill="#e6e6e6"/><circle cx="22.65" cy="144" r="1.496" fill="#383838"/></g><g transform="translate(-.25)"><path d="M19.658 135a2.992 2.992 0 0 1 5.984 0" fill="#bfbfbf"/><path d="M25.642 135a2.992 2.992 0 1 1-5.984 0" fill="#e6e6e6"/><circle cx="22.65" cy="135" r="1.496" fill="#383838"/></g><g transform="translate(-.25)"><path d="M19.658 126a2.992 2.992 0 0 1 5.984 0" fill="#bfbfbf"/><path d="M25.642 126a2.992 2.992 0 1 1-5.984 0" fill="#e6e6e6"/><circle cx="22.65" cy="126" r="1.496" fill="#383838"/></g><g transform="translate(-.25)"><path d="M19.658 117a2.992 2.992 0 0 1 5.984 0" fill="#bfbfbf"/><path d="M25.642 117a2.992 2.992 0 1 1-5.984 0" fill="#e6e6e6"/><circle cx="22.65" cy="117" r="1.496" fill="#383838"/></g><g transform="translate(-.25)"><path d="M19.658 108a2.992 2.992 0 0 1 5.984 0" fill="#bfbfbf"/><path d="M25.642 108a2.992 2.992 0 1 1-5.984 0" fill="#e6e6e6"/><circle cx="22.65" cy="108" r="1.496" fill="#383838"/></g><g transform="translate(-.25)"><path d="M19.658 81a2.992 2.992 0 0 1 5.984 0" fill="#bfbfbf"/><path d="M25.642 81a2.992 2.992 0 1 1-5.984 0" fill="#e6e6e6"/><circle cx="22.65" cy="81" r="1.496" fill="#383838"/></g><g transform="translate(-.25)"><path d="M19.658 72a2.992 2.992 0 0 1 5.984 0" fill="#bfbfbf"/><path d="M25.642 72a2.992 2.992 0 1 1-5.984 0" fill="#e6e6e6"/><circle cx="22.65" cy="72" r="1.496" fill="#383838"/></g><g transform="translate(-.25)"><path d="M19.658 63a2.992 2.992 0 0 1 5.984 0" fill="#bfbfbf"/><path d="M25.642 63a2.992 2.992 0 1 1-5.984 0" fill="#e6e6e6"/><circle cx="22.65" cy="63" r="1.496" fill="#383838"/></g><g transform="translate(-.25)"><path d="M19.658 54a2.992 2.992 0 0 1 5.984 0" fill="#bfbfbf"/><path d="M25.642 54a2.992 2.992 0 1 1-5.984 0" fill="#e6e6e6"/><circle cx="22.65" cy="54" r="1.496" fill="#383838"/></g><g transform="translate(-.25)"><path d="M19.658 45a2.992 2.992 0 0 1 5.984 0" fill="#bfbfbf"/><path d="M25.642 45a2.992 2.992 0 1 1-5.984 0" fill="#e6e6e6"/><circle cx="22.65" cy="45" r="1.496" fill="#383838"/></g><g transform="translate(-.25)"><path d="M28.658 144a2.992 2.992 0 0 1 5.984 0" fill="#bfbfbf"/><path d="M34.642 144a2.992 2.992 0 1 1-5.984 0" fill="#e6e6e6"/><circle cx="31.65" cy="144" r="1.496" fill="#383838"/></g><g transform="translate(-.25)"><path d="M28.658 135a2.992 2.992 0 0 1 5.984 0" fill="#bfbfbf"/><path d="M34.642 135a2.992 2.992 0 1 1-5.984 0" fill="#e6e6e6"/><circle cx="31.65" cy="135" r="1.496" fill="#383838"/></g><g transform="translate(-.25)"><path d="M28.658 126a2.992 2.992 0 0 1 5.984 0" fill="#bfbfbf"/><path d="M34.642 126a2.992 2.992 0 1 1-5.984 0" fill="#e6e6e6"/><circle cx="31.65" cy="126" r="1.496" fill="#383838"/></g><g transform="translate(-.25)"><path d="M28.658 117a2.992 2.992 0 0 1 5.984 0" fill="#bfbfbf"/><path d="M34.642 117a2.992 2.992 0 1 1-5.984 0" fill="#e6e6e6"/><circle cx="31.65" cy="117" r="1.496" fill="#383838"/></g><g transform="translate(-.25)"><path d="M28.658 108a2.992 2.992 0 0 1 5.984 0" fill="#bfbfbf"/><path d="M34.642 108a2.992 2.992 0 1 1-5.984 0" fill="#e6e6e6"/><circle cx="31.65" cy="108" r="1.496" fill="#383838"/></g><g transform="translate(-.25)"><path d="M28.658 81a2.992 2.992 0 0 1 5.984 0" fill="#bfbfbf"/><path d="M34.642 81a2.992 2.992 0 1 1-5.984 0" fill="#e6e6e6"/><circle cx="31.65" cy="81" r="1.496" fill="#383838"/></g><g transform="translate(-.25)"><path d="M28.658 72a2.992 2.992 0 0 1 5.984 0" fill="#bfbfbf"/><path d="M34.642 72a2.992 2.992 0 1 1-5.984 0" fill="#e6e6e6"/><circle cx="31.65" cy="72" r="1.496" fill="#383838"/></g><g transform="translate(-.25)"><path d="M28.658 63a2.992 2.992 0 0 1 5.984 0" fill="#bfbfbf"/><path d="M34.642 63a2.992 2.992 0 1 1-5.984 0" fill="#e6e6e6"/><circle cx="31.65" cy="63" r="1.496" fill="#383838"/></g><g transform="translate(-.25)"><path d="M28.658 54a2.992 2.992 0 0 1 5.984 0" fill="#bfbfbf"/><path d="M34.642 54a2.992 2.992 0 1 1-5.984 0" fill="#e6e6e6"/><circle cx="31.65" cy="54" r="1.496" fill="#383838"/></g><g transform="translate(-.25)"><path d="M28.658 45a2.992 2.992 0 0 1 5.984 0" fill="#bfbfbf"/><path d="M34.642 45a2.992 2.992 0 1 1-5.984 0" fill="#e6e6e6"/><circle cx="31.65" cy="45" r="1.496" fill="#383838"/></g><g transform="translate(-.25)"><path d="M37.658 144a2.992 2.992 0 0 1 5.984 0" fill="#bfbfbf"/><path d="M43.642 144a2.992 2.992 0 1 1-5.984 0" fill="#e6e6e6"/><circle cx="40.65" cy="144" r="1.496" fill="#383838"/></g><g transform="translate(-.25)"><path d="M37.658 135a2.992 2.992 0 0 1 5.984 0" fill="#bfbfbf"/><path d="M43.642 135a2.992 2.992 0 1 1-5.984 0" fill="#e6e6e6"/><circle cx="40.65" cy="135" r="1.496" fill="#383838"/></g><g transform="translate(-.25)"><path d="M37.658 126a2.992 2.992 0 0 1 5.984 0" fill="#bfbfbf"/><path d="M43.642 126a2.992 2.992 0 1 1-5.984 0" fill="#e6e6e6"/><circle cx="40.65" cy="126" r="1.496" fill="#383838"/></g><g transform="translate(-.25)"><path d="M37.658 117a2.992 2.992 0 0 1 5.984 0" fill="#bfbfbf"/><path d="M43.642 117a2.992 2.992 0 1 1-5.984 0" fill="#e6e6e6"/><circle cx="40.65" cy="117" r="1.496" fill="#383838"/></g><g transform="translate(-.25)"><path d="M37.658 108a2.992 2.992 0 0 1 5.984 0" fill="#bfbfbf"/><path d="M43.642 108a2.992 2.992 0 1 1-5.984 0" fill="#e6e6e6"/><circle cx="40.65" cy="108" r="1.496" fill="#383838"/></g><g transform="translate(-.25)"><path d="M37.658 81a2.992 2.992 0 0 1 5.984 0" fill="#bfbfbf"/><path d="M43.642 81a2.992 2.992 0 1 1-5.984 0" fill="#e6e6e6"/><circle cx="40.65" cy="81" r="1.496" fill="#383838"/></g><g transform="translate(-.25)"><path d="M37.658 72a2.992 2.992 0 0 1 5.984 0" fill="#bfbfbf"/><path d="M43.642 72a2.992 2.992 0 1 1-5.984 0" fill="#e6e6e6"/><circle cx="40.65" cy="72" r="1.496" fill="#383838"/></g><g transform="translate(-.25)"><path d="M37.658 63a2.992 2.992 0 0 1 5.984 0" fill="#bfbfbf"/><path d="M43.642 63a2.992 2.992 0 1 1-5.984 0" fill="#e6e6e6"/><circle cx="40.65" cy="63" r="1.496" fill="#383838"/></g><g transform="translate(-.25)"><path d="M37.658 54a2.992 2.992 0 0 1 5.984 0" fill="#bfbfbf"/><path d="M43.642 54a2.992 2.992 0 1 1-5.984 0" fill="#e6e6e6"/><circle cx="40.65" cy="54" r="1.496" fill="#383838"/></g><g transform="translate(-.25)"><path d="M37.658 45a2.992 2.992 0 0 1 5.984 0" fill="#bfbfbf"/><path d="M43.642 45a2.992 2.992 0 1 1-5.984 0" fill="#e6e6e6"/><circle cx="40.65" cy="45" r="1.496" fill="#383838"/></g><g transform="translate(-.25)"><path d="M46.658 144a2.992 2.992 0 0 1 5.984 0" fill="#bfbfbf"/><path d="M52.642 144a2.992 2.992 0 1 1-5.984 0" fill="#e6e6e6"/><circle cx="49.65" cy="144" r="1.496" fill="#383838"/></g><g transform="translate(-.25)"><path d="M46.658 135a2.992 2.992 0 0 1 5.984 0" fill="#bfbfbf"/><path d="M52.642 135a2.992 2.992 0 1 1-5.984 0" fill="#e6e6e6"/><circle cx="49.65" cy="135" r="1.496" fill="#383838"/></g><g transform="translate(-.25)"><path d="M46.658 126a2.992 2.992 0 0 1 5.984 0" fill="#bfbfbf"/><path d="M52.642 126a2.992 2.992 0 1 1-5.984 0" fill="#e6e6e6"/><circle cx="49.65" cy="126" r="1.496" fill="#383838"/></g><g transform="translate(-.25)"><path d="M46.658 117a2.992 2.992 0 0 1 5.984 0" fill="#bfbfbf"/><path d="M52.642 117a2.992 2.992 0 1 1-5.984 0" fill="#e6e6e6"/><circle cx="49.65" cy="117" r="1.496" fill="#383838"/></g><g transform="translate(-.25)"><path d="M46.658 108a2.992 2.992 0 0 1 5.984 0" fill="#bfbfbf"/><path d="M52.642 108a2.992 2.992 0 1 1-5.984 0" fill="#e6e6e6"/><circle cx="49.65" cy="108" r="1.496" fill="#383838"/></g><g transform="translate(-.25)"><path d="M46.658 81a2.992 2.992 0 0 1 5.984 0" fill="#bfbfbf"/><path d="M52.642 81a2.992 2.992 0 1 1-5.984 0" fill="#e6e6e6"/><circle cx="49.65" cy="81" r="1.496" fill="#383838"/></g><g transform="translate(-.25)"><path d="M46.658 72a2.992 2.992 0 0 1 5.984 0" fill="#bfbfbf"/><path d="M52.642 72a2.992 2.992 0 1 1-5.984 0" fill="#e6e6e6"/><circle cx="49.65" cy="72" r="1.496" fill="#383838"/></g><g transform="translate(-.25)"><path d="M46.658 63a2.992 2.992 0 0 1 5.984 0" fill="#bfbfbf"/><path d="M52.642 63a2.992 2.992 0 1 1-5.984 0" fill="#e6e6e6"/><circle cx="49.65" cy="63" r="1.496" fill="#383838"/></g><g transform="translate(-.25)"><path d="M46.658 54a2.992 2.992 0 0 1 5.984 0" fill="#bfbfbf"/><path d="M52.642 54a2.992 2.992 0 1 1-5.984 0" fill="#e6e6e6"/><circle cx="49.65" cy="54" r="1.496" fill="#383838"/></g><g transform="translate(-.25)"><path d="M46.658 45a2.992 2.992 0 0 1 5.984 0" fill="#bfbfbf"/><path d="M52.642 45a2.992 2.992 0 1 1-5.984 0" fill="#e6e6e6"/><circle cx="49.65" cy="45" r="1.496" fill="#383838"/></g><g transform="translate(-.25)"><path d="M55.658 144a2.992 2.992 0 0 1 5.984 0" fill="#bfbfbf"/><path d="M61.642 144a2.992 2.992 0 1 1-5.984 0" fill="#e6e6e6"/><circle cx="58.65" cy="144" r="1.496" fill="#383838"/></g><g transform="translate(-.25)"><path d="M55.658 135a2.992 2.992 0 0 1 5.984 0" fill="#bfbfbf"/><path d="M61.642 135a2.992 2.992 0 1 1-5.984 0" fill="#e6e6e6"/><circle cx="58.65" cy="135" r="1.496" fill="#383838"/></g><g transform="translate(-.25)"><path d="M55.658 126a2.992 2.992 0 0 1 5.984 0" fill="#bfbfbf"/><path d="M61.642 126a2.992 2.992 0 1 1-5.984 0" fill="#e6e6e6"/><circle cx="58.65" cy="126" r="1.496" fill="#383838"/></g><g transform="translate(-.25)"><path d="M55.658 117a2.992 2.992 0 0 1 5.984 0" fill="#bfbfbf"/><path d="M61.642 117a2.992 2.992 0 1 1-5.984 0" fill="#e6e6e6"/><circle cx="58.65" cy="117" r="1.496" fill="#383838"/></g><g transform="translate(-.25)"><path d="M55.658 108a2.992 2.992 0 0 1 5.984 0" fill="#bfbfbf"/><path d="M61.642 108a2.992 2.992 0 1 1-5.984 0" fill="#e6e6e6"/><circle cx="58.65" cy="108" r="1.496" fill="#383838"/></g><g transform="translate(-.25)"><path d="M55.658 81a2.992 2.992 0 0 1 5.984 0" fill="#bfbfbf"/><path d="M61.642 81a2.992 2.992 0 1 1-5.984 0" fill="#e6e6e6"/><circle cx="58.65" cy="81" r="1.496" fill="#383838"/></g><g transform="translate(-.25)"><path d="M55.658 72a2.992 2.992 0 0 1 5.984 0" fill="#bfbfbf"/><path d="M61.642 72a2.992 2.992 0 1 1-5.984 0" fill="#e6e6e6"/><circle cx="58.65" cy="72" r="1.496" fill="#383838"/></g><g transform="translate(-.25)"><path d="M55.658 63a2.992 2.992 0 0 1 5.984 0" fill="#bfbfbf"/><path d="M61.642 63a2.992 2.992 0 1 1-5.984 0" fill="#e6e6e6"/><circle cx="58.65" cy="63" r="1.496" fill="#383838"/></g><g transform="translate(-.25)"><path d="M55.658 54a2.992 2.992 0 0 1 5.984 0" fill="#bfbfbf"/><path d="M61.642 54a2.992 2.992 0 1 1-5.984 0" fill="#e6e6e6"/><circle cx="58.65" cy="54" r="1.496" fill="#383838"/></g><g transform="translate(-.25)"><path d="M55.658 45a2.992 2.992 0 0 1 5.984 0" fill="#bfbfbf"/><path d="M61.642 45a2.992 2.992 0 1 1-5.984 0" fill="#e6e6e6"/><circle cx="58.65" cy="45" r="1.496" fill="#383838"/></g><g transform="translate(-.25)"><path d="M64.658 144a2.992 2.992 0 0 1 5.984 0" fill="#bfbfbf"/><path d="M70.642 144a2.992 2.992 0 1 1-5.984 0" fill="#e6e6e6"/><circle cx="67.65" cy="144" r="1.496" fill="#383838"/></g><g transform="translate(-.25)"><path d="M64.658 135a2.992 2.992 0 0 1 5.984 0" fill="#bfbfbf"/><path d="M70.642 135a2.992 2.992 0 1 1-5.984 0" fill="#e6e6e6"/><circle cx="67.65" cy="135" r="1.496" fill="#383838"/></g><g transform="translate(-.25)"><path d="M64.658 126a2.992 2.992 0 0 1 5.984 0" fill="#bfbfbf"/><path d="M70.642 126a2.992 2.992 0 1 1-5.984 0" fill="#e6e6e6"/><circle cx="67.65" cy="126" r="1.496" fill="#383838"/></g><g transform="translate(-.25)"><path d="M64.658 117a2.992 2.992 0 0 1 5.984 0" fill="#bfbfbf"/><path d="M70.642 117a2.992 2.992 0 1 1-5.984 0" fill="#e6e6e6"/><circle cx="67.65" cy="117" r="1.496" fill="#383838"/></g><g transform="translate(-.25)"><path d="M64.658 108a2.992 2.992 0 0 1 5.984 0" fill="#bfbfbf"/><path d="M70.642 108a2.992 2.992 0 1 1-5.984 0" fill="#e6e6e6"/><circle cx="67.65" cy="108" r="1.496" fill="#383838"/></g><g transform="translate(-.25)"><path d="M64.658 81a2.992 2.992 0 0 1 5.984 0" fill="#bfbfbf"/><path d="M70.642 81a2.992 2.992 0 1 1-5.984 0" fill="#e6e6e6"/><circle cx="67.65" cy="81" r="1.496" fill="#383838"/></g><g transform="translate(-.25)"><path d="M64.658 72a2.992 2.992 0 0 1 5.984 0" fill="#bfbfbf"/><path d="M70.642 72a2.992 2.992 0 1 1-5.984 0" fill="#e6e6e6"/><circle cx="67.65" cy="72" r="1.496" fill="#383838"/></g><g transform="translate(-.25)"><path d="M64.658 63a2.992 2.992 0 0 1 5.984 0" fill="#bfbfbf"/><path d="M70.642 63a2.992 2.992 0 1 1-5.984 0" fill="#e6e6e6"/><circle cx="67.65" cy="63" r="1.496" fill="#383838"/></g><g transform="translate(-.25)"><path d="M64.658 54a2.992 2.992 0 0 1 5.984 0" fill="#bfbfbf"/><path d="M70.642 54a2.992 2.992 0 1 1-5.984 0" fill="#e6e6e6"/><circle cx="67.65" cy="54" r="1.496" fill="#383838"/></g><g transform="translate(-.25)"><path d="M64.658 45a2.992 2.992 0 0 1 5.984 0" fill="#bfbfbf"/><path d="M70.642 45a2.992 2.992 0 1 1-5.984 0" fill="#e6e6e6"/><circle cx="67.65" cy="45" r="1.496" fill="#383838"/></g><g transform="translate(-.25)"><path d="M73.658 144a2.992 2.992 0 0 1 5.984 0" fill="#bfbfbf"/><path d="M79.642 144a2.992 2.992 0 1 1-5.984 0" fill="#e6e6e6"/><circle cx="76.65" cy="144" r="1.496" fill="#383838"/></g><g transform="translate(-.25)"><path d="M73.658 135a2.992 2.992 0 0 1 5.984 0" fill="#bfbfbf"/><path d="M79.642 135a2.992 2.992 0 1 1-5.984 0" fill="#e6e6e6"/><circle cx="76.65" cy="135" r="1.496" fill="#383838"/></g><g transform="translate(-.25)"><path d="M73.658 126a2.992 2.992 0 0 1 5.984 0" fill="#bfbfbf"/><path d="M79.642 126a2.992 2.992 0 1 1-5.984 0" fill="#e6e6e6"/><circle cx="76.65" cy="126" r="1.496" fill="#383838"/></g><g transform="translate(-.25)"><path d="M73.658 117a2.992 2.992 0 0 1 5.984 0" fill="#bfbfbf"/><path d="M79.642 117a2.992 2.992 0 1 1-5.984 0" fill="#e6e6e6"/><circle cx="76.65" cy="117" r="1.496" fill="#383838"/></g><g transform="translate(-.25)"><path d="M73.658 108a2.992 2.992 0 0 1 5.984 0" fill="#bfbfbf"/><path d="M79.642 108a2.992 2.992 0 1 1-5.984 0" fill="#e6e6e6"/><circle cx="76.65" cy="108" r="1.496" fill="#383838"/></g><g transform="translate(-.25)"><path d="M73.658 81a2.992 2.992 0 0 1 5.984 0" fill="#bfbfbf"/><path d="M79.642 81a2.992 2.992 0 1 1-5.984 0" fill="#e6e6e6"/><circle cx="76.65" cy="81" r="1.496" fill="#383838"/></g><g transform="translate(-.25)"><path d="M73.658 72a2.992 2.992 0 0 1 5.984 0" fill="#bfbfbf"/><path d="M79.642 72a2.992 2.992 0 1 1-5.984 0" fill="#e6e6e6"/><circle cx="76.65" cy="72" r="1.496" fill="#383838"/></g><g transform="translate(-.25)"><path d="M73.658 63a2.992 2.992 0 0 1 5.984 0" fill="#bfbfbf"/><path d="M79.642 63a2.992 2.992 0 1 1-5.984 0" fill="#e6e6e6"/><circle cx="76.65" cy="63" r="1.496" fill="#383838"/></g><g transform="translate(-.25)"><path d="M73.658 54a2.992 2.992 0 0 1 5.984 0" fill="#bfbfbf"/><path d="M79.642 54a2.992 2.992 0 1 1-5.984 0" fill="#e6e6e6"/><circle cx="76.65" cy="54" r="1.496" fill="#383838"/></g><g transform="translate(-.25)"><path d="M73.658 45a2.992 2.992 0 0 1 5.984 0" fill="#bfbfbf"/><path d="M79.642 45a2.992 2.992 0 1 1-5.984 0" fill="#e6e6e6"/><circle cx="76.65" cy="45" r="1.496" fill="#383838"/></g><g transform="translate(-.25)"><path d="M82.658 144a2.992 2.992 0 0 1 5.984 0" fill="#bfbfbf"/><path d="M88.642 144a2.992 2.992 0 1 1-5.984 0" fill="#e6e6e6"/><circle cx="85.65" cy="144" r="1.496" fill="#383838"/></g><g transform="translate(-.25)"><path d="M82.658 135a2.992 2.992 0 0 1 5.984 0" fill="#bfbfbf"/><path d="M88.642 135a2.992 2.992 0 1 1-5.984 0" fill="#e6e6e6"/><circle cx="85.65" cy="135" r="1.496" fill="#383838"/></g><g transform="translate(-.25)"><path d="M82.658 126a2.992 2.992 0 0 1 5.984 0" fill="#bfbfbf"/><path d="M88.642 126a2.992 2.992 0 1 1-5.984 0" fill="#e6e6e6"/><circle cx="85.65" cy="126" r="1.496" fill="#383838"/></g><g transform="translate(-.25)"><path d="M82.658 117a2.992 2.992 0 0 1 5.984 0" fill="#bfbfbf"/><path d="M88.642 117a2.992 2.992 0 1 1-5.984 0" fill="#e6e6e6"/><circle cx="85.65" cy="117" r="1.496" fill="#383838"/></g><g transform="translate(-.25)"><path d="M82.658 108a2.992 2.992 0 0 1 5.984 0" fill="#bfbfbf"/><path d="M88.642 108a2.992 2.992 0 1 1-5.984 0" fill="#e6e6e6"/><circle cx="85.65" cy="108" r="1.496" fill="#383838"/></g><g transform="translate(-.25)"><path d="M82.658 81a2.992 2.992 0 0 1 5.984 0" fill="#bfbfbf"/><path d="M88.642 81a2.992 2.992 0 1 1-5.984 0" fill="#e6e6e6"/><circle cx="85.65" cy="81" r="1.496" fill="#383838"/></g><g transform="translate(-.25)"><path d="M82.658 72a2.992 2.992 0 0 1 5.984 0" fill="#bfbfbf"/><path d="M88.642 72a2.992 2.992 0 1 1-5.984 0" fill="#e6e6e6"/><circle cx="85.65" cy="72" r="1.496" fill="#383838"/></g><g transform="translate(-.25)"><path d="M82.658 63a2.992 2.992 0 0 1 5.984 0" fill="#bfbfbf"/><path d="M88.642 63a2.992 2.992 0 1 1-5.984 0" fill="#e6e6e6"/><circle cx="85.65" cy="63" r="1.496" fill="#383838"/></g><g transform="translate(-.25)"><path d="M82.658 54a2.992 2.992 0 0 1 5.984 0" fill="#bfbfbf"/><path d="M88.642 54a2.992 2.992 0 1 1-5.984 0" fill="#e6e6e6"/><circle cx="85.65" cy="54" r="1.496" fill="#383838"/></g><g transform="translate(-.25)"><path d="M82.658 45a2.992 2.992 0 0 1 5.984 0" fill="#bfbfbf"/><path d="M88.642 45a2.992 2.992 0 1 1-5.984 0" fill="#e6e6e6"/><circle cx="85.65" cy="45" r="1.496" fill="#383838"/></g><g transform="translate(-.25)"><path d="M91.658 144a2.992 2.992 0 0 1 5.984 0" fill="#bfbfbf"/><path d="M97.642 144a2.992 2.992 0 1 1-5.984 0" fill="#e6e6e6"/><circle cx="94.65" cy="144" r="1.496" fill="#383838"/></g><g transform="translate(-.25)"><path d="M91.658 135a2.992 2.992 0 0 1 5.984 0" fill="#bfbfbf"/><path d="M97.642 135a2.992 2.992 0 1 1-5.984 0" fill="#e6e6e6"/><circle cx="94.65" cy="135" r="1.496" fill="#383838"/></g><g transform="translate(-.25)"><path d="M91.658 126a2.992 2.992 0 0 1 5.984 0" fill="#bfbfbf"/><path d="M97.642 126a2.992 2.992 0 1 1-5.984 0" fill="#e6e6e6"/><circle cx="94.65" cy="126" r="1.496" fill="#383838"/></g><g transform="translate(-.25)"><path d="M91.658 117a2.992 2.992 0 0 1 5.984 0" fill="#bfbfbf"/><path d="M97.642 117a2.992 2.992 0 1 1-5.984 0" fill="#e6e6e6"/><circle cx="94.65" cy="117" r="1.496" fill="#383838"/></g><g transform="translate(-.25)"><path d="M91.658 108a2.992 2.992 0 0 1 5.984 0" fill="#bfbfbf"/><path d="M97.642 108a2.992 2.992 0 1 1-5.984 0" fill="#e6e6e6"/><circle cx="94.65" cy="108" r="1.496" fill="#383838"/></g><g transform="translate(-.25)"><path d="M91.658 81a2.992 2.992 0 0 1 5.984 0" fill="#bfbfbf"/><path d="M97.642 81a2.992 2.992 0 1 1-5.984 0" fill="#e6e6e6"/><circle cx="94.65" cy="81" r="1.496" fill="#383838"/></g><g transform="translate(-.25)"><path d="M91.658 72a2.992 2.992 0 0 1 5.984 0" fill="#bfbfbf"/><path d="M97.642 72a2.992 2.992 0 1 1-5.984 0" fill="#e6e6e6"/><circle cx="94.65" cy="72" r="1.496" fill="#383838"/></g><g transform="translate(-.25)"><path d="M91.658 63a2.992 2.992 0 0 1 5.984 0" fill="#bfbfbf"/><path d="M97.642 63a2.992 2.992 0 1 1-5.984 0" fill="#e6e6e6"/><circle cx="94.65" cy="63" r="1.496" fill="#383838"/></g><g transform="translate(-.25)"><path d="M91.658 54a2.992 2.992 0 0 1 5.984 0" fill="#bfbfbf"/><path d="M97.642 54a2.992 2.992 0 1 1-5.984 0" fill="#e6e6e6"/><circle cx="94.65" cy="54" r="1.496" fill="#383838"/></g><g transform="translate(-.25)"><path d="M91.658 45a2.992 2.992 0 0 1 5.984 0" fill="#bfbfbf"/><path d="M97.642 45a2.992 2.992 0 1 1-5.984 0" fill="#e6e6e6"/><circle cx="94.65" cy="45" r="1.496" fill="#383838"/></g><g transform="translate(-.25)"><path d="M100.658 144a2.992 2.992 0 0 1 5.984 0" fill="#bfbfbf"/><path d="M106.642 144a2.992 2.992 0 1 1-5.984 0" fill="#e6e6e6"/><circle cx="103.65" cy="144" r="1.496" fill="#383838"/></g><g transform="translate(-.25)"><path d="M100.658 135a2.992 2.992 0 0 1 5.984 0" fill="#bfbfbf"/><path d="M106.642 135a2.992 2.992 0 1 1-5.984 0" fill="#e6e6e6"/><circle cx="103.65" cy="135" r="1.496" fill="#383838"/></g><g transform="translate(-.25)"><path d="M100.658 126a2.992 2.992 0 0 1 5.984 0" fill="#bfbfbf"/><path d="M106.642 126a2.992 2.992 0 1 1-5.984 0" fill="#e6e6e6"/><circle cx="103.65" cy="126" r="1.496" fill="#383838"/></g><g transform="translate(-.25)"><path d="M100.658 117a2.992 2.992 0 0 1 5.984 0" fill="#bfbfbf"/><path d="M106.642 117a2.992 2.992 0 1 1-5.984 0" fill="#e6e6e6"/><circle cx="103.65" cy="117" r="1.496" fill="#383838"/></g><g transform="translate(-.25)"><path d="M100.658 108a2.992 2.992 0 0 1 5.984 0" fill="#bfbfbf"/><path d="M106.642 108a2.992 2.992 0 1 1-5.984 0" fill="#e6e6e6"/><circle cx="103.65" cy="108" r="1.496" fill="#383838"/></g><g transform="translate(-.25)"><path d="M100.658 81a2.992 2.992 0 0 1 5.984 0" fill="#bfbfbf"/><path d="M106.642 81a2.992 2.992 0 1 1-5.984 0" fill="#e6e6e6"/><circle cx="103.65" cy="81" r="1.496" fill="#383838"/></g><g transform="translate(-.25)"><path d="M100.658 72a2.992 2.992 0 0 1 5.984 0" fill="#bfbfbf"/><path d="M106.642 72a2.992 2.992 0 1 1-5.984 0" fill="#e6e6e6"/><circle cx="103.65" cy="72" r="1.496" fill="#383838"/></g><g transform="translate(-.25)"><path d="M100.658 63a2.992 2.992 0 0 1 5.984 0" fill="#bfbfbf"/><path d="M106.642 63a2.992 2.992 0 1 1-5.984 0" fill="#e6e6e6"/><circle cx="103.65" cy="63" r="1.496" fill="#383838"/></g><g transform="translate(-.25)"><path d="M100.658 54a2.992 2.992 0 0 1 5.984 0" fill="#bfbfbf"/><path d="M106.642 54a2.992 2.992 0 1 1-5.984 0" fill="#e6e6e6"/><circle cx="103.65" cy="54" r="1.496" fill="#383838"/></g><g transform="translate(-.25)"><path d="M100.658 45a2.992 2.992 0 0 1 5.984 0" fill="#bfbfbf"/><path d="M106.642 45a2.992 2.992 0 1 1-5.984 0" fill="#e6e6e6"/><circle cx="103.65" cy="45" r="1.496" fill="#383838"/></g><g transform="translate(-.25)"><path d="M109.658 144a2.992 2.992 0 0 1 5.984 0" fill="#bfbfbf"/><path d="M115.642 144a2.992 2.992 0 1 1-5.984 0" fill="#e6e6e6"/><circle cx="112.65" cy="144" r="1.496" fill="#383838"/></g><g transform="translate(-.25)"><path d="M109.658 135a2.992 2.992 0 0 1 5.984 0" fill="#bfbfbf"/><path d="M115.642 135a2.992 2.992 0 1 1-5.984 0" fill="#e6e6e6"/><circle cx="112.65" cy="135" r="1.496" fill="#383838"/></g><g transform="translate(-.25)"><path d="M109.658 126a2.992 2.992 0 0 1 5.984 0" fill="#bfbfbf"/><path d="M115.642 126a2.992 2.992 0 1 1-5.984 0" fill="#e6e6e6"/><circle cx="112.65" cy="126" r="1.496" fill="#383838"/></g><g transform="translate(-.25)"><path d="M109.658 117a2.992 2.992 0 0 1 5.984 0" fill="#bfbfbf"/><path d="M115.642 117a2.992 2.992 0 1 1-5.984 0" fill="#e6e6e6"/><circle cx="112.65" cy="117" r="1.496" fill="#383838"/></g><g transform="translate(-.25)"><path d="M109.658 108a2.992 2.992 0 0 1 5.984 0" fill="#bfbfbf"/><path d="M115.642 108a2.992 2.992 0 1 1-5.984 0" fill="#e6e6e6"/><circle cx="112.65" cy="108" r="1.496" fill="#383838"/></g><g transform="translate(-.25)"><path d="M109.658 81a2.992 2.992 0 0 1 5.984 0" fill="#bfbfbf"/><path d="M115.642 81a2.992 2.992 0 1 1-5.984 0" fill="#e6e6e6"/><circle cx="112.65" cy="81" r="1.496" fill="#383838"/></g><g transform="translate(-.25)"><path d="M109.658 72a2.992 2.992 0 0 1 5.984 0" fill="#bfbfbf"/><path d="M115.642 72a2.992 2.992 0 1 1-5.984 0" fill="#e6e6e6"/><circle cx="112.65" cy="72" r="1.496" fill="#383838"/></g><g transform="translate(-.25)"><path d="M109.658 63a2.992 2.992 0 0 1 5.984 0" fill="#bfbfbf"/><path d="M115.642 63a2.992 2.992 0 1 1-5.984 0" fill="#e6e6e6"/><circle cx="112.65" cy="63" r="1.496" fill="#383838"/></g><g transform="translate(-.25)"><path d="M109.658 54a2.992 2.992 0 0 1 5.984 0" fill="#bfbfbf"/><path d="M115.642 54a2.992 2.992 0 1 1-5.984 0" fill="#e6e6e6"/><circle cx="112.65" cy="54" r="1.496" fill="#383838"/></g><g transform="translate(-.25)"><path d="M109.658 45a2.992 2.992 0 0 1 5.984 0" fill="#bfbfbf"/><path d="M115.642 45a2.992 2.992 0 1 1-5.984 0" fill="#e6e6e6"/><circle cx="112.65" cy="45" r="1.496" fill="#383838"/></g><g transform="translate(-.25)"><path d="M118.658 144a2.992 2.992 0 0 1 5.984 0" fill="#bfbfbf"/><path d="M124.642 144a2.992 2.992 0 1 1-5.984 0" fill="#e6e6e6"/><circle cx="121.65" cy="144" r="1.496" fill="#383838"/></g><g transform="translate(-.25)"><path d="M118.658 135a2.992 2.992 0 0 1 5.984 0" fill="#bfbfbf"/><path d="M124.642 135a2.992 2.992 0 1 1-5.984 0" fill="#e6e6e6"/><circle cx="121.65" cy="135" r="1.496" fill="#383838"/></g><g transform="translate(-.25)"><path d="M118.658 126a2.992 2.992 0 0 1 5.984 0" fill="#bfbfbf"/><path d="M124.642 126a2.992 2.992 0 1 1-5.984 0" fill="#e6e6e6"/><circle cx="121.65" cy="126" r="1.496" fill="#383838"/></g><g transform="translate(-.25)"><path d="M118.658 117a2.992 2.992 0 0 1 5.984 0" fill="#bfbfbf"/><path d="M124.642 117a2.992 2.992 0 1 1-5.984 0" fill="#e6e6e6"/><circle cx="121.65" cy="117" r="1.496" fill="#383838"/></g><g transform="translate(-.25)"><path d="M118.658 108a2.992 2.992 0 0 1 5.984 0" fill="#bfbfbf"/><path d="M124.642 108a2.992 2.992 0 1 1-5.984 0" fill="#e6e6e6"/><circle cx="121.65" cy="108" r="1.496" fill="#383838"/></g><g transform="translate(-.25)"><path d="M118.658 81a2.992 2.992 0 0 1 5.984 0" fill="#bfbfbf"/><path d="M124.642 81a2.992 2.992 0 1 1-5.984 0" fill="#e6e6e6"/><circle cx="121.65" cy="81" r="1.496" fill="#383838"/></g><g transform="translate(-.25)"><path d="M118.658 72a2.992 2.992 0 0 1 5.984 0" fill="#bfbfbf"/><path d="M124.642 72a2.992 2.992 0 1 1-5.984 0" fill="#e6e6e6"/><circle cx="121.65" cy="72" r="1.496" fill="#383838"/></g><g transform="translate(-.25)"><path d="M118.658 63a2.992 2.992 0 0 1 5.984 0" fill="#bfbfbf"/><path d="M124.642 63a2.992 2.992 0 1 1-5.984 0" fill="#e6e6e6"/><circle cx="121.65" cy="63" r="1.496" fill="#383838"/></g><g transform="translate(-.25)"><path d="M118.658 54a2.992 2.992 0 0 1 5.984 0" fill="#bfbfbf"/><path d="M124.642 54a2.992 2.992 0 1 1-5.984 0" fill="#e6e6e6"/><circle cx="121.65" cy="54" r="1.496" fill="#383838"/></g><g transform="translate(-.25)"><path d="M118.658 45a2.992 2.992 0 0 1 5.984 0" fill="#bfbfbf"/><path d="M124.642 45a2.992 2.992 0 1 1-5.984 0" fill="#e6e6e6"/><circle cx="121.65" cy="45" r="1.496" fill="#383838"/></g><g transform="translate(-.25)"><path d="M127.658 144a2.992 2.992 0 0 1 5.984 0" fill="#bfbfbf"/><path d="M133.642 144a2.992 2.992 0 1 1-5.984 0" fill="#e6e6e6"/><circle cx="130.65" cy="144" r="1.496" fill="#383838"/></g><g transform="translate(-.25)"><path d="M127.658 135a2.992 2.992 0 0 1 5.984 0" fill="#bfbfbf"/><path d="M133.642 135a2.992 2.992 0 1 1-5.984 0" fill="#e6e6e6"/><circle cx="130.65" cy="135" r="1.496" fill="#383838"/></g><g transform="translate(-.25)"><path d="M127.658 126a2.992 2.992 0 0 1 5.984 0" fill="#bfbfbf"/><path d="M133.642 126a2.992 2.992 0 1 1-5.984 0" fill="#e6e6e6"/><circle cx="130.65" cy="126" r="1.496" fill="#383838"/></g><g transform="translate(-.25)"><path d="M127.658 117a2.992 2.992 0 0 1 5.984 0" fill="#bfbfbf"/><path d="M133.642 117a2.992 2.992 0 1 1-5.984 0" fill="#e6e6e6"/><circle cx="130.65" cy="117" r="1.496" fill="#383838"/></g><g transform="translate(-.25)"><path d="M127.658 108a2.992 2.992 0 0 1 5.984 0" fill="#bfbfbf"/><path d="M133.642 108a2.992 2.992 0 1 1-5.984 0" fill="#e6e6e6"/><circle cx="130.65" cy="108" r="1.496" fill="#383838"/></g><g transform="translate(-.25)"><path d="M127.658 81a2.992 2.992 0 0 1 5.984 0" fill="#bfbfbf"/><path d="M133.642 81a2.992 2.992 0 1 1-5.984 0" fill="#e6e6e6"/><circle cx="130.65" cy="81" r="1.496" fill="#383838"/></g><g transform="translate(-.25)"><path d="M127.658 72a2.992 2.992 0 0 1 5.984 0" fill="#bfbfbf"/><path d="M133.642 72a2.992 2.992 0 1 1-5.984 0" fill="#e6e6e6"/><circle cx="130.65" cy="72" r="1.496" fill="#383838"/></g><g transform="translate(-.25)"><path d="M127.658 63a2.992 2.992 0 0 1 5.984 0" fill="#bfbfbf"/><path d="M133.642 63a2.992 2.992 0 1 1-5.984 0" fill="#e6e6e6"/><circle cx="130.65" cy="63" r="1.496" fill="#383838"/></g><g transform="translate(-.25)"><path d="M127.658 54a2.992 2.992 0 0 1 5.984 0" fill="#bfbfbf"/><path d="M133.642 54a2.992 2.992 0 1 1-5.984 0" fill="#e6e6e6"/><circle cx="130.65" cy="54" r="1.496" fill="#383838"/></g><g transform="translate(-.25)"><path d="M127.658 45a2.992 2.992 0 0 1 5.984 0" fill="#bfbfbf"/><path d="M133.642 45a2.992 2.992 0 1 1-5.984 0" fill="#e6e6e6"/><circle cx="130.65" cy="45" r="1.496" fill="#383838"/></g><g transform="translate(-.25)"><path d="M136.658 144a2.992 2.992 0 0 1 5.984 0" fill="#bfbfbf"/><path d="M142.642 144a2.992 2.992 0 1 1-5.984 0" fill="#e6e6e6"/><circle cx="139.65" cy="144" r="1.496" fill="#383838"/></g><g transform="translate(-.25)"><path d="M136.658 135a2.992 2.992 0 0 1 5.984 0" fill="#bfbfbf"/><path d="M142.642 135a2.992 2.992 0 1 1-5.984 0" fill="#e6e6e6"/><circle cx="139.65" cy="135" r="1.496" fill="#383838"/></g><g transform="translate(-.25)"><path d="M136.658 126a2.992 2.992 0 0 1 5.984 0" fill="#bfbfbf"/><path d="M142.642 126a2.992 2.992 0 1 1-5.984 0" fill="#e6e6e6"/><circle cx="139.65" cy="126" r="1.496" fill="#383838"/></g><g transform="translate(-.25)"><path d="M136.658 117a2.992 2.992 0 0 1 5.984 0" fill="#bfbfbf"/><path d="M142.642 117a2.992 2.992 0 1 1-5.984 0" fill="#e6e6e6"/><circle cx="139.65" cy="117" r="1.496" fill="#383838"/></g><g transform="translate(-.25)"><path d="M136.658 108a2.992 2.992 0 0 1 5.984 0" fill="#bfbfbf"/><path d="M142.642 108a2.992 2.992 0 1 1-5.984 0" fill="#e6e6e6"/><circle cx="139.65" cy="108" r="1.496" fill="#383838"/></g><g transform="translate(-.25)"><path d="M136.658 81a2.992 2.992 0 0 1 5.984 0" fill="#bfbfbf"/><path d="M142.642 81a2.992 2.992 0 1 1-5.984 0" fill="#e6e6e6"/><circle cx="139.65" cy="81" r="1.496" fill="#383838"/></g><g transform="translate(-.25)"><path d="M136.658 72a2.992 2.992 0 0 1 5.984 0" fill="#bfbfbf"/><path d="M142.642 72a2.992 2.992 0 1 1-5.984 0" fill="#e6e6e6"/><circle cx="139.65" cy="72" r="1.496" fill="#383838"/></g><g transform="translate(-.25)"><path d="M136.658 63a2.992 2.992 0 0 1 5.984 0" fill="#bfbfbf"/><path d="M142.642 63a2.992 2.992 0 1 1-5.984 0" fill="#e6e6e6"/><circle cx="139.65" cy="63" r="1.496" fill="#383838"/></g><g transform="translate(-.25)"><path d="M136.658 54a2.992 2.992 0 0 1 5.984 0" fill="#bfbfbf"/><path d="M142.642 54a2.992 2.992 0 1 1-5.984 0" fill="#e6e6e6"/><circle cx="139.65" cy="54" r="1.496" fill="#383838"/></g><g transform="translate(-.25)"><path d="M136.658 45a2.992 2.992 0 0 1 5.984 0" fill="#bfbfbf"/><path d="M142.642 45a2.992 2.992 0 1 1-5.984 0" fill="#e6e6e6"/><circle cx="139.65" cy="45" r="1.496" fill="#383838"/></g><g transform="translate(-.25)"><path d="M145.658 144a2.992 2.992 0 0 1 5.984 0" fill="#bfbfbf"/><path d="M151.642 144a2.992 2.992 0 1 1-5.984 0" fill="#e6e6e6"/><circle cx="148.65" cy="144" r="1.496" fill="#383838"/></g><g transform="translate(-.25)"><path d="M145.658 135a2.992 2.992 0 0 1 5.984 0" fill="#bfbfbf"/><path d="M151.642 135a2.992 2.992 0 1 1-5.984 0" fill="#e6e6e6"/><circle cx="148.65" cy="135" r="1.496" fill="#383838"/></g><g transform="translate(-.25)"><path d="M145.658 126a2.992 2.992 0 0 1 5.984 0" fill="#bfbfbf"/><path d="M151.642 126a2.992 2.992 0 1 1-5.984 0" fill="#e6e6e6"/><circle cx="148.65" cy="126" r="1.496" fill="#383838"/></g><g transform="translate(-.25)"><path d="M145.658 117a2.992 2.992 0 0 1 5.984 0" fill="#bfbfbf"/><path d="M151.642 117a2.992 2.992 0 1 1-5.984 0" fill="#e6e6e6"/><circle cx="148.65" cy="117" r="1.496" fill="#383838"/></g><g transform="translate(-.25)"><path d="M145.658 108a2.992 2.992 0 0 1 5.984 0" fill="#bfbfbf"/><path d="M151.642 108a2.992 2.992 0 1 1-5.984 0" fill="#e6e6e6"/><circle cx="148.65" cy="108" r="1.496" fill="#383838"/></g><g transform="translate(-.25)"><path d="M145.658 81a2.992 2.992 0 0 1 5.984 0" fill="#bfbfbf"/><path d="M151.642 81a2.992 2.992 0 1 1-5.984 0" fill="#e6e6e6"/><circle cx="148.65" cy="81" r="1.496" fill="#383838"/></g><g transform="translate(-.25)"><path d="M145.658 72a2.992 2.992 0 0 1 5.984 0" fill="#bfbfbf"/><path d="M151.642 72a2.992 2.992 0 1 1-5.984 0" fill="#e6e6e6"/><circle cx="148.65" cy="72" r="1.496" fill="#383838"/></g><g transform="translate(-.25)"><path d="M145.658 63a2.992 2.992 0 0 1 5.984 0" fill="#bfbfbf"/><path d="M151.642 63a2.992 2.992 0 1 1-5.984 0" fill="#e6e6e6"/><circle cx="148.65" cy="63" r="1.496" fill="#383838"/></g><g transform="translate(-.25)"><path d="M145.658 54a2.992 2.992 0 0 1 5.984 0" fill="#bfbfbf"/><path d="M151.642 54a2.992 2.992 0 1 1-5.984 0" fill="#e6e6e6"/><circle cx="148.65" cy="54" r="1.496" fill="#383838"/></g><g transform="translate(-.25)"><path d="M145.658 45a2.992 2.992 0 0 1 5.984 0" fill="#bfbfbf"/><path d="M151.642 45a2.992 2.992 0 1 1-5.984 0" fill="#e6e6e6"/><circle cx="148.65" cy="45" r="1.496" fill="#383838"/></g><g transform="translate(-.25)"><path d="M154.658 144a2.992 2.992 0 0 1 5.984 0" fill="#bfbfbf"/><path d="M160.642 144a2.992 2.992 0 1 1-5.984 0" fill="#e6e6e6"/><circle cx="157.65" cy="144" r="1.496" fill="#383838"/></g><g transform="translate(-.25)"><path d="M154.658 135a2.992 2.992 0 0 1 5.984 0" fill="#bfbfbf"/><path d="M160.642 135a2.992 2.992 0 1 1-5.984 0" fill="#e6e6e6"/><circle cx="157.65" cy="135" r="1.496" fill="#383838"/></g><g transform="translate(-.25)"><path d="M154.658 126a2.992 2.992 0 0 1 5.984 0" fill="#bfbfbf"/><path d="M160.642 126a2.992 2.992 0 1 1-5.984 0" fill="#e6e6e6"/><circle cx="157.65" cy="126" r="1.496" fill="#383838"/></g><g transform="translate(-.25)"><path d="M154.658 117a2.992 2.992 0 0 1 5.984 0" fill="#bfbfbf"/><path d="M160.642 117a2.992 2.992 0 1 1-5.984 0" fill="#e6e6e6"/><circle cx="157.65" cy="117" r="1.496" fill="#383838"/></g><g transform="translate(-.25)"><path d="M154.658 108a2.992 2.992 0 0 1 5.984 0" fill="#bfbfbf"/><path d="M160.642 108a2.992 2.992 0 1 1-5.984 0" fill="#e6e6e6"/><circle cx="157.65" cy="108" r="1.496" fill="#383838"/></g><g transform="translate(-.25)"><path d="M154.658 81a2.992 2.992 0 0 1 5.984 0" fill="#bfbfbf"/><path d="M160.642 81a2.992 2.992 0 1 1-5.984 0" fill="#e6e6e6"/><circle cx="157.65" cy="81" r="1.496" fill="#383838"/></g><g transform="translate(-.25)"><path d="M154.658 72a2.992 2.992 0 0 1 5.984 0" fill="#bfbfbf"/><path d="M160.642 72a2.992 2.992 0 1 1-5.984 0" fill="#e6e6e6"/><circle cx="157.65" cy="72" r="1.496" fill="#383838"/></g><g transform="translate(-.25)"><path d="M154.658 63a2.992 2.992 0 0 1 5.984 0" fill="#bfbfbf"/><path d="M160.642 63a2.992 2.992 0 1 1-5.984 0" fill="#e6e6e6"/><circle cx="157.65" cy="63" r="1.496" fill="#383838"/></g><g transform="translate(-.25)"><path d="M154.658 54a2.992 2.992 0 0 1 5.984 0" fill="#bfbfbf"/><path d="M160.642 54a2.992 2.992 0 1 1-5.984 0" fill="#e6e6e6"/><circle cx="157.65" cy="54" r="1.496" fill="#383838"/></g><g transform="translate(-.25)"><path d="M154.658 45a2.992 2.992 0 0 1 5.984 0" fill="#bfbfbf"/><path d="M160.642 45a2.992 2.992 0 1 1-5.984 0" fill="#e6e6e6"/><circle cx="157.65" cy="45" r="1.496" fill="#383838"/></g><g transform="translate(-.25)"><path d="M163.658 144a2.992 2.992 0 0 1 5.984 0" fill="#bfbfbf"/><path d="M169.642 144a2.992 2.992 0 1 1-5.984 0" fill="#e6e6e6"/><circle cx="166.65" cy="144" r="1.496" fill="#383838"/></g><g transform="translate(-.25)"><path d="M163.658 135a2.992 2.992 0 0 1 5.984 0" fill="#bfbfbf"/><path d="M169.642 135a2.992 2.992 0 1 1-5.984 0" fill="#e6e6e6"/><circle cx="166.65" cy="135" r="1.496" fill="#383838"/></g><g transform="translate(-.25)"><path d="M163.658 126a2.992 2.992 0 0 1 5.984 0" fill="#bfbfbf"/><path d="M169.642 126a2.992 2.992 0 1 1-5.984 0" fill="#e6e6e6"/><circle cx="166.65" cy="126" r="1.496" fill="#383838"/></g><g transform="translate(-.25)"><path d="M163.658 117a2.992 2.992 0 0 1 5.984 0" fill="#bfbfbf"/><path d="M169.642 117a2.992 2.992 0 1 1-5.984 0" fill="#e6e6e6"/><circle cx="166.65" cy="117" r="1.496" fill="#383838"/></g><g transform="translate(-.25)"><path d="M163.658 108a2.992 2.992 0 0 1 5.984 0" fill="#bfbfbf"/><path d="M169.642 108a2.992 2.992 0 1 1-5.984 0" fill="#e6e6e6"/><circle cx="166.65" cy="108" r="1.496" fill="#383838"/></g><g transform="translate(-.25)"><path d="M163.658 81a2.992 2.992 0 0 1 5.984 0" fill="#bfbfbf"/><path d="M169.642 81a2.992 2.992 0 1 1-5.984 0" fill="#e6e6e6"/><circle cx="166.65" cy="81" r="1.496" fill="#383838"/></g><g transform="translate(-.25)"><path d="M163.658 72a2.992 2.992 0 0 1 5.984 0" fill="#bfbfbf"/><path d="M169.642 72a2.992 2.992 0 1 1-5.984 0" fill="#e6e6e6"/><circle cx="166.65" cy="72" r="1.496" fill="#383838"/></g><g transform="translate(-.25)"><path d="M163.658 63a2.992 2.992 0 0 1 5.984 0" fill="#bfbfbf"/><path d="M169.642 63a2.992 2.992 0 1 1-5.984 0" fill="#e6e6e6"/><circle cx="166.65" cy="63" r="1.496" fill="#383838"/></g><g transform="translate(-.25)"><path d="M163.658 54a2.992 2.992 0 0 1 5.984 0" fill="#bfbfbf"/><path d="M169.642 54a2.992 2.992 0 1 1-5.984 0" fill="#e6e6e6"/><circle cx="166.65" cy="54" r="1.496" fill="#383838"/></g><g transform="translate(-.25)"><path d="M163.658 45a2.992 2.992 0 0 1 5.984 0" fill="#bfbfbf"/><path d="M169.642 45a2.992 2.992 0 1 1-5.984 0" fill="#e6e6e6"/><circle cx="166.65" cy="45" r="1.496" fill="#383838"/></g><g transform="translate(-.25)"><path d="M172.658 144a2.992 2.992 0 0 1 5.984 0" fill="#bfbfbf"/><path d="M178.642 144a2.992 2.992 0 1 1-5.984 0" fill="#e6e6e6"/><circle cx="175.65" cy="144" r="1.496" fill="#383838"/></g><g transform="translate(-.25)"><path d="M172.658 135a2.992 2.992 0 0 1 5.984 0" fill="#bfbfbf"/><path d="M178.642 135a2.992 2.992 0 1 1-5.984 0" fill="#e6e6e6"/><circle cx="175.65" cy="135" r="1.496" fill="#383838"/></g><g transform="translate(-.25)"><path d="M172.658 126a2.992 2.992 0 0 1 5.984 0" fill="#bfbfbf"/><path d="M178.642 126a2.992 2.992 0 1 1-5.984 0" fill="#e6e6e6"/><circle cx="175.65" cy="126" r="1.496" fill="#383838"/></g><g transform="translate(-.25)"><path d="M172.658 117a2.992 2.992 0 0 1 5.984 0" fill="#bfbfbf"/><path d="M178.642 117a2.992 2.992 0 1 1-5.984 0" fill="#e6e6e6"/><circle cx="175.65" cy="117" r="1.496" fill="#383838"/></g><g transform="translate(-.25)"><path d="M172.658 108a2.992 2.992 0 0 1 5.984 0" fill="#bfbfbf"/><path d="M178.642 108a2.992 2.992 0 1 1-5.984 0" fill="#e6e6e6"/><circle cx="175.65" cy="108" r="1.496" fill="#383838"/></g><g transform="translate(-.25)"><path d="M172.658 81a2.992 2.992 0 0 1 5.984 0" fill="#bfbfbf"/><path d="M178.642 81a2.992 2.992 0 1 1-5.984 0" fill="#e6e6e6"/><circle cx="175.65" cy="81" r="1.496" fill="#383838"/></g><g transform="translate(-.25)"><path d="M172.658 72a2.992 2.992 0 0 1 5.984 0" fill="#bfbfbf"/><path d="M178.642 72a2.992 2.992 0 1 1-5.984 0" fill="#e6e6e6"/><circle cx="175.65" cy="72" r="1.496" fill="#383838"/></g><g transform="translate(-.25)"><path d="M172.658 63a2.992 2.992 0 0 1 5.984 0" fill="#bfbfbf"/><path d="M178.642 63a2.992 2.992 0 1 1-5.984 0" fill="#e6e6e6"/><circle cx="175.65" cy="63" r="1.496" fill="#383838"/></g><g transform="translate(-.25)"><path d="M172.658 54a2.992 2.992 0 0 1 5.984 0" fill="#bfbfbf"/><path d="M178.642 54a2.992 2.992 0 1 1-5.984 0" fill="#e6e6e6"/><circle cx="175.65" cy="54" r="1.496" fill="#383838"/></g><g transform="translate(-.25)"><path d="M172.658 45a2.992 2.992 0 0 1 5.984 0" fill="#bfbfbf"/><path d="M178.642 45a2.992 2.992 0 1 1-5.984 0" fill="#e6e6e6"/><circle cx="175.65" cy="45" r="1.496" fill="#383838"/></g><g transform="translate(-.25)"><path d="M181.658 144a2.992 2.992 0 0 1 5.984 0" fill="#bfbfbf"/><path d="M187.642 144a2.992 2.992 0 1 1-5.984 0" fill="#e6e6e6"/><circle cx="184.65" cy="144" r="1.496" fill="#383838"/></g><g transform="translate(-.25)"><path d="M181.658 135a2.992 2.992 0 0 1 5.984 0" fill="#bfbfbf"/><path d="M187.642 135a2.992 2.992 0 1 1-5.984 0" fill="#e6e6e6"/><circle cx="184.65" cy="135" r="1.496" fill="#383838"/></g><g transform="translate(-.25)"><path d="M181.658 126a2.992 2.992 0 0 1 5.984 0" fill="#bfbfbf"/><path d="M187.642 126a2.992 2.992 0 1 1-5.984 0" fill="#e6e6e6"/><circle cx="184.65" cy="126" r="1.496" fill="#383838"/></g><g transform="translate(-.25)"><path d="M181.658 117a2.992 2.992 0 0 1 5.984 0" fill="#bfbfbf"/><path d="M187.642 117a2.992 2.992 0 1 1-5.984 0" fill="#e6e6e6"/><circle cx="184.65" cy="117" r="1.496" fill="#383838"/></g><g transform="translate(-.25)"><path d="M181.658 108a2.992 2.992 0 0 1 5.984 0" fill="#bfbfbf"/><path d="M187.642 108a2.992 2.992 0 1 1-5.984 0" fill="#e6e6e6"/><circle cx="184.65" cy="108" r="1.496" fill="#383838"/></g><g transform="translate(-.25)"><path d="M181.658 81a2.992 2.992 0 0 1 5.984 0" fill="#bfbfbf"/><path d="M187.642 81a2.992 2.992 0 1 1-5.984 0" fill="#e6e6e6"/><circle cx="184.65" cy="81" r="1.496" fill="#383838"/></g><g transform="translate(-.25)"><path d="M181.658 72a2.992 2.992 0 0 1 5.984 0" fill="#bfbfbf"/><path d="M187.642 72a2.992 2.992 0 1 1-5.984 0" fill="#e6e6e6"/><circle cx="184.65" cy="72" r="1.496" fill="#383838"/></g><g transform="translate(-.25)"><path d="M181.658 63a2.992 2.992 0 0 1 5.984 0" fill="#bfbfbf"/><path d="M187.642 63a2.992 2.992 0 1 1-5.984 0" fill="#e6e6e6"/><circle cx="184.65" cy="63" r="1.496" fill="#383838"/></g><g transform="translate(-.25)"><path d="M181.658 54a2.992 2.992 0 0 1 5.984 0" fill="#bfbfbf"/><path d="M187.642 54a2.992 2.992 0 1 1-5.984 0" fill="#e6e6e6"/><circle cx="184.65" cy="54" r="1.496" fill="#383838"/></g><g transform="translate(-.25)"><path d="M181.658 45a2.992 2.992 0 0 1 5.984 0" fill="#bfbfbf"/><path d="M187.642 45a2.992 2.992 0 1 1-5.984 0" fill="#e6e6e6"/><circle cx="184.65" cy="45" r="1.496" fill="#383838"/></g><g transform="translate(-.25)"><path d="M190.658 144a2.992 2.992 0 0 1 5.984 0" fill="#bfbfbf"/><path d="M196.642 144a2.992 2.992 0 1 1-5.984 0" fill="#e6e6e6"/><circle cx="193.65" cy="144" r="1.496" fill="#383838"/></g><g transform="translate(-.25)"><path d="M190.658 135a2.992 2.992 0 0 1 5.984 0" fill="#bfbfbf"/><path d="M196.642 135a2.992 2.992 0 1 1-5.984 0" fill="#e6e6e6"/><circle cx="193.65" cy="135" r="1.496" fill="#383838"/></g><g transform="translate(-.25)"><path d="M190.658 126a2.992 2.992 0 0 1 5.984 0" fill="#bfbfbf"/><path d="M196.642 126a2.992 2.992 0 1 1-5.984 0" fill="#e6e6e6"/><circle cx="193.65" cy="126" r="1.496" fill="#383838"/></g><g transform="translate(-.25)"><path d="M190.658 117a2.992 2.992 0 0 1 5.984 0" fill="#bfbfbf"/><path d="M196.642 117a2.992 2.992 0 1 1-5.984 0" fill="#e6e6e6"/><circle cx="193.65" cy="117" r="1.496" fill="#383838"/></g><g transform="translate(-.25)"><path d="M190.658 108a2.992 2.992 0 0 1 5.984 0" fill="#bfbfbf"/><path d="M196.642 108a2.992 2.992 0 1 1-5.984 0" fill="#e6e6e6"/><circle cx="193.65" cy="108" r="1.496" fill="#383838"/></g><g transform="translate(-.25)"><path d="M190.658 81a2.992 2.992 0 0 1 5.984 0" fill="#bfbfbf"/><path d="M196.642 81a2.992 2.992 0 1 1-5.984 0" fill="#e6e6e6"/><circle cx="193.65" cy="81" r="1.496" fill="#383838"/></g><g transform="translate(-.25)"><path d="M190.658 72a2.992 2.992 0 0 1 5.984 0" fill="#bfbfbf"/><path d="M196.642 72a2.992 2.992 0 1 1-5.984 0" fill="#e6e6e6"/><circle cx="193.65" cy="72" r="1.496" fill="#383838"/></g><g transform="translate(-.25)"><path d="M190.658 63a2.992 2.992 0 0 1 5.984 0" fill="#bfbfbf"/><path d="M196.642 63a2.992 2.992 0 1 1-5.984 0" fill="#e6e6e6"/><circle cx="193.65" cy="63" r="1.496" fill="#383838"/></g><g transform="translate(-.25)"><path d="M190.658 54a2.992 2.992 0 0 1 5.984 0" fill="#bfbfbf"/><path d="M196.642 54a2.992 2.992 0 1 1-5.984 0" fill="#e6e6e6"/><circle cx="193.65" cy="54" r="1.496" fill="#383838"/></g><g transform="translate(-.25)"><path d="M190.658 45a2.992 2.992 0 0 1 5.984 0" fill="#bfbfbf"/><path d="M196.642 45a2.992 2.992 0 1 1-5.984 0" fill="#e6e6e6"/><circle cx="193.65" cy="45" r="1.496" fill="#383838"/></g><g transform="translate(-.25)"><path d="M199.658 144a2.992 2.992 0 0 1 5.984 0" fill="#bfbfbf"/><path d="M205.642 144a2.992 2.992 0 1 1-5.984 0" fill="#e6e6e6"/><circle cx="202.65" cy="144" r="1.496" fill="#383838"/></g><g transform="translate(-.25)"><path d="M199.658 135a2.992 2.992 0 0 1 5.984 0" fill="#bfbfbf"/><path d="M205.642 135a2.992 2.992 0 1 1-5.984 0" fill="#e6e6e6"/><circle cx="202.65" cy="135" r="1.496" fill="#383838"/></g><g transform="translate(-.25)"><path d="M199.658 126a2.992 2.992 0 0 1 5.984 0" fill="#bfbfbf"/><path d="M205.642 126a2.992 2.992 0 1 1-5.984 0" fill="#e6e6e6"/><circle cx="202.65" cy="126" r="1.496" fill="#383838"/></g><g transform="translate(-.25)"><path d="M199.658 117a2.992 2.992 0 0 1 5.984 0" fill="#bfbfbf"/><path d="M205.642 117a2.992 2.992 0 1 1-5.984 0" fill="#e6e6e6"/><circle cx="202.65" cy="117" r="1.496" fill="#383838"/></g><g transform="translate(-.25)"><path d="M199.658 108a2.992 2.992 0 0 1 5.984 0" fill="#bfbfbf"/><path d="M205.642 108a2.992 2.992 0 1 1-5.984 0" fill="#e6e6e6"/><circle cx="202.65" cy="108" r="1.496" fill="#383838"/></g><g transform="translate(-.25)"><path d="M199.658 81a2.992 2.992 0 0 1 5.984 0" fill="#bfbfbf"/><path d="M205.642 81a2.992 2.992 0 1 1-5.984 0" fill="#e6e6e6"/><circle cx="202.65" cy="81" r="1.496" fill="#383838"/></g><g transform="translate(-.25)"><path d="M199.658 72a2.992 2.992 0 0 1 5.984 0" fill="#bfbfbf"/><path d="M205.642 72a2.992 2.992 0 1 1-5.984 0" fill="#e6e6e6"/><circle cx="202.65" cy="72" r="1.496" fill="#383838"/></g><g transform="translate(-.25)"><path d="M199.658 63a2.992 2.992 0 0 1 5.984 0" fill="#bfbfbf"/><path d="M205.642 63a2.992 2.992 0 1 1-5.984 0" fill="#e6e6e6"/><circle cx="202.65" cy="63" r="1.496" fill="#383838"/></g><g transform="translate(-.25)"><path d="M199.658 54a2.992 2.992 0 0 1 5.984 0" fill="#bfbfbf"/><path d="M205.642 54a2.992 2.992 0 1 1-5.984 0" fill="#e6e6e6"/><circle cx="202.65" cy="54" r="1.496" fill="#383838"/></g><g transform="translate(-.25)"><path d="M199.658 45a2.992 2.992 0 0 1 5.984 0" fill="#bfbfbf"/><path d="M205.642 45a2.992 2.992 0 1 1-5.984 0" fill="#e6e6e6"/><circle cx="202.65" cy="45" r="1.496" fill="#383838"/></g><g transform="translate(-.25)"><path d="M208.658 144a2.992 2.992 0 0 1 5.984 0" fill="#bfbfbf"/><path d="M214.642 144a2.992 2.992 0 1 1-5.984 0" fill="#e6e6e6"/><circle cx="211.65" cy="144" r="1.496" fill="#383838"/></g><g transform="translate(-.25)"><path d="M208.658 135a2.992 2.992 0 0 1 5.984 0" fill="#bfbfbf"/><path d="M214.642 135a2.992 2.992 0 1 1-5.984 0" fill="#e6e6e6"/><circle cx="211.65" cy="135" r="1.496" fill="#383838"/></g><g transform="translate(-.25)"><path d="M208.658 126a2.992 2.992 0 0 1 5.984 0" fill="#bfbfbf"/><path d="M214.642 126a2.992 2.992 0 1 1-5.984 0" fill="#e6e6e6"/><circle cx="211.65" cy="126" r="1.496" fill="#383838"/></g><g transform="translate(-.25)"><path d="M208.658 117a2.992 2.992 0 0 1 5.984 0" fill="#bfbfbf"/><path d="M214.642 117a2.992 2.992 0 1 1-5.984 0" fill="#e6e6e6"/><circle cx="211.65" cy="117" r="1.496" fill="#383838"/></g><g transform="translate(-.25)"><path d="M208.658 108a2.992 2.992 0 0 1 5.984 0" fill="#bfbfbf"/><path d="M214.642 108a2.992 2.992 0 1 1-5.984 0" fill="#e6e6e6"/><circle cx="211.65" cy="108" r="1.496" fill="#383838"/></g><g transform="translate(-.25)"><path d="M208.658 81a2.992 2.992 0 0 1 5.984 0" fill="#bfbfbf"/><path d="M214.642 81a2.992 2.992 0 1 1-5.984 0" fill="#e6e6e6"/><circle cx="211.65" cy="81" r="1.496" fill="#383838"/></g><g transform="translate(-.25)"><path d="M208.658 72a2.992 2.992 0 0 1 5.984 0" fill="#bfbfbf"/><path d="M214.642 72a2.992 2.992 0 1 1-5.984 0" fill="#e6e6e6"/><circle cx="211.65" cy="72" r="1.496" fill="#383838"/></g><g transform="translate(-.25)"><path d="M208.658 63a2.992 2.992 0 0 1 5.984 0" fill="#bfbfbf"/><path d="M214.642 63a2.992 2.992 0 1 1-5.984 0" fill="#e6e6e6"/><circle cx="211.65" cy="63" r="1.496" fill="#383838"/></g><g transform="translate(-.25)"><path d="M208.658 54a2.992 2.992 0 0 1 5.984 0" fill="#bfbfbf"/><path d="M214.642 54a2.992 2.992 0 1 1-5.984 0" fill="#e6e6e6"/><circle cx="211.65" cy="54" r="1.496" fill="#383838"/></g><g transform="translate(-.25)"><path d="M208.658 45a2.992 2.992 0 0 1 5.984 0" fill="#bfbfbf"/><path d="M214.642 45a2.992 2.992 0 1 1-5.984 0" fill="#e6e6e6"/><circle cx="211.65" cy="45" r="1.496" fill="#383838"/></g><g transform="translate(-.25)"><path d="M217.658 144a2.992 2.992 0 0 1 5.984 0" fill="#bfbfbf"/><path d="M223.642 144a2.992 2.992 0 1 1-5.984 0" fill="#e6e6e6"/><circle cx="220.65" cy="144" r="1.496" fill="#383838"/></g><g transform="translate(-.25)"><path d="M217.658 135a2.992 2.992 0 0 1 5.984 0" fill="#bfbfbf"/><path d="M223.642 135a2.992 2.992 0 1 1-5.984 0" fill="#e6e6e6"/><circle cx="220.65" cy="135" r="1.496" fill="#383838"/></g><g transform="translate(-.25)"><path d="M217.658 126a2.992 2.992 0 0 1 5.984 0" fill="#bfbfbf"/><path d="M223.642 126a2.992 2.992 0 1 1-5.984 0" fill="#e6e6e6"/><circle cx="220.65" cy="126" r="1.496" fill="#383838"/></g><g transform="translate(-.25)"><path d="M217.658 117a2.992 2.992 0 0 1 5.984 0" fill="#bfbfbf"/><path d="M223.642 117a2.992 2.992 0 1 1-5.984 0" fill="#e6e6e6"/><circle cx="220.65" cy="117" r="1.496" fill="#383838"/></g><g transform="translate(-.25)"><path d="M217.658 108a2.992 2.992 0 0 1 5.984 0" fill="#bfbfbf"/><path d="M223.642 108a2.992 2.992 0 1 1-5.984 0" fill="#e6e6e6"/><circle cx="220.65" cy="108" r="1.496" fill="#383838"/></g><g transform="translate(-.25)"><path d="M217.658 81a2.992 2.992 0 0 1 5.984 0" fill="#bfbfbf"/><path d="M223.642 81a2.992 2.992 0 1 1-5.984 0" fill="#e6e6e6"/><circle cx="220.65" cy="81" r="1.496" fill="#383838"/></g><g transform="translate(-.25)"><path d="M217.658 72a2.992 2.992 0 0 1 5.984 0" fill="#bfbfbf"/><path d="M223.642 72a2.992 2.992 0 1 1-5.984 0" fill="#e6e6e6"/><circle cx="220.65" cy="72" r="1.496" fill="#383838"/></g><g transform="translate(-.25)"><path d="M217.658 63a2.992 2.992 0 0 1 5.984 0" fill="#bfbfbf"/><path d="M223.642 63a2.992 2.992 0 1 1-5.984 0" fill="#e6e6e6"/><circle cx="220.65" cy="63" r="1.496" fill="#383838"/></g><g transform="translate(-.25)"><path d="M217.658 54a2.992 2.992 0 0 1 5.984 0" fill="#bfbfbf"/><path d="M223.642 54a2.992 2.992 0 1 1-5.984 0" fill="#e6e6e6"/><circle cx="220.65" cy="54" r="1.496" fill="#383838"/></g><g transform="translate(-.25)"><path d="M217.658 45a2.992 2.992 0 0 1 5.984 0" fill="#bfbfbf"/><path d="M223.642 45a2.992 2.992 0 1 1-5.984 0" fill="#e6e6e6"/><circle cx="220.65" cy="45" r="1.496" fill="#383838"/></g><g transform="translate(-.25)"><path d="M226.658 144a2.992 2.992 0 0 1 5.984 0" fill="#bfbfbf"/><path d="M232.642 144a2.992 2.992 0 1 1-5.984 0" fill="#e6e6e6"/><circle cx="229.65" cy="144" r="1.496" fill="#383838"/></g><g transform="translate(-.25)"><path d="M226.658 135a2.992 2.992 0 0 1 5.984 0" fill="#bfbfbf"/><path d="M232.642 135a2.992 2.992 0 1 1-5.984 0" fill="#e6e6e6"/><circle cx="229.65" cy="135" r="1.496" fill="#383838"/></g><g transform="translate(-.25)"><path d="M226.658 126a2.992 2.992 0 0 1 5.984 0" fill="#bfbfbf"/><path d="M232.642 126a2.992 2.992 0 1 1-5.984 0" fill="#e6e6e6"/><circle cx="229.65" cy="126" r="1.496" fill="#383838"/></g><g transform="translate(-.25)"><path d="M226.658 117a2.992 2.992 0 0 1 5.984 0" fill="#bfbfbf"/><path d="M232.642 117a2.992 2.992 0 1 1-5.984 0" fill="#e6e6e6"/><circle cx="229.65" cy="117" r="1.496" fill="#383838"/></g><g transform="translate(-.25)"><path d="M226.658 108a2.992 2.992 0 0 1 5.984 0" fill="#bfbfbf"/><path d="M232.642 108a2.992 2.992 0 1 1-5.984 0" fill="#e6e6e6"/><circle cx="229.65" cy="108" r="1.496" fill="#383838"/></g><g transform="translate(-.25)"><path d="M226.658 81a2.992 2.992 0 0 1 5.984 0" fill="#bfbfbf"/><path d="M232.642 81a2.992 2.992 0 1 1-5.984 0" fill="#e6e6e6"/><circle cx="229.65" cy="81" r="1.496" fill="#383838"/></g><g transform="translate(-.25)"><path d="M226.658 72a2.992 2.992 0 0 1 5.984 0" fill="#bfbfbf"/><path d="M232.642 72a2.992 2.992 0 1 1-5.984 0" fill="#e6e6e6"/><circle cx="229.65" cy="72" r="1.496" fill="#383838"/></g><g transform="translate(-.25)"><path d="M226.658 63a2.992 2.992 0 0 1 5.984 0" fill="#bfbfbf"/><path d="M232.642 63a2.992 2.992 0 1 1-5.984 0" fill="#e6e6e6"/><circle cx="229.65" cy="63" r="1.496" fill="#383838"/></g><g transform="translate(-.25)"><path d="M226.658 54a2.992 2.992 0 0 1 5.984 0" fill="#bfbfbf"/><path d="M232.642 54a2.992 2.992 0 1 1-5.984 0" fill="#e6e6e6"/><circle cx="229.65" cy="54" r="1.496" fill="#383838"/></g><g transform="translate(-.25)"><path d="M226.658 45a2.992 2.992 0 0 1 5.984 0" fill="#bfbfbf"/><path d="M232.642 45a2.992 2.992 0 1 1-5.984 0" fill="#e6e6e6"/><circle cx="229.65" cy="45" r="1.496" fill="#383838"/></g><g transform="translate(-.25)"><path d="M235.658 144a2.992 2.992 0 0 1 5.984 0" fill="#bfbfbf"/><path d="M241.642 144a2.992 2.992 0 1 1-5.984 0" fill="#e6e6e6"/><circle cx="238.65" cy="144" r="1.496" fill="#383838"/></g><g transform="translate(-.25)"><path d="M235.658 135a2.992 2.992 0 0 1 5.984 0" fill="#bfbfbf"/><path d="M241.642 135a2.992 2.992 0 1 1-5.984 0" fill="#e6e6e6"/><circle cx="238.65" cy="135" r="1.496" fill="#383838"/></g><g transform="translate(-.25)"><path d="M235.658 126a2.992 2.992 0 0 1 5.984 0" fill="#bfbfbf"/><path d="M241.642 126a2.992 2.992 0 1 1-5.984 0" fill="#e6e6e6"/><circle cx="238.65" cy="126" r="1.496" fill="#383838"/></g><g transform="translate(-.25)"><path d="M235.658 117a2.992 2.992 0 0 1 5.984 0" fill="#bfbfbf"/><path d="M241.642 117a2.992 2.992 0 1 1-5.984 0" fill="#e6e6e6"/><circle cx="238.65" cy="117" r="1.496" fill="#383838"/></g><g transform="translate(-.25)"><path d="M235.658 108a2.992 2.992 0 0 1 5.984 0" fill="#bfbfbf"/><path d="M241.642 108a2.992 2.992 0 1 1-5.984 0" fill="#e6e6e6"/><circle cx="238.65" cy="108" r="1.496" fill="#383838"/></g><g transform="translate(-.25)"><path d="M235.658 81a2.992 2.992 0 0 1 5.984 0" fill="#bfbfbf"/><path d="M241.642 81a2.992 2.992 0 1 1-5.984 0" fill="#e6e6e6"/><circle cx="238.65" cy="81" r="1.496" fill="#383838"/></g><g transform="translate(-.25)"><path d="M235.658 72a2.992 2.992 0 0 1 5.984 0" fill="#bfbfbf"/><path d="M241.642 72a2.992 2.992 0 1 1-5.984 0" fill="#e6e6e6"/><circle cx="238.65" cy="72" r="1.496" fill="#383838"/></g><g transform="translate(-.25)"><path d="M235.658 63a2.992 2.992 0 0 1 5.984 0" fill="#bfbfbf"/><path d="M241.642 63a2.992 2.992 0 1 1-5.984 0" fill="#e6e6e6"/><circle cx="238.65" cy="63" r="1.496" fill="#383838"/></g><g transform="translate(-.25)"><path d="M235.658 54a2.992 2.992 0 0 1 5.984 0" fill="#bfbfbf"/><path d="M241.642 54a2.992 2.992 0 1 1-5.984 0" fill="#e6e6e6"/><circle cx="238.65" cy="54" r="1.496" fill="#383838"/></g><g transform="translate(-.25)"><path d="M235.658 45a2.992 2.992 0 0 1 5.984 0" fill="#bfbfbf"/><path d="M241.642 45a2.992 2.992 0 1 1-5.984 0" fill="#e6e6e6"/><circle cx="238.65" cy="45" r="1.496" fill="#383838"/></g><g transform="translate(-.25)"><path d="M244.658 144a2.992 2.992 0 0 1 5.984 0" fill="#bfbfbf"/><path d="M250.642 144a2.992 2.992 0 1 1-5.984 0" fill="#e6e6e6"/><circle cx="247.65" cy="144" r="1.496" fill="#383838"/></g><g transform="translate(-.25)"><path d="M244.658 135a2.992 2.992 0 0 1 5.984 0" fill="#bfbfbf"/><path d="M250.642 135a2.992 2.992 0 1 1-5.984 0" fill="#e6e6e6"/><circle cx="247.65" cy="135" r="1.496" fill="#383838"/></g><g transform="translate(-.25)"><path d="M244.658 126a2.992 2.992 0 0 1 5.984 0" fill="#bfbfbf"/><path d="M250.642 126a2.992 2.992 0 1 1-5.984 0" fill="#e6e6e6"/><circle cx="247.65" cy="126" r="1.496" fill="#383838"/></g><g transform="translate(-.25)"><path d="M244.658 117a2.992 2.992 0 0 1 5.984 0" fill="#bfbfbf"/><path d="M250.642 117a2.992 2.992 0 1 1-5.984 0" fill="#e6e6e6"/><circle cx="247.65" cy="117" r="1.496" fill="#383838"/></g><g transform="translate(-.25)"><path d="M244.658 108a2.992 2.992 0 0 1 5.984 0" fill="#bfbfbf"/><path d="M250.642 108a2.992 2.992 0 1 1-5.984 0" fill="#e6e6e6"/><circle cx="247.65" cy="108" r="1.496" fill="#383838"/></g><g transform="translate(-.25)"><path d="M244.658 81a2.992 2.992 0 0 1 5.984 0" fill="#bfbfbf"/><path d="M250.642 81a2.992 2.992 0 1 1-5.984 0" fill="#e6e6e6"/><circle cx="247.65" cy="81" r="1.496" fill="#383838"/></g><g transform="translate(-.25)"><path d="M244.658 72a2.992 2.992 0 0 1 5.984 0" fill="#bfbfbf"/><path d="M250.642 72a2.992 2.992 0 1 1-5.984 0" fill="#e6e6e6"/><circle cx="247.65" cy="72" r="1.496" fill="#383838"/></g><g transform="translate(-.25)"><path d="M244.658 63a2.992 2.992 0 0 1 5.984 0" fill="#bfbfbf"/><path d="M250.642 63a2.992 2.992 0 1 1-5.984 0" fill="#e6e6e6"/><circle cx="247.65" cy="63" r="1.496" fill="#383838"/></g><g transform="translate(-.25)"><path d="M244.658 54a2.992 2.992 0 0 1 5.984 0" fill="#bfbfbf"/><path d="M250.642 54a2.992 2.992 0 1 1-5.984 0" fill="#e6e6e6"/><circle cx="247.65" cy="54" r="1.496" fill="#383838"/></g><g transform="translate(-.25)"><path d="M244.658 45a2.992 2.992 0 0 1 5.984 0" fill="#bfbfbf"/><path d="M250.642 45a2.992 2.992 0 1 1-5.984 0" fill="#e6e6e6"/><circle cx="247.65" cy="45" r="1.496" fill="#383838"/></g><g transform="translate(-.25)"><path d="M253.658 144a2.992 2.992 0 0 1 5.984 0" fill="#bfbfbf"/><path d="M259.642 144a2.992 2.992 0 1 1-5.984 0" fill="#e6e6e6"/><circle cx="256.65" cy="144" r="1.496" fill="#383838"/></g><g transform="translate(-.25)"><path d="M253.658 135a2.992 2.992 0 0 1 5.984 0" fill="#bfbfbf"/><path d="M259.642 135a2.992 2.992 0 1 1-5.984 0" fill="#e6e6e6"/><circle cx="256.65" cy="135" r="1.496" fill="#383838"/></g><g transform="translate(-.25)"><path d="M253.658 126a2.992 2.992 0 0 1 5.984 0" fill="#bfbfbf"/><path d="M259.642 126a2.992 2.992 0 1 1-5.984 0" fill="#e6e6e6"/><circle cx="256.65" cy="126" r="1.496" fill="#383838"/></g><g transform="translate(-.25)"><path d="M253.658 117a2.992 2.992 0 0 1 5.984 0" fill="#bfbfbf"/><path d="M259.642 117a2.992 2.992 0 1 1-5.984 0" fill="#e6e6e6"/><circle cx="256.65" cy="117" r="1.496" fill="#383838"/></g><g transform="translate(-.25)"><path d="M253.658 108a2.992 2.992 0 0 1 5.984 0" fill="#bfbfbf"/><path d="M259.642 108a2.992 2.992 0 1 1-5.984 0" fill="#e6e6e6"/><circle cx="256.65" cy="108" r="1.496" fill="#383838"/></g><g transform="translate(-.25)"><path d="M253.658 81a2.992 2.992 0 0 1 5.984 0" fill="#bfbfbf"/><path d="M259.642 81a2.992 2.992 0 1 1-5.984 0" fill="#e6e6e6"/><circle cx="256.65" cy="81" r="1.496" fill="#383838"/></g><g transform="translate(-.25)"><path d="M253.658 72a2.992 2.992 0 0 1 5.984 0" fill="#bfbfbf"/><path d="M259.642 72a2.992 2.992 0 1 1-5.984 0" fill="#e6e6e6"/><circle cx="256.65" cy="72" r="1.496" fill="#383838"/></g><g transform="translate(-.25)"><path d="M253.658 63a2.992 2.992 0 0 1 5.984 0" fill="#bfbfbf"/><path d="M259.642 63a2.992 2.992 0 1 1-5.984 0" fill="#e6e6e6"/><circle cx="256.65" cy="63" r="1.496" fill="#383838"/></g><g transform="translate(-.25)"><path d="M253.658 54a2.992 2.992 0 0 1 5.984 0" fill="#bfbfbf"/><path d="M259.642 54a2.992 2.992 0 1 1-5.984 0" fill="#e6e6e6"/><circle cx="256.65" cy="54" r="1.496" fill="#383838"/></g><g transform="translate(-.25)"><path d="M253.658 45a2.992 2.992 0 0 1 5.984 0" fill="#bfbfbf"/><path d="M259.642 45a2.992 2.992 0 1 1-5.984 0" fill="#e6e6e6"/><circle cx="256.65" cy="45" r="1.496" fill="#383838"/></g><g transform="translate(-.25)"><path d="M262.658 144a2.992 2.992 0 0 1 5.984 0" fill="#bfbfbf"/><path d="M268.642 144a2.992 2.992 0 1 1-5.984 0" fill="#e6e6e6"/><circle cx="265.65" cy="144" r="1.496" fill="#383838"/></g><g transform="translate(-.25)"><path d="M262.658 135a2.992 2.992 0 0 1 5.984 0" fill="#bfbfbf"/><path d="M268.642 135a2.992 2.992 0 1 1-5.984 0" fill="#e6e6e6"/><circle cx="265.65" cy="135" r="1.496" fill="#383838"/></g><g transform="translate(-.25)"><path d="M262.658 126a2.992 2.992 0 0 1 5.984 0" fill="#bfbfbf"/><path d="M268.642 126a2.992 2.992 0 1 1-5.984 0" fill="#e6e6e6"/><circle cx="265.65" cy="126" r="1.496" fill="#383838"/></g><g transform="translate(-.25)"><path d="M262.658 117a2.992 2.992 0 0 1 5.984 0" fill="#bfbfbf"/><path d="M268.642 117a2.992 2.992 0 1 1-5.984 0" fill="#e6e6e6"/><circle cx="265.65" cy="117" r="1.496" fill="#383838"/></g><g transform="translate(-.25)"><path d="M262.658 108a2.992 2.992 0 0 1 5.984 0" fill="#bfbfbf"/><path d="M268.642 108a2.992 2.992 0 1 1-5.984 0" fill="#e6e6e6"/><circle cx="265.65" cy="108" r="1.496" fill="#383838"/></g><g transform="translate(-.25)"><path d="M262.658 81a2.992 2.992 0 0 1 5.984 0" fill="#bfbfbf"/><path d="M268.642 81a2.992 2.992 0 1 1-5.984 0" fill="#e6e6e6"/><circle cx="265.65" cy="81" r="1.496" fill="#383838"/></g><g transform="translate(-.25)"><path d="M262.658 72a2.992 2.992 0 0 1 5.984 0" fill="#bfbfbf"/><path d="M268.642 72a2.992 2.992 0 1 1-5.984 0" fill="#e6e6e6"/><circle cx="265.65" cy="72" r="1.496" fill="#383838"/></g><g transform="translate(-.25)"><path d="M262.658 63a2.992 2.992 0 0 1 5.984 0" fill="#bfbfbf"/><path d="M268.642 63a2.992 2.992 0 1 1-5.984 0" fill="#e6e6e6"/><circle cx="265.65" cy="63" r="1.496" fill="#383838"/></g><g transform="translate(-.25)"><path d="M262.658 54a2.992 2.992 0 0 1 5.984 0" fill="#bfbfbf"/><path d="M268.642 54a2.992 2.992 0 1 1-5.984 0" fill="#e6e6e6"/><circle cx="265.65" cy="54" r="1.496" fill="#383838"/></g><g transform="translate(-.25)"><path d="M262.658 45a2.992 2.992 0 0 1 5.984 0" fill="#bfbfbf"/><path d="M268.642 45a2.992 2.992 0 1 1-5.984 0" fill="#e6e6e6"/><circle cx="265.65" cy="45" r="1.496" fill="#383838"/></g><g transform="translate(-.25)"><path d="M271.658 144a2.992 2.992 0 0 1 5.984 0" fill="#bfbfbf"/><path d="M277.642 144a2.992 2.992 0 1 1-5.984 0" fill="#e6e6e6"/><circle cx="274.65" cy="144" r="1.496" fill="#383838"/></g><g transform="translate(-.25)"><path d="M271.658 135a2.992 2.992 0 0 1 5.984 0" fill="#bfbfbf"/><path d="M277.642 135a2.992 2.992 0 1 1-5.984 0" fill="#e6e6e6"/><circle cx="274.65" cy="135" r="1.496" fill="#383838"/></g><g transform="translate(-.25)"><path d="M271.658 126a2.992 2.992 0 0 1 5.984 0" fill="#bfbfbf"/><path d="M277.642 126a2.992 2.992 0 1 1-5.984 0" fill="#e6e6e6"/><circle cx="274.65" cy="126" r="1.496" fill="#383838"/></g><g transform="translate(-.25)"><path d="M271.658 117a2.992 2.992 0 0 1 5.984 0" fill="#bfbfbf"/><path d="M277.642 117a2.992 2.992 0 1 1-5.984 0" fill="#e6e6e6"/><circle cx="274.65" cy="117" r="1.496" fill="#383838"/></g><g transform="translate(-.25)"><path d="M271.658 108a2.992 2.992 0 0 1 5.984 0" fill="#bfbfbf"/><path d="M277.642 108a2.992 2.992 0 1 1-5.984 0" fill="#e6e6e6"/><circle cx="274.65" cy="108" r="1.496" fill="#383838"/></g><g transform="translate(-.25)"><path d="M271.658 81a2.992 2.992 0 0 1 5.984 0" fill="#bfbfbf"/><path d="M277.642 81a2.992 2.992 0 1 1-5.984 0" fill="#e6e6e6"/><circle cx="274.65" cy="81" r="1.496" fill="#383838"/></g><g transform="translate(-.25)"><path d="M271.658 72a2.992 2.992 0 0 1 5.984 0" fill="#bfbfbf"/><path d="M277.642 72a2.992 2.992 0 1 1-5.984 0" fill="#e6e6e6"/><circle cx="274.65" cy="72" r="1.496" fill="#383838"/></g><g transform="translate(-.25)"><path d="M271.658 63a2.992 2.992 0 0 1 5.984 0" fill="#bfbfbf"/><path d="M277.642 63a2.992 2.992 0 1 1-5.984 0" fill="#e6e6e6"/><circle cx="274.65" cy="63" r="1.496" fill="#383838"/></g><g transform="translate(-.25)"><path d="M271.658 54a2.992 2.992 0 0 1 5.984 0" fill="#bfbfbf"/><path d="M277.642 54a2.992 2.992 0 1 1-5.984 0" fill="#e6e6e6"/><circle cx="274.65" cy="54" r="1.496" fill="#383838"/></g><g transform="translate(-.25)"><path d="M271.658 45a2.992 2.992 0 0 1 5.984 0" fill="#bfbfbf"/><path d="M277.642 45a2.992 2.992 0 1 1-5.984 0" fill="#e6e6e6"/><circle cx="274.65" cy="45" r="1.496" fill="#383838"/></g><g transform="translate(-14.25)"><path d="M28.008 180a2.992 2.992 0 0 1 5.984 0" fill="#bfbfbf"/><path d="M33.992 180a2.992 2.992 0 1 1-5.984 0" fill="#e6e6e6"/><circle cx="31" cy="180" r="1.496" fill="#383838"/></g><g transform="translate(-14.25)"><path d="M28.008 171a2.992 2.992 0 0 1 5.984 0" fill="#bfbfbf"/><path d="M33.992 171a2.992 2.992 0 1 1-5.984 0" fill="#e6e6e6"/><circle cx="31" cy="171" r="1.496" fill="#383838"/></g><g transform="translate(-14.25)"><path d="M28.008 18a2.992 2.992 0 0 1 5.984 0" fill="#bfbfbf"/><path d="M33.992 18a2.992 2.992 0 1 1-5.984 0" fill="#e6e6e6"/><circle cx="31" cy="18" r="1.496" fill="#383838"/></g><g transform="translate(-14.25)"><path d="M28.008 9a2.992 2.992 0 0 1 5.984 0" fill="#bfbfbf"/><path d="M33.992 9a2.992 2.992 0 1 1-5.984 0" fill="#e6e6e6"/><circle cx="31" cy="9" r="1.496" fill="#383838"/></g><g transform="translate(-14.25)"><path d="M37.008 180a2.992 2.992 0 0 1 5.984 0" fill="#bfbfbf"/><path d="M42.992 180a2.992 2.992 0 1 1-5.984 0" fill="#e6e6e6"/><circle cx="40" cy="180" r="1.496" fill="#383838"/></g><g transform="translate(-14.25)"><path d="M37.008 171a2.992 2.992 0 0 1 5.984 0" fill="#bfbfbf"/><path d="M42.992 171a2.992 2.992 0 1 1-5.984 0" fill="#e6e6e6"/><circle cx="40" cy="171" r="1.496" fill="#383838"/></g><g transform="translate(-14.25)"><path d="M37.008 18a2.992 2.992 0 0 1 5.984 0" fill="#bfbfbf"/><path d="M42.992 18a2.992 2.992 0 1 1-5.984 0" fill="#e6e6e6"/><circle cx="40" cy="18" r="1.496" fill="#383838"/></g><g transform="translate(-14.25)"><path d="M37.008 9a2.992 2.992 0 0 1 5.984 0" fill="#bfbfbf"/><path d="M42.992 9a2.992 2.992 0 1 1-5.984 0" fill="#e6e6e6"/><circle cx="40" cy="9" r="1.496" fill="#383838"/></g><g transform="translate(-14.25)"><path d="M46.008 180a2.992 2.992 0 0 1 5.984 0" fill="#bfbfbf"/><path d="M51.992 180a2.992 2.992 0 1 1-5.984 0" fill="#e6e6e6"/><circle cx="49" cy="180" r="1.496" fill="#383838"/></g><g transform="translate(-14.25)"><path d="M46.008 171a2.992 2.992 0 0 1 5.984 0" fill="#bfbfbf"/><path d="M51.992 171a2.992 2.992 0 1 1-5.984 0" fill="#e6e6e6"/><circle cx="49" cy="171" r="1.496" fill="#383838"/></g><g transform="translate(-14.25)"><path d="M46.008 18a2.992 2.992 0 0 1 5.984 0" fill="#bfbfbf"/><path d="M51.992 18a2.992 2.992 0 1 1-5.984 0" fill="#e6e6e6"/><circle cx="49" cy="18" r="1.496" fill="#383838"/></g><g transform="translate(-14.25)"><path d="M46.008 9a2.992 2.992 0 0 1 5.984 0" fill="#bfbfbf"/><path d="M51.992 9a2.992 2.992 0 1 1-5.984 0" fill="#e6e6e6"/><circle cx="49" cy="9" r="1.496" fill="#383838"/></g><g transform="translate(-14.25)"><path d="M55.008 180a2.992 2.992 0 0 1 5.984 0" fill="#bfbfbf"/><path d="M60.992 180a2.992 2.992 0 1 1-5.984 0" fill="#e6e6e6"/><circle cx="58" cy="180" r="1.496" fill="#383838"/></g><g transform="translate(-14.25)"><path d="M55.008 171a2.992 2.992 0 0 1 5.984 0" fill="#bfbfbf"/><path d="M60.992 171a2.992 2.992 0 1 1-5.984 0" fill="#e6e6e6"/><circle cx="58" cy="171" r="1.496" fill="#383838"/></g><g transform="translate(-14.25)"><path d="M55.008 18a2.992 2.992 0 0 1 5.984 0" fill="#bfbfbf"/><path d="M60.992 18a2.992 2.992 0 1 1-5.984 0" fill="#e6e6e6"/><circle cx="58" cy="18" r="1.496" fill="#383838"/></g><g transform="translate(-14.25)"><path d="M55.008 9a2.992 2.992 0 0 1 5.984 0" fill="#bfbfbf"/><path d="M60.992 9a2.992 2.992 0 1 1-5.984 0" fill="#e6e6e6"/><circle cx="58" cy="9" r="1.496" fill="#383838"/></g><g transform="translate(-14.25)"><path d="M64.008 180a2.992 2.992 0 0 1 5.984 0" fill="#bfbfbf"/><path d="M69.992 180a2.992 2.992 0 1 1-5.984 0" fill="#e6e6e6"/><circle cx="67" cy="180" r="1.496" fill="#383838"/></g><g transform="translate(-14.25)"><path d="M64.008 171a2.992 2.992 0 0 1 5.984 0" fill="#bfbfbf"/><path d="M69.992 171a2.992 2.992 0 1 1-5.984 0" fill="#e6e6e6"/><circle cx="67" cy="171" r="1.496" fill="#383838"/></g><g transform="translate(-14.25)"><path d="M64.008 18a2.992 2.992 0 0 1 5.984 0" fill="#bfbfbf"/><path d="M69.992 18a2.992 2.992 0 1 1-5.984 0" fill="#e6e6e6"/><circle cx="67" cy="18" r="1.496" fill="#383838"/></g><g transform="translate(-14.25)"><path d="M64.008 9a2.992 2.992 0 0 1 5.984 0" fill="#bfbfbf"/><path d="M69.992 9a2.992 2.992 0 1 1-5.984 0" fill="#e6e6e6"/><circle cx="67" cy="9" r="1.496" fill="#383838"/></g><g transform="translate(-14.25)"><path d="M82.008 180a2.992 2.992 0 0 1 5.984 0" fill="#bfbfbf"/><path d="M87.992 180a2.992 2.992 0 1 1-5.984 0" fill="#e6e6e6"/><circle cx="85" cy="180" r="1.496" fill="#383838"/></g><g transform="translate(-14.25)"><path d="M82.008 171a2.992 2.992 0 0 1 5.984 0" fill="#bfbfbf"/><path d="M87.992 171a2.992 2.992 0 1 1-5.984 0" fill="#e6e6e6"/><circle cx="85" cy="171" r="1.496" fill="#383838"/></g><g transform="translate(-14.25)"><path d="M82.008 18a2.992 2.992 0 0 1 5.984 0" fill="#bfbfbf"/><path d="M87.992 18a2.992 2.992 0 1 1-5.984 0" fill="#e6e6e6"/><circle cx="85" cy="18" r="1.496" fill="#383838"/></g><g transform="translate(-14.25)"><path d="M82.008 9a2.992 2.992 0 0 1 5.984 0" fill="#bfbfbf"/><path d="M87.992 9a2.992 2.992 0 1 1-5.984 0" fill="#e6e6e6"/><circle cx="85" cy="9" r="1.496" fill="#383838"/></g><g transform="translate(-14.25)"><path d="M91.008 180a2.992 2.992 0 0 1 5.984 0" fill="#bfbfbf"/><path d="M96.992 180a2.992 2.992 0 1 1-5.984 0" fill="#e6e6e6"/><circle cx="94" cy="180" r="1.496" fill="#383838"/></g><g transform="translate(-14.25)"><path d="M91.008 171a2.992 2.992 0 0 1 5.984 0" fill="#bfbfbf"/><path d="M96.992 171a2.992 2.992 0 1 1-5.984 0" fill="#e6e6e6"/><circle cx="94" cy="171" r="1.496" fill="#383838"/></g><g transform="translate(-14.25)"><path d="M91.008 18a2.992 2.992 0 0 1 5.984 0" fill="#bfbfbf"/><path d="M96.992 18a2.992 2.992 0 1 1-5.984 0" fill="#e6e6e6"/><circle cx="94" cy="18" r="1.496" fill="#383838"/></g><g transform="translate(-14.25)"><path d="M91.008 9a2.992 2.992 0 0 1 5.984 0" fill="#bfbfbf"/><path d="M96.992 9a2.992 2.992 0 1 1-5.984 0" fill="#e6e6e6"/><circle cx="94" cy="9" r="1.496" fill="#383838"/></g><g transform="translate(-14.25)"><path d="M100.008 180a2.992 2.992 0 0 1 5.984 0" fill="#bfbfbf"/><path d="M105.992 180a2.992 2.992 0 1 1-5.984 0" fill="#e6e6e6"/><circle cx="103" cy="180" r="1.496" fill="#383838"/></g><g transform="translate(-14.25)"><path d="M100.008 171a2.992 2.992 0 0 1 5.984 0" fill="#bfbfbf"/><path d="M105.992 171a2.992 2.992 0 1 1-5.984 0" fill="#e6e6e6"/><circle cx="103" cy="171" r="1.496" fill="#383838"/></g><g transform="translate(-14.25)"><path d="M100.008 18a2.992 2.992 0 0 1 5.984 0" fill="#bfbfbf"/><path d="M105.992 18a2.992 2.992 0 1 1-5.984 0" fill="#e6e6e6"/><circle cx="103" cy="18" r="1.496" fill="#383838"/></g><g transform="translate(-14.25)"><path d="M100.008 9a2.992 2.992 0 0 1 5.984 0" fill="#bfbfbf"/><path d="M105.992 9a2.992 2.992 0 1 1-5.984 0" fill="#e6e6e6"/><circle cx="103" cy="9" r="1.496" fill="#383838"/></g><g transform="translate(-14.25)"><path d="M109.008 180a2.992 2.992 0 0 1 5.984 0" fill="#bfbfbf"/><path d="M114.992 180a2.992 2.992 0 1 1-5.984 0" fill="#e6e6e6"/><circle cx="112" cy="180" r="1.496" fill="#383838"/></g><g transform="translate(-14.25)"><path d="M109.008 171a2.992 2.992 0 0 1 5.984 0" fill="#bfbfbf"/><path d="M114.992 171a2.992 2.992 0 1 1-5.984 0" fill="#e6e6e6"/><circle cx="112" cy="171" r="1.496" fill="#383838"/></g><g transform="translate(-14.25)"><path d="M109.008 18a2.992 2.992 0 0 1 5.984 0" fill="#bfbfbf"/><path d="M114.992 18a2.992 2.992 0 1 1-5.984 0" fill="#e6e6e6"/><circle cx="112" cy="18" r="1.496" fill="#383838"/></g><g transform="translate(-14.25)"><path d="M109.008 9a2.992 2.992 0 0 1 5.984 0" fill="#bfbfbf"/><path d="M114.992 9a2.992 2.992 0 1 1-5.984 0" fill="#e6e6e6"/><circle cx="112" cy="9" r="1.496" fill="#383838"/></g><g transform="translate(-14.25)"><path d="M118.008 180a2.992 2.992 0 0 1 5.984 0" fill="#bfbfbf"/><path d="M123.992 180a2.992 2.992 0 1 1-5.984 0" fill="#e6e6e6"/><circle cx="121" cy="180" r="1.496" fill="#383838"/></g><g transform="translate(-14.25)"><path d="M118.008 171a2.992 2.992 0 0 1 5.984 0" fill="#bfbfbf"/><path d="M123.992 171a2.992 2.992 0 1 1-5.984 0" fill="#e6e6e6"/><circle cx="121" cy="171" r="1.496" fill="#383838"/></g><g transform="translate(-14.25)"><path d="M118.008 18a2.992 2.992 0 0 1 5.984 0" fill="#bfbfbf"/><path d="M123.992 18a2.992 2.992 0 1 1-5.984 0" fill="#e6e6e6"/><circle cx="121" cy="18" r="1.496" fill="#383838"/></g><g transform="translate(-14.25)"><path d="M118.008 9a2.992 2.992 0 0 1 5.984 0" fill="#bfbfbf"/><path d="M123.992 9a2.992 2.992 0 1 1-5.984 0" fill="#e6e6e6"/><circle cx="121" cy="9" r="1.496" fill="#383838"/></g><g transform="translate(-14.25)"><path d="M136.008 180a2.992 2.992 0 0 1 5.984 0" fill="#bfbfbf"/><path d="M141.992 180a2.992 2.992 0 1 1-5.984 0" fill="#e6e6e6"/><circle cx="139" cy="180" r="1.496" fill="#383838"/></g><g transform="translate(-14.25)"><path d="M136.008 171a2.992 2.992 0 0 1 5.984 0" fill="#bfbfbf"/><path d="M141.992 171a2.992 2.992 0 1 1-5.984 0" fill="#e6e6e6"/><circle cx="139" cy="171" r="1.496" fill="#383838"/></g><g transform="translate(-14.25)"><path d="M136.008 18a2.992 2.992 0 0 1 5.984 0" fill="#bfbfbf"/><path d="M141.992 18a2.992 2.992 0 1 1-5.984 0" fill="#e6e6e6"/><circle cx="139" cy="18" r="1.496" fill="#383838"/></g><g transform="translate(-14.25)"><path d="M136.008 9a2.992 2.992 0 0 1 5.984 0" fill="#bfbfbf"/><path d="M141.992 9a2.992 2.992 0 1 1-5.984 0" fill="#e6e6e6"/><circle cx="139" cy="9" r="1.496" fill="#383838"/></g><g transform="translate(-14.25)"><path d="M145.008 180a2.992 2.992 0 0 1 5.984 0" fill="#bfbfbf"/><path d="M150.992 180a2.992 2.992 0 1 1-5.984 0" fill="#e6e6e6"/><circle cx="148" cy="180" r="1.496" fill="#383838"/></g><g transform="translate(-14.25)"><path d="M145.008 171a2.992 2.992 0 0 1 5.984 0" fill="#bfbfbf"/><path d="M150.992 171a2.992 2.992 0 1 1-5.984 0" fill="#e6e6e6"/><circle cx="148" cy="171" r="1.496" fill="#383838"/></g><g transform="translate(-14.25)"><path d="M145.008 18a2.992 2.992 0 0 1 5.984 0" fill="#bfbfbf"/><path d="M150.992 18a2.992 2.992 0 1 1-5.984 0" fill="#e6e6e6"/><circle cx="148" cy="18" r="1.496" fill="#383838"/></g><g transform="translate(-14.25)"><path d="M145.008 9a2.992 2.992 0 0 1 5.984 0" fill="#bfbfbf"/><path d="M150.992 9a2.992 2.992 0 1 1-5.984 0" fill="#e6e6e6"/><circle cx="148" cy="9" r="1.496" fill="#383838"/></g><g transform="translate(-14.25)"><path d="M154.008 180a2.992 2.992 0 0 1 5.984 0" fill="#bfbfbf"/><path d="M159.992 180a2.992 2.992 0 1 1-5.984 0" fill="#e6e6e6"/><circle cx="157" cy="180" r="1.496" fill="#383838"/></g><g transform="translate(-14.25)"><path d="M154.008 171a2.992 2.992 0 0 1 5.984 0" fill="#bfbfbf"/><path d="M159.992 171a2.992 2.992 0 1 1-5.984 0" fill="#e6e6e6"/><circle cx="157" cy="171" r="1.496" fill="#383838"/></g><g transform="translate(-14.25)"><path d="M154.008 18a2.992 2.992 0 0 1 5.984 0" fill="#bfbfbf"/><path d="M159.992 18a2.992 2.992 0 1 1-5.984 0" fill="#e6e6e6"/><circle cx="157" cy="18" r="1.496" fill="#383838"/></g><g transform="translate(-14.25)"><path d="M154.008 9a2.992 2.992 0 0 1 5.984 0" fill="#bfbfbf"/><path d="M159.992 9a2.992 2.992 0 1 1-5.984 0" fill="#e6e6e6"/><circle cx="157" cy="9" r="1.496" fill="#383838"/></g><g transform="translate(-14.25)"><path d="M163.008 180a2.992 2.992 0 0 1 5.984 0" fill="#bfbfbf"/><path d="M168.992 180a2.992 2.992 0 1 1-5.984 0" fill="#e6e6e6"/><circle cx="166" cy="180" r="1.496" fill="#383838"/></g><g transform="translate(-14.25)"><path d="M163.008 171a2.992 2.992 0 0 1 5.984 0" fill="#bfbfbf"/><path d="M168.992 171a2.992 2.992 0 1 1-5.984 0" fill="#e6e6e6"/><circle cx="166" cy="171" r="1.496" fill="#383838"/></g><g transform="translate(-14.25)"><path d="M163.008 18a2.992 2.992 0 0 1 5.984 0" fill="#bfbfbf"/><path d="M168.992 18a2.992 2.992 0 1 1-5.984 0" fill="#e6e6e6"/><circle cx="166" cy="18" r="1.496" fill="#383838"/></g><g transform="translate(-14.25)"><path d="M163.008 9a2.992 2.992 0 0 1 5.984 0" fill="#bfbfbf"/><path d="M168.992 9a2.992 2.992 0 1 1-5.984 0" fill="#e6e6e6"/><circle cx="166" cy="9" r="1.496" fill="#383838"/></g><g transform="translate(-14.25)"><path d="M172.008 180a2.992 2.992 0 0 1 5.984 0" fill="#bfbfbf"/><path d="M177.992 180a2.992 2.992 0 1 1-5.984 0" fill="#e6e6e6"/><circle cx="175" cy="180" r="1.496" fill="#383838"/></g><g transform="translate(-14.25)"><path d="M172.008 171a2.992 2.992 0 0 1 5.984 0" fill="#bfbfbf"/><path d="M177.992 171a2.992 2.992 0 1 1-5.984 0" fill="#e6e6e6"/><circle cx="175" cy="171" r="1.496" fill="#383838"/></g><g transform="translate(-14.25)"><path d="M172.008 18a2.992 2.992 0 0 1 5.984 0" fill="#bfbfbf"/><path d="M177.992 18a2.992 2.992 0 1 1-5.984 0" fill="#e6e6e6"/><circle cx="175" cy="18" r="1.496" fill="#383838"/></g><g transform="translate(-14.25)"><path d="M172.008 9a2.992 2.992 0 0 1 5.984 0" fill="#bfbfbf"/><path d="M177.992 9a2.992 2.992 0 1 1-5.984 0" fill="#e6e6e6"/><circle cx="175" cy="9" r="1.496" fill="#383838"/></g><g transform="translate(-14.25)"><path d="M190.008 180a2.992 2.992 0 0 1 5.984 0" fill="#bfbfbf"/><path d="M195.992 180a2.992 2.992 0 1 1-5.984 0" fill="#e6e6e6"/><circle cx="193" cy="180" r="1.496" fill="#383838"/></g><g transform="translate(-14.25)"><path d="M190.008 171a2.992 2.992 0 0 1 5.984 0" fill="#bfbfbf"/><path d="M195.992 171a2.992 2.992 0 1 1-5.984 0" fill="#e6e6e6"/><circle cx="193" cy="171" r="1.496" fill="#383838"/></g><g transform="translate(-14.25)"><path d="M190.008 18a2.992 2.992 0 0 1 5.984 0" fill="#bfbfbf"/><path d="M195.992 18a2.992 2.992 0 1 1-5.984 0" fill="#e6e6e6"/><circle cx="193" cy="18" r="1.496" fill="#383838"/></g><g transform="translate(-14.25)"><path d="M190.008 9a2.992 2.992 0 0 1 5.984 0" fill="#bfbfbf"/><path d="M195.992 9a2.992 2.992 0 1 1-5.984 0" fill="#e6e6e6"/><circle cx="193" cy="9" r="1.496" fill="#383838"/></g><g transform="translate(-14.25)"><path d="M199.008 180a2.992 2.992 0 0 1 5.984 0" fill="#bfbfbf"/><path d="M204.992 180a2.992 2.992 0 1 1-5.984 0" fill="#e6e6e6"/><circle cx="202" cy="180" r="1.496" fill="#383838"/></g><g transform="translate(-14.25)"><path d="M199.008 171a2.992 2.992 0 0 1 5.984 0" fill="#bfbfbf"/><path d="M204.992 171a2.992 2.992 0 1 1-5.984 0" fill="#e6e6e6"/><circle cx="202" cy="171" r="1.496" fill="#383838"/></g><g transform="translate(-14.25)"><path d="M199.008 18a2.992 2.992 0 0 1 5.984 0" fill="#bfbfbf"/><path d="M204.992 18a2.992 2.992 0 1 1-5.984 0" fill="#e6e6e6"/><circle cx="202" cy="18" r="1.496" fill="#383838"/></g><g transform="translate(-14.25)"><path d="M199.008 9a2.992 2.992 0 0 1 5.984 0" fill="#bfbfbf"/><path d="M204.992 9a2.992 2.992 0 1 1-5.984 0" fill="#e6e6e6"/><circle cx="202" cy="9" r="1.496" fill="#383838"/></g><g transform="translate(-14.25)"><path d="M208.008 180a2.992 2.992 0 0 1 5.984 0" fill="#bfbfbf"/><path d="M213.992 180a2.992 2.992 0 1 1-5.984 0" fill="#e6e6e6"/><circle cx="211" cy="180" r="1.496" fill="#383838"/></g><g transform="translate(-14.25)"><path d="M208.008 171a2.992 2.992 0 0 1 5.984 0" fill="#bfbfbf"/><path d="M213.992 171a2.992 2.992 0 1 1-5.984 0" fill="#e6e6e6"/><circle cx="211" cy="171" r="1.496" fill="#383838"/></g><g transform="translate(-14.25)"><path d="M208.008 18a2.992 2.992 0 0 1 5.984 0" fill="#bfbfbf"/><path d="M213.992 18a2.992 2.992 0 1 1-5.984 0" fill="#e6e6e6"/><circle cx="211" cy="18" r="1.496" fill="#383838"/></g><g transform="translate(-14.25)"><path d="M208.008 9a2.992 2.992 0 0 1 5.984 0" fill="#bfbfbf"/><path d="M213.992 9a2.992 2.992 0 1 1-5.984 0" fill="#e6e6e6"/><circle cx="211" cy="9" r="1.496" fill="#383838"/></g><g transform="translate(-14.25)"><path d="M217.008 180a2.992 2.992 0 0 1 5.984 0" fill="#bfbfbf"/><path d="M222.992 180a2.992 2.992 0 1 1-5.984 0" fill="#e6e6e6"/><circle cx="220" cy="180" r="1.496" fill="#383838"/></g><g transform="translate(-14.25)"><path d="M217.008 171a2.992 2.992 0 0 1 5.984 0" fill="#bfbfbf"/><path d="M222.992 171a2.992 2.992 0 1 1-5.984 0" fill="#e6e6e6"/><circle cx="220" cy="171" r="1.496" fill="#383838"/></g><g transform="translate(-14.25)"><path d="M217.008 18a2.992 2.992 0 0 1 5.984 0" fill="#bfbfbf"/><path d="M222.992 18a2.992 2.992 0 1 1-5.984 0" fill="#e6e6e6"/><circle cx="220" cy="18" r="1.496" fill="#383838"/></g><g transform="translate(-14.25)"><path d="M217.008 9a2.992 2.992 0 0 1 5.984 0" fill="#bfbfbf"/><path d="M222.992 9a2.992 2.992 0 1 1-5.984 0" fill="#e6e6e6"/><circle cx="220" cy="9" r="1.496" fill="#383838"/></g><g transform="translate(-14.25)"><path d="M226.008 180a2.992 2.992 0 0 1 5.984 0" fill="#bfbfbf"/><path d="M231.992 180a2.992 2.992 0 1 1-5.984 0" fill="#e6e6e6"/><circle cx="229" cy="180" r="1.496" fill="#383838"/></g><g transform="translate(-14.25)"><path d="M226.008 171a2.992 2.992 0 0 1 5.984 0" fill="#bfbfbf"/><path d="M231.992 171a2.992 2.992 0 1 1-5.984 0" fill="#e6e6e6"/><circle cx="229" cy="171" r="1.496" fill="#383838"/></g><g transform="translate(-14.25)"><path d="M226.008 18a2.992 2.992 0 0 1 5.984 0" fill="#bfbfbf"/><path d="M231.992 18a2.992 2.992 0 1 1-5.984 0" fill="#e6e6e6"/><circle cx="229" cy="18" r="1.496" fill="#383838"/></g><g transform="translate(-14.25)"><path d="M226.008 9a2.992 2.992 0 0 1 5.984 0" fill="#bfbfbf"/><path d="M231.992 9a2.992 2.992 0 1 1-5.984 0" fill="#e6e6e6"/><circle cx="229" cy="9" r="1.496" fill="#383838"/></g><g transform="translate(-14.25)"><path d="M244.008 180a2.992 2.992 0 0 1 5.984 0" fill="#bfbfbf"/><path d="M249.992 180a2.992 2.992 0 1 1-5.984 0" fill="#e6e6e6"/><circle cx="247" cy="180" r="1.496" fill="#383838"/></g><g transform="translate(-14.25)"><path d="M244.008 171a2.992 2.992 0 0 1 5.984 0" fill="#bfbfbf"/><path d="M249.992 171a2.992 2.992 0 1 1-5.984 0" fill="#e6e6e6"/><circle cx="247" cy="171" r="1.496" fill="#383838"/></g><g transform="translate(-14.25)"><path d="M244.008 18a2.992 2.992 0 0 1 5.984 0" fill="#bfbfbf"/><path d="M249.992 18a2.992 2.992 0 1 1-5.984 0" fill="#e6e6e6"/><circle cx="247" cy="18" r="1.496" fill="#383838"/></g><g transform="translate(-14.25)"><path d="M244.008 9a2.992 2.992 0 0 1 5.984 0" fill="#bfbfbf"/><path d="M249.992 9a2.992 2.992 0 1 1-5.984 0" fill="#e6e6e6"/><circle cx="247" cy="9" r="1.496" fill="#383838"/></g><g transform="translate(-14.25)"><path d="M253.008 180a2.992 2.992 0 0 1 5.984 0" fill="#bfbfbf"/><path d="M258.992 180a2.992 2.992 0 1 1-5.984 0" fill="#e6e6e6"/><circle cx="256" cy="180" r="1.496" fill="#383838"/></g><g transform="translate(-14.25)"><path d="M253.008 171a2.992 2.992 0 0 1 5.984 0" fill="#bfbfbf"/><path d="M258.992 171a2.992 2.992 0 1 1-5.984 0" fill="#e6e6e6"/><circle cx="256" cy="171" r="1.496" fill="#383838"/></g><g transform="translate(-14.25)"><path d="M253.008 18a2.992 2.992 0 0 1 5.984 0" fill="#bfbfbf"/><path d="M258.992 18a2.992 2.992 0 1 1-5.984 0" fill="#e6e6e6"/><circle cx="256" cy="18" r="1.496" fill="#383838"/></g><g transform="translate(-14.25)"><path d="M253.008 9a2.992 2.992 0 0 1 5.984 0" fill="#bfbfbf"/><path d="M258.992 9a2.992 2.992 0 1 1-5.984 0" fill="#e6e6e6"/><circle cx="256" cy="9" r="1.496" fill="#383838"/></g><g transform="translate(-14.25)"><path d="M262.008 180a2.992 2.992 0 0 1 5.984 0" fill="#bfbfbf"/><path d="M267.992 180a2.992 2.992 0 1 1-5.984 0" fill="#e6e6e6"/><circle cx="265" cy="180" r="1.496" fill="#383838"/></g><g transform="translate(-14.25)"><path d="M262.008 171a2.992 2.992 0 0 1 5.984 0" fill="#bfbfbf"/><path d="M267.992 171a2.992 2.992 0 1 1-5.984 0" fill="#e6e6e6"/><circle cx="265" cy="171" r="1.496" fill="#383838"/></g><g transform="translate(-14.25)"><path d="M262.008 18a2.992 2.992 0 0 1 5.984 0" fill="#bfbfbf"/><path d="M267.992 18a2.992 2.992 0 1 1-5.984 0" fill="#e6e6e6"/><circle cx="265" cy="18" r="1.496" fill="#383838"/></g><g transform="translate(-14.25)"><path d="M262.008 9a2.992 2.992 0 0 1 5.984 0" fill="#bfbfbf"/><path d="M267.992 9a2.992 2.992 0 1 1-5.984 0" fill="#e6e6e6"/><circle cx="265" cy="9" r="1.496" fill="#383838"/></g><g transform="translate(-14.25)"><path d="M271.008 180a2.992 2.992 0 0 1 5.984 0" fill="#bfbfbf"/><path d="M276.992 180a2.992 2.992 0 1 1-5.984 0" fill="#e6e6e6"/><circle cx="274" cy="180" r="1.496" fill="#383838"/></g><g transform="translate(-14.25)"><path d="M271.008 171a2.992 2.992 0 0 1 5.984 0" fill="#bfbfbf"/><path d="M276.992 171a2.992 2.992 0 1 1-5.984 0" fill="#e6e6e6"/><circle cx="274" cy="171" r="1.496" fill="#383838"/></g><g transform="translate(-14.25)"><path d="M271.008 18a2.992 2.992 0 0 1 5.984 0" fill="#bfbfbf"/><path d="M276.992 18a2.992 2.992 0 1 1-5.984 0" fill="#e6e6e6"/><circle cx="274" cy="18" r="1.496" fill="#383838"/></g><g transform="translate(-14.25)"><path d="M271.008 9a2.992 2.992 0 0 1 5.984 0" fill="#bfbfbf"/><path d="M276.992 9a2.992 2.992 0 1 1-5.984 0" fill="#e6e6e6"/><circle cx="274" cy="9" r="1.496" fill="#383838"/></g><g transform="translate(-14.25)"><path d="M280.008 180a2.992 2.992 0 0 1 5.984 0" fill="#bfbfbf"/><path d="M285.992 180a2.992 2.992 0 1 1-5.984 0" fill="#e6e6e6"/><circle cx="283" cy="180" r="1.496" fill="#383838"/></g><g transform="translate(-14.25)"><path d="M280.008 171a2.992 2.992 0 0 1 5.984 0" fill="#bfbfbf"/><path d="M285.992 171a2.992 2.992 0 1 1-5.984 0" fill="#e6e6e6"/><circle cx="283" cy="171" r="1.496" fill="#383838"/></g><g transform="translate(-14.25)"><path d="M280.008 18a2.992 2.992 0 0 1 5.984 0" fill="#bfbfbf"/><path d="M285.992 18a2.992 2.992 0 1 1-5.984 0" fill="#e6e6e6"/><circle cx="283" cy="18" r="1.496" fill="#383838"/></g><g transform="translate(-14.25)"><path d="M280.008 9a2.992 2.992 0 0 1 5.984 0" fill="#bfbfbf"/><path d="M285.992 9a2.992 2.992 0 1 1-5.984 0" fill="#e6e6e6"/><circle cx="283" cy="9" r="1.496" fill="#383838"/></g><text x="-38" y="15.75" transform="rotate(-90)" font-size="5.755" font-family="'Droid Sans'" fill="#b3b0b0">1</text><text x="-158" y="15.75" transform="rotate(-90)" font-size="5.755" font-family="'Droid Sans'" fill="#b3b0b0">1</text><text x="-38" y="51.75" transform="rotate(-90)" font-size="5.755" font-family="'Droid Sans'" fill="#b3b0b0">5</text><text x="-158" y="51.75" transform="rotate(-90)" font-size="5.755" font-family="'Droid Sans'" fill="#b3b0b0">5</text><text x="-38" y="96.75" transform="rotate(-90)" font-size="5.755" font-family="'Droid Sans'" fill="#b3b0b0">10</text><text x="-158" y="96.75" transform="rotate(-90)" font-size="5.755" font-family="'Droid Sans'" fill="#b3b0b0">10</text><text x="-38" y="141.75" transform="rotate(-90)" font-size="5.755" font-family="'Droid Sans'" fill="#b3b0b0">15</text><text x="-158" y="141.75" transform="rotate(-90)" font-size="5.755" font-family="'Droid Sans'" fill="#b3b0b0">15</text><text x="-38" y="186.75" transform="rotate(-90)" font-size="5.755" font-family="'Droid Sans'" fill="#b3b0b0">20</text><text x="-158" y="186.75" transform="rotate(-90)" font-size="5.755" font-family="'Droid Sans'" fill="#b3b0b0">20</text><text x="-38" y="231.75" transform="rotate(-90)" font-size="5.755" font-family="'Droid Sans'" fill="#b3b0b0">25</text><text x="-158" y="231.75" transform="rotate(-90)" font-size="5.755" font-family="'Droid Sans'" fill="#b3b0b0">25</text><text x="-38" y="276.75" transform="rotate(-90)" font-size="5.755" font-family="'Droid Sans'" fill="#b3b0b0">30</text><text x="-158" y="276.75" transform="rotate(-90)" font-size="5.755" font-family="'Droid Sans'" fill="#b3b0b0">30</text><text x="-146" y="6.75" transform="rotate(-90)" font-size="5.755" font-family="'Droid Sans'" fill="#b3b0b0">A</text><text x="-146" y="285.75" transform="rotate(-90)" font-size="5.755" font-family="'Droid Sans'" fill="#b3b0b0">A</text><text x="-137" y="6.75" transform="rotate(-90)" font-size="5.755" font-family="'Droid Sans'" fill="#b3b0b0">B</text><text x="-137" y="285.75" transform="rotate(-90)" font-size="5.755" font-family="'Droid Sans'" fill="#b3b0b0">B</text><text x="-128" y="6.75" transform="rotate(-90)" font-size="5.755" font-family="'Droid Sans'" fill="#b3b0b0">C</text><text x="-128" y="285.75" transform="rotate(-90)" font-size="5.755" font-family="'Droid Sans'" fill="#b3b0b0">C</text><text x="-119" y="6.75" transform="rotate(-90)" font-size="5.755" font-family="'Droid Sans'" fill="#b3b0b0">D</text><text x="-119" y="285.75" transform="rotate(-90)" font-size="5.755" font-family="'Droid Sans'" fill="#b3b0b0">D</text><text x="-110" y="6.75" transform="rotate(-90)" font-size="5.755" font-family="'Droid Sans'" fill="#b3b0b0">E</text><text x="-110" y="285.75" transform="rotate(-90)" font-size="5.755" font-family="'Droid Sans'" fill="#b3b0b0">E</text><text x="-83" y="6.75" transform="rotate(-90)" font-size="5.755" font-family="'Droid Sans'" fill="#b3b0b0">F</text><text x="-83" y="285.75" transform="rotate(-90)" font-size="5.755" font-family="'Droid Sans'" fill="#b3b0b0">F</text><text x="-74" y="6.75" transform="rotate(-90)" font-size="5.755" font-family="'Droid Sans'" fill="#b3b0b0">G</text><text x="-74" y="285.75" transform="rotate(-90)" font-size="5.755" font-family="'Droid Sans'" fill="#b3b0b0">G</text><text x="-65" y="6.75" transform="rotate(-90)" font-size="5.755" font-family="'Droid Sans'" fill="#b3b0b0">H</text><text x="-65" y="285.75" transform="rotate(-90)" font-size="5.755" font-family="'Droid Sans'" fill="#b3b0b0">H</text><text x="-55" y="6.75" transform="rotate(-90)" font-size="5.755" font-family="'Droid Sans'" fill="#b3b0b0">I</text><text x="-55" y="285.75" transform="rotate(-90)" font-size="5.755" font-family="'Droid Sans'" fill="#b3b0b0">I</text><text x="-46" y="6.75" transform="rotate(-90)" font-size="5.755" font-family="'Droid Sans'" fill="#b3b0b0">J</text><text x="-46" y="285.75" transform="rotate(-90)" font-size="5.755" font-family="'Droid Sans'" fill="#b3b0b0">J</text></g><rect ry="1.392" rx="1.392" y="87.681" x="-61.841" height="43.006" width="31.301" transform="rotate(-90)" fill="none"/><text transform="scale(-1)" y="-50.16" x="-181.959" style="line-height:1.25;-inkscape-font-specification:Arial" font-weight="400" font-size="2.252" font-family="Arial" letter-spacing="0" word-spacing="0" fill="#fff" stroke-width=".211"><tspan y="-50.16" x="-181.959">RESET</tspan></text><text y="174.798" x="-37.781" style="line-height:1.25;-inkscape-font-specification:Arial" transform="rotate(-90)" font-weight="400" font-size="2.252" font-family="Arial" letter-spacing="0" word-spacing="0" fill="#fff" stroke-width=".211"><tspan y="174.798" x="-37.781">USB</tspan></text><rect ry="0" rx="0" y="168.998" x="-50.516" height="2.101" width="1.49" transform="rotate(-90)" fill="#dfd7cd"/><rect ry="0" rx="0" y="168.96" x="-48.095" height="2.101" width="1.49" transform="rotate(-90)" fill="#dfd7cd"/><text transform="scale(-1)" y="-25.319" x="-182.174" style="line-height:1.25;-inkscape-font-specification:Arial" font-weight="400" font-size="3.044" font-family="Arial" letter-spacing="0" word-spacing="0" fill="#fff" stroke-width=".143"><tspan y="-25.319" x="-182.174">v1.0.0</tspan></text><path d="m56.566 26.823-.03-11.047 43 .018.022 6.753" fill="none" stroke="#000" stroke-width="2.6" stroke-linecap="round"/></svg>