<?xml version="1.0" encoding="UTF-8" standalone="no"?>
<!-- Created with Inkscape (http://www.inkscape.org/) -->

<svg
   width="63.188812mm"
   height="31.259848mm"
   viewBox="0 0 63.188812 31.259848"
   version="1.1"
   id="svg1"
   xml:space="preserve"
   inkscape:version="1.3.2 (091e20e, 2023-11-25, custom)"
   sodipodi:docname="ds3231_classic.svg"
   xmlns:inkscape="http://www.inkscape.org/namespaces/inkscape"
   xmlns:sodipodi="http://sodipodi.sourceforge.net/DTD/sodipodi-0.dtd"
   xmlns:xlink="http://www.w3.org/1999/xlink"
   xmlns="http://www.w3.org/2000/svg"
   xmlns:svg="http://www.w3.org/2000/svg"><sodipodi:namedview
     id="namedview1"
     pagecolor="#ffffff"
     bordercolor="#000000"
     borderopacity="0.25"
     inkscape:showpageshadow="2"
     inkscape:pageopacity="0.0"
     inkscape:pagecheckerboard="0"
     inkscape:deskcolor="#d1d1d1"
     inkscape:document-units="mm"
     inkscape:zoom="1.0469406"
     inkscape:cx="177.6605"
     inkscape:cy="124.6489"
     inkscape:window-width="1920"
     inkscape:window-height="1009"
     inkscape:window-x="-8"
     inkscape:window-y="-8"
     inkscape:window-maximized="1"
     inkscape:current-layer="layer1" /><defs
     id="defs1"><inkscape:path-effect
       effect="tiling"
       id="path-effect41"
       is_visible="true"
       lpeversion="1"
       unit="px"
       seed="1;1"
       lpesatellites=""
       num_rows="2"
       num_cols="8"
       gapx="2.3"
       gapy="35"
       offset="0"
       offset_type="false"
       scale="0"
       rotate="0"
       mirrorrowsx="false"
       mirrorrowsy="false"
       mirrorcolsx="false"
       mirrorcolsy="false"
       mirrortrans="false"
       shrink_interp="false"
       split_items="false"
       link_styles="false"
       interpolate_scalex="false"
       interpolate_scaley="true"
       interpolate_rotatex="false"
       interpolate_rotatey="true"
       random_scale="false"
       random_rotate="false"
       random_gap_y="false"
       random_gap_x="false"
       transformorigin="" /><inkscape:path-effect
       effect="tiling"
       id="path-effect40"
       is_visible="true"
       lpeversion="1"
       unit="px"
       seed="1;1"
       lpesatellites=""
       num_rows="2"
       num_cols="4"
       gapx="3"
       gapy="18"
       offset="0"
       offset_type="false"
       scale="0"
       rotate="0"
       mirrorrowsx="false"
       mirrorrowsy="false"
       mirrorcolsx="false"
       mirrorcolsy="false"
       mirrortrans="false"
       shrink_interp="false"
       split_items="false"
       link_styles="false"
       interpolate_scalex="false"
       interpolate_scaley="true"
       interpolate_rotatex="false"
       interpolate_rotatey="true"
       random_scale="false"
       random_rotate="false"
       random_gap_y="false"
       random_gap_x="false"
       transformorigin="" /><inkscape:path-effect
       effect="tiling"
       id="path-effect36"
       is_visible="true"
       lpeversion="1"
       unit="px"
       seed="1;1"
       lpesatellites=""
       num_rows="4"
       num_cols="2"
       gapx="5"
       gapy="1"
       offset="0"
       offset_type="false"
       scale="0"
       rotate="0"
       mirrorrowsx="false"
       mirrorrowsy="false"
       mirrorcolsx="false"
       mirrorcolsy="false"
       mirrortrans="false"
       shrink_interp="false"
       split_items="false"
       link_styles="false"
       interpolate_scalex="false"
       interpolate_scaley="true"
       interpolate_rotatex="false"
       interpolate_rotatey="true"
       random_scale="false"
       random_rotate="false"
       random_gap_y="false"
       random_gap_x="false"
       transformorigin="" /><linearGradient
       id="linearGradient36"
       inkscape:collect="always"><stop
         style="stop-color:#c4beb7;stop-opacity:1;"
         offset="0"
         id="stop35" /><stop
         style="stop-color:#8c7e6d;stop-opacity:1;"
         offset="1"
         id="stop36" /></linearGradient><linearGradient
       id="linearGradient19"
       inkscape:collect="always"><stop
         style="stop-color:#cac4be;stop-opacity:1;"
         offset="0"
         id="stop19" /><stop
         style="stop-color:#8c7e6d;stop-opacity:1;"
         offset="1"
         id="stop20" /></linearGradient><inkscape:path-effect
       effect="tiling"
       id="path-effect12"
       is_visible="true"
       lpeversion="1"
       unit="px"
       seed="1;1"
       lpesatellites=""
       num_rows="5"
       num_cols="1"
       gapx="0"
       gapy="0"
       offset="0"
       offset_type="false"
       scale="0"
       rotate="0"
       mirrorrowsx="false"
       mirrorrowsy="false"
       mirrorcolsx="false"
       mirrorcolsy="false"
       mirrortrans="false"
       shrink_interp="false"
       split_items="false"
       link_styles="false"
       interpolate_scalex="false"
       interpolate_scaley="true"
       interpolate_rotatex="false"
       interpolate_rotatey="true"
       random_scale="false"
       random_rotate="false"
       random_gap_y="false"
       random_gap_x="false"
       transformorigin="" /><inkscape:path-effect
       effect="tiling"
       id="path-effect7"
       is_visible="true"
       lpeversion="1"
       unit="px"
       seed="1;1"
       lpesatellites=""
       num_rows="4"
       num_cols="1"
       gapx="0"
       gapy="8"
       offset="0"
       offset_type="false"
       scale="0"
       rotate="0"
       mirrorrowsx="false"
       mirrorrowsy="false"
       mirrorcolsx="false"
       mirrorcolsy="false"
       mirrortrans="false"
       shrink_interp="false"
       split_items="false"
       link_styles="false"
       interpolate_scalex="false"
       interpolate_scaley="true"
       interpolate_rotatex="false"
       interpolate_rotatey="true"
       random_scale="false"
       random_rotate="false"
       random_gap_y="false"
       random_gap_x="false"
       transformorigin="" /><inkscape:path-effect
       effect="tiling"
       id="path-effect6"
       is_visible="true"
       lpeversion="1"
       unit="px"
       seed="1;1"
       lpesatellites=""
       num_rows="6"
       num_cols="1"
       gapx="-13.372296"
       gapy="8"
       offset="0"
       offset_type="false"
       scale="0"
       rotate="0"
       mirrorrowsx="false"
       mirrorrowsy="false"
       mirrorcolsx="false"
       mirrorcolsy="false"
       mirrortrans="false"
       shrink_interp="false"
       split_items="false"
       link_styles="false"
       interpolate_scalex="false"
       interpolate_scaley="true"
       interpolate_rotatex="false"
       interpolate_rotatey="true"
       random_scale="false"
       random_rotate="false"
       random_gap_y="false"
       random_gap_x="false"
       transformorigin="" /><inkscape:path-effect
       effect="tiling"
       id="path-effect5"
       is_visible="true"
       lpeversion="1"
       unit="px"
       seed="1;1"
       lpesatellites=""
       num_rows="6"
       num_cols="1"
       gapx="0"
       gapy="3.6"
       offset="0"
       offset_type="false"
       scale="0"
       rotate="0"
       mirrorrowsx="false"
       mirrorrowsy="false"
       mirrorcolsx="false"
       mirrorcolsy="false"
       mirrortrans="false"
       shrink_interp="false"
       split_items="false"
       link_styles="false"
       interpolate_scalex="false"
       interpolate_scaley="true"
       interpolate_rotatex="false"
       interpolate_rotatey="true"
       random_scale="false"
       random_rotate="false"
       random_gap_y="false"
       random_gap_x="false"
       transformorigin="" /><inkscape:path-effect
       effect="tiling"
       id="path-effect2"
       is_visible="true"
       lpeversion="1"
       unit="px"
       seed="1;1"
       lpesatellites=""
       num_rows="4"
       num_cols="1"
       gapx="0"
       gapy="8.4"
       offset="0"
       offset_type="false"
       scale="0"
       rotate="0"
       mirrorrowsx="false"
       mirrorrowsy="false"
       mirrorcolsx="false"
       mirrorcolsy="false"
       mirrortrans="false"
       shrink_interp="false"
       split_items="false"
       link_styles="false"
       interpolate_scalex="false"
       interpolate_scaley="true"
       interpolate_rotatex="false"
       interpolate_rotatey="true"
       random_scale="false"
       random_rotate="false"
       random_gap_y="false"
       random_gap_x="false"
       transformorigin="" /><inkscape:path-effect
       effect="tiling"
       id="path-effect6-4"
       is_visible="true"
       lpeversion="1"
       unit="px"
       seed="1;1"
       lpesatellites=""
       num_rows="6"
       num_cols="1"
       gapx="-13.372296"
       gapy="8"
       offset="0"
       offset_type="false"
       scale="0"
       rotate="0"
       mirrorrowsx="false"
       mirrorrowsy="false"
       mirrorcolsx="false"
       mirrorcolsy="false"
       mirrortrans="false"
       shrink_interp="false"
       split_items="false"
       link_styles="false"
       interpolate_scalex="false"
       interpolate_scaley="true"
       interpolate_rotatex="false"
       interpolate_rotatey="true"
       random_scale="false"
       random_rotate="false"
       random_gap_y="false"
       random_gap_x="false"
       transformorigin="" /><inkscape:path-effect
       effect="tiling"
       id="path-effect5-1"
       is_visible="true"
       lpeversion="1"
       unit="px"
       seed="1;1"
       lpesatellites=""
       num_rows="6"
       num_cols="1"
       gapx="0"
       gapy="3.6"
       offset="0"
       offset_type="false"
       scale="0"
       rotate="0"
       mirrorrowsx="false"
       mirrorrowsy="false"
       mirrorcolsx="false"
       mirrorcolsy="false"
       mirrortrans="false"
       shrink_interp="false"
       split_items="false"
       link_styles="false"
       interpolate_scalex="false"
       interpolate_scaley="true"
       interpolate_rotatex="false"
       interpolate_rotatey="true"
       random_scale="false"
       random_rotate="false"
       random_gap_y="false"
       random_gap_x="false"
       transformorigin="" /><inkscape:path-effect
       effect="tiling"
       id="path-effect6-4-3"
       is_visible="true"
       lpeversion="1"
       unit="px"
       seed="1;1"
       lpesatellites=""
       num_rows="6"
       num_cols="1"
       gapx="-13.372296"
       gapy="8"
       offset="0"
       offset_type="false"
       scale="0"
       rotate="0"
       mirrorrowsx="false"
       mirrorrowsy="false"
       mirrorcolsx="false"
       mirrorcolsy="false"
       mirrortrans="false"
       shrink_interp="false"
       split_items="false"
       link_styles="false"
       interpolate_scalex="false"
       interpolate_scaley="true"
       interpolate_rotatex="false"
       interpolate_rotatey="true"
       random_scale="false"
       random_rotate="false"
       random_gap_y="false"
       random_gap_x="false"
       transformorigin="" /><radialGradient
       inkscape:collect="always"
       xlink:href="#linearGradient19"
       id="radialGradient30"
       cx="15.161865"
       cy="100.71401"
       fx="15.161865"
       fy="100.71401"
       r="1.326534"
       gradientTransform="matrix(1,0,0,0.96318752,0,3.707532)"
       gradientUnits="userSpaceOnUse" /><radialGradient
       inkscape:collect="always"
       xlink:href="#linearGradient19"
       id="radialGradient31"
       cx="15.161865"
       cy="104.16548"
       fx="15.161865"
       fy="104.16548"
       r="1.326534"
       gradientTransform="matrix(1,0,0,0.96318677,0,3.8346677)"
       gradientUnits="userSpaceOnUse" /><radialGradient
       inkscape:collect="always"
       xlink:href="#linearGradient19"
       id="radialGradient32"
       cx="15.161865"
       cy="107.61643"
       fx="15.161865"
       fy="107.61643"
       r="1.326534"
       gradientTransform="matrix(1,0,0,0.96318677,0,3.9617083)"
       gradientUnits="userSpaceOnUse" /><radialGradient
       inkscape:collect="always"
       xlink:href="#linearGradient19"
       id="radialGradient33"
       cx="15.161865"
       cy="111.0679"
       fx="15.161865"
       fy="111.0679"
       r="1.326534"
       gradientTransform="matrix(1,0,0,0.96318677,0,4.088768)"
       gradientUnits="userSpaceOnUse" /><radialGradient
       inkscape:collect="always"
       xlink:href="#linearGradient19"
       id="radialGradient34"
       cx="15.161865"
       cy="114.51937"
       fx="15.161865"
       fy="114.51937"
       r="1.326534"
       gradientTransform="matrix(1,0,0,0.96318677,0,4.2158278)"
       gradientUnits="userSpaceOnUse" /><radialGradient
       inkscape:collect="always"
       xlink:href="#linearGradient36"
       id="radialGradient35"
       cx="15.161865"
       cy="117.97084"
       fx="15.161865"
       fy="117.97084"
       r="1.326534"
       gradientTransform="matrix(1,0,0,0.96318677,0,4.3428876)"
       gradientUnits="userSpaceOnUse" /><inkscape:path-effect
       effect="tiling"
       id="path-effect36-6"
       is_visible="true"
       lpeversion="1"
       unit="px"
       seed="1;1"
       lpesatellites=""
       num_rows="4"
       num_cols="2"
       gapx="5"
       gapy="1"
       offset="0"
       offset_type="false"
       scale="0"
       rotate="0"
       mirrorrowsx="false"
       mirrorrowsy="false"
       mirrorcolsx="false"
       mirrorcolsy="false"
       mirrortrans="false"
       shrink_interp="false"
       split_items="false"
       link_styles="false"
       interpolate_scalex="false"
       interpolate_scaley="true"
       interpolate_rotatex="false"
       interpolate_rotatey="true"
       random_scale="false"
       random_rotate="false"
       random_gap_y="false"
       random_gap_x="false"
       transformorigin="" /></defs><g
     inkscape:label="Calque 1"
     inkscape:groupmode="layer"
     id="layer1"
     transform="translate(-4.9253784,-94.071239)"><path
       style="fill:#cac4be;fill-opacity:1;stroke:none;stroke-width:0.514001;stroke-dasharray:none;stroke-opacity:1"
       id="rect5-9"
       width="8.0870552"
       height="1.3267825"
       x="4.9912291"
       y="99.824585"
       inkscape:path-effect="#path-effect6-4"
       sodipodi:type="rect"
       d="m 5.6230302,99.824585 h 6.8234528 c 0.350018,0 0.631801,0.281785 0.631801,0.631805 v 0.0632 c 0,0.35001 -0.281783,0.6318 -0.631801,0.6318 H 5.6230302 c -0.3500178,0 -0.6318011,-0.28179 -0.6318011,-0.6318 v -0.0632 c 0,-0.35002 0.2817833,-0.631805 0.6318011,-0.631805 z m 0,3.443445 h 6.8234528 c 0.350018,0 0.631801,0.28179 0.631801,0.63181 v 0.0632 c 0,0.35001 -0.281783,0.6318 -0.631801,0.6318 H 5.6230302 c -0.3500178,0 -0.6318011,-0.28179 -0.6318011,-0.6318 v -0.0632 c 0,-0.35002 0.2817833,-0.63181 0.6318011,-0.63181 z m 0,3.44345 h 6.8234528 c 0.350018,0 0.631801,0.28179 0.631801,0.6318 v 0.0632 c 0,0.35002 -0.281783,0.63181 -0.631801,0.63181 H 5.6230302 c -0.3500178,0 -0.6318011,-0.28179 -0.6318011,-0.63181 v -0.0632 c 0,-0.35001 0.2817833,-0.6318 0.6318011,-0.6318 z m 0,3.44345 h 6.8234528 c 0.350018,0 0.631801,0.28179 0.631801,0.6318 v 0.0632 c 0,0.35002 -0.281783,0.6318 -0.631801,0.6318 H 5.6230302 c -0.3500178,0 -0.6318011,-0.28178 -0.6318011,-0.6318 v -0.0632 c 0,-0.35001 0.2817833,-0.6318 0.6318011,-0.6318 z m 0,3.44345 h 6.8234528 c 0.350018,0 0.631801,0.28178 0.631801,0.6318 v 0.0632 c 0,0.35002 -0.281783,0.6318 -0.631801,0.6318 H 5.6230302 c -0.3500178,0 -0.6318011,-0.28178 -0.6318011,-0.6318 v -0.0632 c 0,-0.35002 0.2817833,-0.6318 0.6318011,-0.6318 z m 0,3.44345 h 6.8234528 c 0.350018,0 0.631801,0.28178 0.631801,0.6318 v 0.0632 c 0,0.35002 -0.281783,0.6318 -0.631801,0.6318 H 5.6230302 c -0.3500178,0 -0.6318011,-0.28178 -0.6318011,-0.6318 v -0.0632 c 0,-0.35002 0.2817833,-0.6318 0.6318011,-0.6318 z"
       ry="0.63180119"
       transform="matrix(1.2264951,0,0,1,-1.1963396,0.29038794)" /><path
       id="rect1"
       style="fill:#245573;fill-opacity:1;stroke:none;stroke-width:0.514;stroke-dasharray:none;stroke-opacity:1"
       d="m 15.799036,94.669674 c -1.400067,0 -2.527495,1.126913 -2.527495,2.526977 v 25.408789 c 0,1.40004 1.127428,2.52749 2.527495,2.52749 h 49.788175 c 1.400067,0 2.526978,-1.12745 2.526978,-2.52749 V 97.196651 c 0,-1.400064 -1.126911,-2.526977 -2.526978,-2.526977 z m 9.630936,1.024227 a 1.8316787,1.7870035 0 0 1 1.83193,1.786971 1.8316787,1.7870035 0 0 1 -1.83193,1.786971 1.8316787,1.7870035 0 0 1 -1.831412,-1.786971 1.8316787,1.7870035 0 0 1 1.831412,-1.786971 z m 40.311235,7.658449 c 0.394171,0 0.713651,0.31204 0.713651,0.6966 0,0.38456 -0.31948,0.69608 -0.713651,0.69608 -0.394172,0 -0.713652,-0.31152 -0.713652,-0.69608 0,-0.38456 0.31948,-0.6966 0.713652,-0.6966 z m 0,3.61528 c 0.394171,0 0.713651,0.31204 0.713651,0.6966 0,0.38455 -0.31948,0.69608 -0.713651,0.69608 -0.394172,0 -0.713652,-0.31153 -0.713652,-0.69608 0,-0.38456 0.31948,-0.6966 0.713652,-0.6966 z m 0,3.61528 c 0.394171,0 0.713651,0.31154 0.713651,0.69609 0,0.38456 -0.31948,0.69659 -0.713651,0.69659 -0.394172,0 -0.713652,-0.31203 -0.713652,-0.69659 0,-0.38455 0.31948,-0.69609 0.713652,-0.69609 z m 0,3.61477 c 0.394171,0 0.713651,0.31204 0.713651,0.6966 0,0.38456 -0.31948,0.69608 -0.713651,0.69608 -0.394172,0 -0.713652,-0.31152 -0.713652,-0.69608 0,-0.38456 0.31948,-0.6966 0.713652,-0.6966 z m -40.311235,6.23114 a 1.8316787,1.7870035 0 0 1 1.83193,1.78698 1.8316787,1.7870035 0 0 1 -1.83193,1.78748 1.8316787,1.7870035 0 0 1 -1.831412,-1.78748 1.8316787,1.7870035 0 0 1 1.831412,-1.78698 z m 37.012211,0 a 1.8316787,1.7870035 0 0 1 1.831413,1.78698 1.8316787,1.7870035 0 0 1 -1.831413,1.78748 1.8316787,1.7870035 0 0 1 -1.831929,-1.78748 1.8316787,1.7870035 0 0 1 1.831929,-1.78698 z" /><path
       style="opacity:1;fill:#2c292a;fill-opacity:1;stroke:none;stroke-width:0.514001;stroke-dasharray:none;stroke-opacity:1"
       d="m 27.698557,104.45036 -0.223376,0.7148 h -3.752708 v 10.23059 h 3.752708 c 4.924113,13.63496 30.184339,14.39639 32.076713,-5.02594 1.762029,-17.414437 -25.142146,-23.116671 -31.853337,-5.91945 z"
       id="path4"
       sodipodi:nodetypes="ccccccc" /><path
       style="opacity:1;fill:none;fill-opacity:1;stroke:#cac4be;stroke-width:0.814;stroke-dasharray:none;stroke-opacity:1"
       d="m 30.126075,106.07942 -1.782399,1.17808 v 5.74939 l 1.782399,1.21893"
       id="path8"
       sodipodi:nodetypes="cccc" /><rect
       style="opacity:1;fill:#1f1b1d;fill-opacity:1;stroke:none;stroke-width:0.814001;stroke-dasharray:none;stroke-opacity:1"
       id="rect11"
       width="5.6737366"
       height="9.2924185"
       x="24.526623"
       y="105.61192" /><ellipse
       style="opacity:1;fill:#1f1b1d;fill-opacity:1;stroke:none;stroke-width:1.02749;stroke-dasharray:none;stroke-opacity:1"
       id="path12"
       cx="43.558212"
       cy="109.72202"
       rx="15.234207"
       ry="14.296029" /><rect
       style="fill:#b3b3b3;fill-opacity:1;stroke:none;stroke-width:0.514001;stroke-dasharray:none;stroke-opacity:1"
       id="rect6"
       width="2.8115153"
       height="2.8746953"
       x="13.771912"
       y="116.60912" /><path
       d="m 15.161865,116.69314 c -0.732761,0 -1.326534,0.57179 -1.326534,1.27744 0,0.70565 0.593773,1.27796 1.326534,1.27796 0.732762,0 1.326534,-0.57231 1.326534,-1.27796 0,-0.70565 -0.593772,-1.27744 -1.326534,-1.27744 z"
       style="fill:url(#radialGradient35);stroke-width:0.514001"
       id="path25" /><path
       d="m 15.161865,113.24167 c -0.732761,0 -1.326534,0.57178 -1.326534,1.27744 0,0.70565 0.593773,1.27796 1.326534,1.27796 0.732762,0 1.326534,-0.57231 1.326534,-1.27796 0,-0.70566 -0.593772,-1.27744 -1.326534,-1.27744 z"
       style="fill:url(#radialGradient34);stroke-width:0.514001"
       id="path24" /><path
       d="m 15.161865,109.7902 c -0.732761,0 -1.326534,0.57231 -1.326534,1.27796 0,0.70565 0.593773,1.27744 1.326534,1.27744 0.732762,0 1.326534,-0.57179 1.326534,-1.27744 0,-0.70565 -0.593772,-1.27796 -1.326534,-1.27796 z"
       style="fill:url(#radialGradient33);stroke-width:0.514001"
       id="path23" /><path
       d="m 15.161865,106.33873 c -0.732761,0 -1.326534,0.5723 -1.326534,1.27796 0,0.70565 0.593773,1.27744 1.326534,1.27744 0.732762,0 1.326534,-0.57179 1.326534,-1.27744 0,-0.70566 -0.593772,-1.27796 -1.326534,-1.27796 z"
       style="fill:url(#radialGradient32);stroke-width:0.514001"
       id="path22" /><path
       d="m 15.161865,102.88778 c -0.732761,0 -1.326534,0.57179 -1.326534,1.27744 0,0.70565 0.593773,1.27796 1.326534,1.27796 0.732762,0 1.326534,-0.57231 1.326534,-1.27796 0,-0.70565 -0.593772,-1.27744 -1.326534,-1.27744 z"
       style="fill:url(#radialGradient31);stroke-width:0.514001"
       id="path21" /><path
       d="m 15.161865,99.436308 c -0.732761,0 -1.326534,0.571782 -1.326534,1.277442 0,0.70565 0.593773,1.27796 1.326534,1.27796 0.732762,0 1.326534,-0.57231 1.326534,-1.27796 0,-0.70566 -0.593772,-1.277442 -1.326534,-1.277442 z"
       style="fill:url(#radialGradient30);stroke-width:0.514001"
       id="path20" /><ellipse
       style="fill:none;fill-opacity:1;stroke:#b3b3b3;stroke-width:0.463608;stroke-dasharray:none;stroke-opacity:1"
       id="path6"
       ry="1.8697221"
       rx="1.8171555"
       cy="97.424004"
       cx="25.285212" /><ellipse
       style="fill:none;fill-opacity:1;stroke:#b3b3b3;stroke-width:0.463608;stroke-dasharray:none;stroke-opacity:1"
       id="path6-5"
       ry="1.8697221"
       rx="1.8171555"
       cy="122.43119"
       cx="25.328825" /><ellipse
       style="fill:none;fill-opacity:1;stroke:#b3b3b3;stroke-width:0.463608;stroke-dasharray:none;stroke-opacity:1"
       id="path6-5-8"
       ry="1.8697221"
       rx="1.8171555"
       cy="122.35944"
       cx="62.388348" /><path
       style="opacity:1;fill:none;fill-opacity:1;stroke:#cac4be;stroke-width:0.281804;stroke-dasharray:none;stroke-opacity:1"
       id="path7"
       inkscape:path-effect="#path-effect7"
       sodipodi:type="arc"
       sodipodi:cx="65.726509"
       sodipodi:cy="104.038"
       sodipodi:rx="0.84353715"
       sodipodi:ry="0.81374705"
       d="m 66.570046,104.038 c 0,0.44942 -0.377664,0.81375 -0.843537,0.81375 -0.465873,0 -0.843537,-0.36433 -0.843537,-0.81375 0,-0.44942 0.377664,-0.81375 0.843537,-0.81375 0.465873,0 0.843537,0.36433 0.843537,0.81375 z m 0,3.74416 c 0,0.44942 -0.377664,0.81375 -0.843537,0.81375 -0.465873,0 -0.843537,-0.36433 -0.843537,-0.81375 0,-0.44942 0.377664,-0.81374 0.843537,-0.81374 0.465873,0 0.843537,0.36432 0.843537,0.81374 z m 0,3.74416 c 0,0.44942 -0.377664,0.81375 -0.843537,0.81375 -0.465873,0 -0.843537,-0.36433 -0.843537,-0.81375 0,-0.44942 0.377664,-0.81374 0.843537,-0.81374 0.465873,0 0.843537,0.36432 0.843537,0.81374 z m 0,3.74416 c 0,0.44942 -0.377664,0.81375 -0.843537,0.81375 -0.465873,0 -0.843537,-0.36433 -0.843537,-0.81375 0,-0.44942 0.377664,-0.81374 0.843537,-0.81374 0.465873,0 0.843537,0.36432 0.843537,0.81374 z"
       transform="matrix(1.0021378,0,0,0.97248874,-0.14050687,2.8380262)" /><path
       id="rect7"
       style="opacity:1;fill:#b3b3b3;fill-opacity:1;stroke:none;stroke-width:0.306208;stroke-dasharray:none;stroke-opacity:1"
       d="m 64.666971,113.83233 v 2.18906 h 2.167192 v -2.18906 z m 1.08334,0.41905 a 0.71134187,0.67531472 0 0 1 0.711486,0.67523 0.71134187,0.67531472 0 0 1 -0.711486,0.67524 0.71134187,0.67531472 0 0 1 -0.710974,-0.67524 0.71134187,0.67531472 0 0 1 0.710974,-0.67523 z" /><rect
       style="opacity:1;fill:#cac4be;fill-opacity:1;stroke:none;stroke-width:0.314;stroke-dasharray:none;stroke-opacity:1"
       id="rect8"
       width="0.75816143"
       height="8.5293159"
       x="24.766605"
       y="105.88988" /><rect
       style="opacity:1;fill:#cac4be;fill-opacity:1;stroke:none;stroke-width:0.889627;stroke-dasharray:none;stroke-opacity:1"
       id="rect9"
       width="2.7167449"
       height="1.4531428"
       x="25.335226"
       y="107.65892" /><rect
       style="fill:#cac4be;fill-opacity:1;stroke:none;stroke-width:0.889627;stroke-dasharray:none;stroke-opacity:1"
       id="rect9-2"
       width="2.7167449"
       height="1.4531428"
       x="25.4"
       y="111.19192" /><path
       style="fill:#1f1c1d;fill-opacity:1;stroke:none;stroke-width:0.814001;stroke-dasharray:none;stroke-opacity:1"
       d="m 35.654852,95.686269 c -3.693479,1.51888 -7.245759,5.944321 -7.848348,8.944861 l 2.056912,0.50319 c 2.030309,-4.52874 4.188836,-6.155113 6.822137,-7.70069 z"
       id="path10-9"
       sodipodi:nodetypes="ccccc" /><path
       style="fill:#1f1c1d;fill-opacity:1;stroke:none;stroke-width:0.814001;stroke-dasharray:none;stroke-opacity:1"
       d="m 27.801121,116.26024 c 1.51888,3.69348 5.497569,6.88836 9.056547,7.96004 l 0.525528,-2.25795 c -2.808749,-0.57837 -5.820047,-3.96546 -7.164579,-6.91149 z"
       id="path10-9-3"
       sodipodi:nodetypes="ccccc" /><path
       style="opacity:1;fill:#1f1c1d;fill-opacity:1;stroke:none;stroke-width:0.814001;stroke-dasharray:none;stroke-opacity:1"
       d="m 51.428615,98.213493 0.979292,-1.737452 c 1.338159,0.977335 2.78944,1.820979 3.822398,3.159006 l -1.421553,1.642683 c -0.70848,-1.03814 -1.92962,-2.055777 -3.380137,-3.064237 z"
       id="path11"
       sodipodi:nodetypes="ccccc" /><path
       style="fill:#1f1c1d;fill-opacity:1;stroke:none;stroke-width:0.814001;stroke-dasharray:none;stroke-opacity:1"
       d="m 53.887166,119.22284 1.273568,1.3455 c -1.251894,1.15952 -2.430325,2.24228 -4.007696,2.84992 l -1.056396,-1.54122 c 1.19728,-0.38236 2.409688,-1.55226 3.790524,-2.6542 z"
       id="path11-0"
       sodipodi:nodetypes="ccccc" /><ellipse
       style="opacity:1;fill:#9c9c9c;fill-opacity:1;stroke:none;stroke-width:0.522025;stroke-dasharray:none;stroke-opacity:1"
       id="path3"
       cx="43.447601"
       cy="109.70116"
       rx="14.381368"
       ry="13.845264" /></g></svg>
