<?xml version="1.0" encoding="UTF-8" standalone="no"?>
<!-- Created with Inkscape (http://www.inkscape.org/) -->

<svg
   width="36.612801mm"
   height="32mm"
   viewBox="0 0 36.612801 32"
   version="1.1"
   id="svg5"
   xml:space="preserve"
   inkscape:version="1.3.2 (091e20e, 2023-11-25, custom)"
   sodipodi:docname="buy.svg"
   xmlns:inkscape="http://www.inkscape.org/namespaces/inkscape"
   xmlns:sodipodi="http://sodipodi.sourceforge.net/DTD/sodipodi-0.dtd"
   xmlns="http://www.w3.org/2000/svg"
   xmlns:svg="http://www.w3.org/2000/svg"><sodipodi:namedview
     id="namedview7"
     pagecolor="#ffffff"
     bordercolor="#000000"
     borderopacity="0.25"
     inkscape:showpageshadow="2"
     inkscape:pageopacity="0.0"
     inkscape:pagecheckerboard="0"
     inkscape:deskcolor="#d1d1d1"
     inkscape:document-units="mm"
     showgrid="false"
     inkscape:zoom="0.52221046"
     inkscape:cx="-120.64102"
     inkscape:cy="119.68355"
     inkscape:window-width="1680"
     inkscape:window-height="979"
     inkscape:window-x="1912"
     inkscape:window-y="-7"
     inkscape:window-maximized="1"
     inkscape:current-layer="layer1" /><defs
     id="defs2">
	
	
</defs><g
     inkscape:label="Calque 1"
     inkscape:groupmode="layer"
     id="layer1"
     transform="translate(-35.630506,-96.313593)"><g
       class="st1"
       id="g2481"
       transform="matrix(0.76122187,0,0,0.76190477,22.689734,87.93264)">
	<path
   class="st2"
   d="m 47,49 c 0,2.2 -1.8,4 -4,4 H 21 c -2.2,0 -4,-1.8 -4,-4 V 17 c 0,-2.2 1.8,-4 4,-4 h 22 c 2.2,0 4,1.8 4,4 z"
   id="path2479" />
</g><path
       class="st3"
       d="m 38.675394,125.64693 c -1.065711,0 -1.903055,-0.8381 -1.903055,-1.90477 V 99.361212 c 0,-1.066665 0.837344,-1.904762 1.903055,-1.904762 h 16.74688 c 1.065711,0 1.903055,0.838097 1.903055,1.904762 v 24.380948 c 0,1.06667 -0.837344,1.90477 -1.903055,1.90477 z"
       id="path2483"
       style="stroke-width:0.761565" /><path
       class="st5"
       d="M 56.944718,124.88502 V 97.45645 H 41.491914 l 11.646694,28.19047 c 1.217955,-0.30476 2.512032,-0.53333 3.80611,-0.7619 z"
       id="path2489"
       style="stroke-width:0.761565" /><g
       id="g2493"
       transform="matrix(0.76122187,0,0,0.76190477,22.689734,87.93264)"
       style="fill:#151515;fill-opacity:1">
	<polygon
   class="st4"
   points="45,50 20,50 19,43 45,43 "
   id="polygon2491"
   style="fill:#151515;fill-opacity:1" />
</g><rect
       style="opacity:1;fill:none;stroke:#000000;stroke-width:0.328561;stroke-linecap:round;stroke-dasharray:none"
       id="rect1009"
       width="3.412091"
       height="3.0618603"
       x="39.856968"
       y="101.03522"
       ry="0" /><rect
       style="fill:none;stroke:#000000;stroke-width:0.328561;stroke-linecap:round;stroke-dasharray:none"
       id="rect1009-4"
       width="3.412091"
       height="3.0618603"
       x="39.856968"
       y="105.89298"
       ry="0" /><rect
       style="fill:none;stroke:#000000;stroke-width:0.328561;stroke-linecap:round;stroke-dasharray:none"
       id="rect1009-6"
       width="3.412091"
       height="3.0618603"
       x="39.856968"
       y="110.78019"
       ry="0" /><rect
       style="fill:none;stroke:#000000;stroke-width:0.328561;stroke-linecap:round;stroke-dasharray:none"
       id="rect1009-5"
       width="3.412091"
       height="3.0618603"
       x="39.856968"
       y="115.69683"
       ry="0" /><path
       style="opacity:1;fill:none;stroke:#000000;stroke-width:0.328561;stroke-linecap:round;stroke-dasharray:none"
       d="m 44.72508,102.58088 9.942126,-0.0294"
       id="path1113" /><path
       style="opacity:1;fill:none;stroke:#000000;stroke-width:0.328561;stroke-linecap:round;stroke-dasharray:none"
       d="m 44.78391,107.43864 9.883296,-0.0295"
       id="path1115" /><path
       style="opacity:1;fill:none;stroke:#000000;stroke-width:0.328561;stroke-linecap:round;stroke-dasharray:none"
       d="m 44.754495,112.29638 9.971542,0.0294"
       id="path1117" /><path
       style="opacity:1;fill:none;stroke:#000000;stroke-width:0.328561;stroke-linecap:round;stroke-dasharray:none"
       d="m 44.754495,117.21302 9.912711,0.0294"
       id="path1119" /><path
       style="opacity:1;fill:none;fill-opacity:1;stroke:#adff2f;stroke-width:0.328561;stroke-linecap:round;stroke-dasharray:none"
       d="m 39.224555,101.16135 2.235507,2.00199 3.647408,-3.650678"
       id="path1175" /><g
       fill="none"
       fill-rule="evenodd"
       id="g1710"
       transform="matrix(0.04855247,0,0,0.04859603,59.740934,98.05388)"><path
         d="m 221.503,210.324 c -105.235,50.083 -170.545,8.18 -212.352,-17.271 -2.587,-1.604 -6.984,0.375 -3.169,4.757 13.928,16.888 59.573,57.593 119.153,57.593 59.621,0 95.09,-32.532 99.527,-38.207 4.407,-5.627 1.294,-8.731 -3.16,-6.872 z m 29.555,-16.322 c -2.826,-3.68 -17.184,-4.366 -26.22,-3.256 -9.05,1.078 -22.634,6.609 -21.453,9.93 0.606,1.244 1.843,0.686 8.06,0.127 6.234,-0.622 23.698,-2.826 27.337,1.931 3.656,4.79 -5.57,27.608 -7.255,31.288 -1.628,3.68 0.622,4.629 3.68,2.178 3.016,-2.45 8.476,-8.795 12.14,-17.774 3.639,-9.028 5.858,-21.622 3.71,-24.424 z"
         fill="#ff9900"
         fill-rule="nonzero"
         id="path1702" /><path
         d="m 150.744,108.13 c 0,13.141 0.332,24.1 -6.31,35.77 -5.361,9.489 -13.853,15.324 -23.341,15.324 -12.952,0 -20.495,-9.868 -20.495,-24.432 0,-28.75 25.76,-33.968 50.146,-33.968 z m 34.015,82.216 c -2.23,1.992 -5.456,2.135 -7.97,0.806 -11.196,-9.298 -13.189,-13.615 -19.356,-22.487 -18.502,18.882 -31.596,24.527 -55.601,24.527 -28.37,0 -50.478,-17.506 -50.478,-52.565 0,-27.373 14.85,-46.018 35.96,-55.126 18.313,-8.066 43.884,-9.489 63.43,-11.718 v -4.365 c 0,-8.018 0.616,-17.506 -4.08,-24.432 -4.128,-6.215 -12.003,-8.777 -18.93,-8.777 -12.856,0 -24.337,6.594 -27.136,20.257 -0.57,3.037 -2.799,6.026 -5.835,6.168 L 62.028,59.124 C 59.277,58.506 56.241,56.277 57,52.054 64.543,12.394 100.36,0.438 132.43,0.438 c 16.415,0 37.858,4.365 50.81,16.795 16.415,15.323 14.849,35.77 14.849,58.02 v 52.565 c 0,15.798 6.547,22.724 12.714,31.264 2.182,3.036 2.657,6.69 -0.095,8.966 -6.879,5.74 -19.119,16.415 -25.855,22.393 l -0.095,-0.095"
         fill="#000000"
         id="path1704" /><path
         d="m 221.503,210.324 c -105.235,50.083 -170.545,8.18 -212.352,-17.271 -2.587,-1.604 -6.984,0.375 -3.169,4.757 13.928,16.888 59.573,57.593 119.153,57.593 59.621,0 95.09,-32.532 99.527,-38.207 4.407,-5.627 1.294,-8.731 -3.16,-6.872 z m 29.555,-16.322 c -2.826,-3.68 -17.184,-4.366 -26.22,-3.256 -9.05,1.078 -22.634,6.609 -21.453,9.93 0.606,1.244 1.843,0.686 8.06,0.127 6.234,-0.622 23.698,-2.826 27.337,1.931 3.656,4.79 -5.57,27.608 -7.255,31.288 -1.628,3.68 0.622,4.629 3.68,2.178 3.016,-2.45 8.476,-8.795 12.14,-17.774 3.639,-9.028 5.858,-21.622 3.71,-24.424 z"
         fill="#ff9900"
         fill-rule="nonzero"
         id="path1706" /><path
         d="m 150.744,108.13 c 0,13.141 0.332,24.1 -6.31,35.77 -5.361,9.489 -13.853,15.324 -23.341,15.324 -12.952,0 -20.495,-9.868 -20.495,-24.432 0,-28.75 25.76,-33.968 50.146,-33.968 z m 34.015,82.216 c -2.23,1.992 -5.456,2.135 -7.97,0.806 -11.196,-9.298 -13.189,-13.615 -19.356,-22.487 -18.502,18.882 -31.596,24.527 -55.601,24.527 -28.37,0 -50.478,-17.506 -50.478,-52.565 0,-27.373 14.85,-46.018 35.96,-55.126 18.313,-8.066 43.884,-9.489 63.43,-11.718 v -4.365 c 0,-8.018 0.616,-17.506 -4.08,-24.432 -4.128,-6.215 -12.003,-8.777 -18.93,-8.777 -12.856,0 -24.337,6.594 -27.136,20.257 -0.57,3.037 -2.799,6.026 -5.835,6.168 L 62.028,59.124 C 59.277,58.506 56.241,56.277 57,52.054 64.543,12.394 100.36,0.438 132.43,0.438 c 16.415,0 37.858,4.365 50.81,16.795 16.415,15.323 14.849,35.77 14.849,58.02 v 52.565 c 0,15.798 6.547,22.724 12.714,31.264 2.182,3.036 2.657,6.69 -0.095,8.966 -6.879,5.74 -19.119,16.415 -25.855,22.393 l -0.095,-0.095"
         fill="#000000"
         id="path1708" /></g><g
       id="g1741"
       transform="matrix(0.08689267,0,0,0.08697062,8.5589724,100.02699)"><g
         id="g2110"
         transform="matrix(2.1636494,0,0,2.1636494,594.43443,138.1146)"><path
           d="M 5,0 A 5,5 0 0 0 0,5 v 54 a 5,5 0 0 0 5,5 h 54 a 5,5 0 0 0 5,-5 V 5 A 5,5 0 0 0 59,0 Z"
           fill="#e62e04"
           id="path1723" /><path
           d="m 17.6,21.452 c 0.245,1 0.107,2.08 0.348,3.097 0.84,-0.615 1.4,-1.63 1.285,-2.687 -0.017,-1.892 -2.145,-3.375 -3.926,-2.738 -1.12,0.32 -1.948,1.325 -2.136,2.46 -0.224,1.3 0.557,2.63 1.718,3.224 -0.115,-1.12 -0.384,-2.3 -0.083,-3.396 0.46,-1.194 2.37,-1.17 2.795,0.04 z m 33.138,1.356 c 0.408,-1.468 -0.48,-3.17 -1.936,-3.64 -1.4,-0.55 -3.133,0.15 -3.75,1.514 -0.688,1.263 -0.272,3.06 0.986,3.8 0.248,-1.014 0.065,-2.1 0.36,-3.085 0.47,-1.177 2.355,-1.143 2.784,0.05 0.273,1.066 0.026,2.186 -0.077,3.262 0.854,-0.264 1.387,-1.08 1.632,-1.898 z"
           fill="#b32100"
           id="path1725" /><path
           d="m 46.4,21.396 c -0.296,0.995 -0.113,2.072 -0.36,3.085 -0.732,4.4 -3.678,8.332 -7.667,10.303 A 14.2,14.2 0 0 1 25.575,34.768 C 21.623,32.802 18.7,28.903 17.949,24.55 c -0.24,-1.018 -0.104,-2.087 -0.348,-3.097 -0.424,-1.2 -2.334,-1.235 -2.794,-0.04 -0.3,1.106 -0.03,2.277 0.083,3.396 0.84,5.44 4.48,10.325 9.412,12.75 a 17.34,17.34 0 0 0 14.635,0.346 c 5.333,-2.303 9.32,-7.446 10.173,-13.2 0.103,-1.076 0.35,-2.197 0.076,-3.262 -0.43,-1.193 -2.314,-1.226 -2.785,-0.05 z"
           fill="#ffffff"
           id="path1727" /><path
           d="M 5,0 A 5,5 0 0 0 0,5 v 9.5 a 5,5 0 0 1 5,-5 h 54 a 5,5 0 0 1 5,5 V 5 A 5,5 0 0 0 59,0 Z"
           fill="#ff9900"
           id="path1729" /></g></g><path
       class="st4"
       d="m 55.422274,98.599307 c 0.456733,0 0.761222,0.304765 0.761222,0.761905 v 24.380948 c 0,0.45715 -0.304489,0.76191 -0.761222,0.76191 h -16.74688 c -0.456733,0 -0.761222,-0.30476 -0.761222,-0.76191 V 99.361212 c 0,-0.45714 0.304489,-0.761905 0.761222,-0.761905 h 16.74688 m 0,-2.285714 h -16.74688 c -1.674688,0 -3.044888,1.371428 -3.044888,3.047619 v 24.380948 c 0,1.6762 1.3702,3.04763 3.044888,3.04763 h 16.74688 c 1.674689,0 3.044888,-1.37143 3.044888,-3.04763 V 99.361212 c 0,-1.676191 -1.370199,-3.047619 -3.044888,-3.047619 z"
       id="path2485"
       style="fill:#151515;fill-opacity:1;stroke-width:0.761565" /><g
       id="g2497"
       transform="matrix(0.76122187,0,0,0.76190477,22.689734,87.93264)"
       style="fill:#292929;fill-opacity:1">
	<circle
   class="st6"
   cx="32"
   cy="47"
   r="2"
   id="circle2495"
   style="fill:#292929;fill-opacity:1" />
</g></g><style
     type="text/css"
     id="style2475">
	.st0{fill:#E0995E;}
	.st1{opacity:0.2;}
	.st2{fill:#231F20;}
	.st3{fill:#4F5D73;}
	.st4{fill:#FFFFFF;}
	.st5{opacity:0.2;fill:#FFFFFF;}
	.st6{fill:#E0E0D1;}
</style></svg>
