<?xml version="1.0" encoding="UTF-8" standalone="no"?>
<!-- Created with Inkscape (http://www.inkscape.org/) -->

<svg
   width="31.12746mm"
   height="31.999956mm"
   viewBox="0 0 31.127461 31.999956"
   version="1.1"
   id="svg5"
   xml:space="preserve"
   inkscape:version="1.3.2 (091e20e, 2023-11-25, custom)"
   sodipodi:docname="printing.svg"
   xmlns:inkscape="http://www.inkscape.org/namespaces/inkscape"
   xmlns:sodipodi="http://sodipodi.sourceforge.net/DTD/sodipodi-0.dtd"
   xmlns="http://www.w3.org/2000/svg"
   xmlns:svg="http://www.w3.org/2000/svg"><sodipodi:namedview
     id="namedview7"
     pagecolor="#ffffff"
     bordercolor="#000000"
     borderopacity="0.25"
     inkscape:showpageshadow="2"
     inkscape:pageopacity="0.0"
     inkscape:pagecheckerboard="0"
     inkscape:deskcolor="#d1d1d1"
     inkscape:document-units="mm"
     showgrid="false"
     inkscape:zoom="0.36925856"
     inkscape:cx="1016.9026"
     inkscape:cy="507.77428"
     inkscape:window-width="1920"
     inkscape:window-height="1009"
     inkscape:window-x="-8"
     inkscape:window-y="-8"
     inkscape:window-maximized="1"
     inkscape:current-layer="layer1"
     showguides="true"><sodipodi:guide
       position="-138.18959,-159.27467"
       orientation="1,0"
       id="guide28957"
       inkscape:locked="false" /></sodipodi:namedview><defs
     id="defs2">
	
	

	
	
	
	
	
	
	
</defs><g
     inkscape:label="Calque 1"
     inkscape:groupmode="layer"
     id="layer1"
     transform="translate(-45.561941,-98.353905)"><g
       id="g21911"
       transform="matrix(0.30723151,0,0,0.30723151,45.485935,99.075777)">
</g><g
       id="g21913"
       transform="matrix(0.30723151,0,0,0.30723151,45.485935,99.075777)">
</g><g
       id="g21915"
       transform="matrix(0.30723151,0,0,0.30723151,45.485935,99.075777)">
</g><g
       id="g21917"
       transform="matrix(0.30723151,0,0,0.30723151,45.485935,99.075777)">
</g><g
       id="g21919"
       transform="matrix(0.30723151,0,0,0.30723151,45.485935,99.075777)">
</g><g
       id="g21921"
       transform="matrix(0.30723151,0,0,0.30723151,45.485935,99.075777)">
</g><g
       id="g21923"
       transform="matrix(0.30723151,0,0,0.30723151,45.485935,99.075777)">
</g><g
       id="g21925"
       transform="matrix(0.30723151,0,0,0.30723151,45.485935,99.075777)">
</g><g
       id="g21927"
       transform="matrix(0.30723151,0,0,0.30723151,45.485935,99.075777)">
</g><g
       id="g21929"
       transform="matrix(0.30723151,0,0,0.30723151,45.485935,99.075777)">
</g><g
       id="g21931"
       transform="matrix(0.30723151,0,0,0.30723151,45.485935,99.075777)">
</g><g
       id="g21933"
       transform="matrix(0.30723151,0,0,0.30723151,45.485935,99.075777)">
</g><g
       id="g21935"
       transform="matrix(0.30723151,0,0,0.30723151,45.485935,99.075777)">
</g><g
       id="g21937"
       transform="matrix(0.30723151,0,0,0.30723151,45.485935,99.075777)">
</g><g
       id="g21939"
       transform="matrix(0.30723151,0,0,0.30723151,45.485935,99.075777)">
</g><rect
       style="fill:#555753;stroke:none;stroke-width:0.391929;stroke-linecap:round"
       id="rect1406-9-2"
       width="26.997398"
       height="1.6067542"
       x="47.614834"
       y="100.86399"
       ry="0" /><rect
       style="fill:#000000;stroke:none;stroke-width:0.589433;stroke-linecap:round"
       id="rect1548"
       width="6.1172705"
       height="7.1201019"
       x="58.321838"
       y="98.353905"
       ry="0.46092069" /><rect
       style="fill:#000000;stroke:none;stroke-width:0.589433;stroke-linecap:round"
       id="rect1602"
       width="2.0564156"
       height="4.3255639"
       x="56.381603"
       y="99.70253"
       ry="0.46092069" /><path
       style="fill:#000000;stroke:none;stroke-width:0.589433;stroke-linecap:round"
       d="m 60.340235,105.44631 0.638197,2.05641 0.719861,0.0147 0.523228,-2.06287 z"
       id="path1658"
       sodipodi:nodetypes="ccccc" /><path
       style="fill:#f57900;fill-opacity:1;stroke:none;stroke-width:0.589433;stroke-linecap:round;stroke-dasharray:none;stroke-opacity:1"
       d="m 51.017708,121.81508 -0.326528,7.7773 h 0.385895 l 0.415581,-8.01477 z"
       id="path11498" /><path
       style="fill:#f57900;fill-opacity:1;stroke:none;stroke-width:0.589433;stroke-linecap:round;stroke-dasharray:none;stroke-opacity:1"
       d="m 71.392532,121.84017 0.326533,7.77731 h -0.385898 l -0.41558,-8.01478 z"
       id="path11498-7" /><path
       style="fill:#f57900;fill-opacity:1;stroke:none;stroke-width:0.589433;stroke-linecap:round;stroke-dasharray:none;stroke-opacity:1"
       d="m 50.685135,129.59819 20.990018,0.021 -0.335838,0.69267 -20.066459,0.042 z"
       id="path18049"
       sodipodi:nodetypes="ccccc" /><path
       style="fill:#f57900;fill-opacity:1;stroke:none;stroke-width:0.582304;stroke-linecap:round;stroke-dasharray:none;stroke-opacity:1"
       d="m 71.427298,121.83668 -20.485386,-0.021 0.327765,-0.69268 19.584028,-0.042 z"
       id="path18049-4"
       sodipodi:nodetypes="ccccc" /><path
       style="fill:#000000;fill-opacity:1;stroke:none;stroke-width:0.589433;stroke-linecap:round;stroke-dasharray:none;stroke-opacity:1"
       d="m 54.064531,123.2802 11.229657,-0.042 0.125942,4.13503 -11.523523,0.063 z"
       id="path18105" /><path
       style="fill:#3465a4;fill-opacity:1;stroke:none;stroke-width:0.589433;stroke-linecap:round;stroke-dasharray:none;stroke-opacity:1"
       d="m 54.526308,123.61604 10.264123,0.021 0.06297,3.48435 -10.390063,-0.042 z"
       id="path18107" /><ellipse
       style="fill:#f57900;fill-opacity:1;stroke:none;stroke-width:0.589433;stroke-linecap:round;stroke-dasharray:none;stroke-opacity:1"
       id="path18161"
       cx="69.704018"
       cy="124.5312"
       rx="1.2022172"
       ry="1.0537953" /><path
       style="fill:none;fill-opacity:1;stroke:#f57900;stroke-width:0.316689;stroke-linecap:round;stroke-dasharray:none;stroke-opacity:1"
       d="m 67.373793,125.61468 -0.0297,0.92021 1.840434,1.63265 1.692011,-0.0594 0.01046,-1.88572 -2.622719,0.0156 -0.385898,-0.29684 -0.0297,-0.32653"
       id="path18217"
       sodipodi:nodetypes="cccccccc" /><path
       style="fill:#3465a4;fill-opacity:1;stroke:none;stroke-width:0.589433;stroke-linecap:round;stroke-dasharray:none;stroke-opacity:1"
       d="m 69.450211,126.90097 0.787127,0.74515"
       id="path18219" /><path
       style="fill:none;fill-opacity:1;stroke:#f57900;stroke-width:0.237515;stroke-linecap:round;stroke-dasharray:none;stroke-opacity:1"
       d="m 69.229817,127.77207 1.196433,-1.24891"
       id="path18223" /><path
       style="fill:none;fill-opacity:1;stroke:#f57900;stroke-width:0.277102;stroke-linecap:round;stroke-dasharray:none;stroke-opacity:1"
       d="m 69.229817,126.52316 1.196433,1.35386"
       id="path18225" /><path
       style="fill:#fcaf3e;fill-opacity:1;stroke:none;stroke-width:0.0634658;stroke-linecap:round;stroke-dasharray:none;stroke-opacity:1"
       d="m 60.707874,129.5877 c -9.121958,-0.0102 -9.602938,-0.0144 -9.602938,-0.0843 0,-0.0405 0.08488,-1.69814 0.188615,-3.68366 0.103735,-1.98551 0.188745,-3.69031 0.188908,-3.78845 l 3.14e-4,-0.1784 h 9.718378 9.718374 l 3.14e-4,0.11544 c 2.11e-4,0.0635 0.08518,1.73995 0.188908,3.72547 0.10374,1.98552 0.188621,3.68098 0.188621,3.76771 v 0.15769 l -0.493271,-0.0104 c -0.271293,-0.006 -4.814584,-0.0152 -10.096193,-0.0211 z m 10.033225,-1.37962 0.220397,-0.0222 1.03e-4,-0.3643 c 8.3e-5,-0.20037 0.01247,-0.66184 0.02756,-1.02549 l 0.02742,-0.66118 H 69.655224 68.29386 l -0.152805,-0.12596 c -0.111684,-0.0921 -0.160435,-0.17109 -0.181137,-0.29364 -0.03126,-0.18518 -0.08165,-0.23976 -0.160687,-0.17416 -0.03472,0.0288 -0.04458,0.11268 -0.02967,0.25192 0.02055,0.19151 0.04066,0.22327 0.243917,0.38471 l 0.22153,0.17598 1.279256,-0.0149 1.279255,-0.015 v 0.84362 l -3e-6,0.84362 -0.779478,0.029 -0.779484,0.029 -0.385466,-0.34224 c -0.212004,-0.18824 -0.615279,-0.54314 -0.896166,-0.78868 l -0.510686,-0.44645 0.02376,-0.47116 c 0.02117,-0.41993 0.01592,-0.47417 -0.04835,-0.49884 -0.03967,-0.0153 -0.08821,-0.0111 -0.107863,0.009 -0.01965,0.0204 -0.04137,0.26695 -0.04826,0.54792 l -0.01254,0.51085 0.943163,0.84009 0.943158,0.84009 0.692672,-0.0198 c 0.38097,-0.0109 0.791846,-0.0299 0.913066,-0.0421 z m -0.226196,-0.28912 c 0.02435,-0.0635 -0.08843,-0.21667 -0.408793,-0.55536 l -0.167961,-0.17757 0.305486,-0.31505 c 0.168019,-0.17328 0.297528,-0.33895 0.287798,-0.36818 -0.0422,-0.12673 -0.166427,-0.0644 -0.438331,0.21987 l -0.286061,0.2991 -0.251878,-0.29495 c -0.168372,-0.19716 -0.278629,-0.29199 -0.33255,-0.28604 -0.147753,0.0163 -0.114679,0.1028 0.157902,0.41288 l 0.270316,0.30751 -0.271797,0.30368 c -0.149486,0.16703 -0.259629,0.32337 -0.24476,0.34743 0.06145,0.0994 0.196554,0.029 0.419462,-0.21863 l 0.236167,-0.26238 0.296692,0.32534 c 0.297926,0.32671 0.383505,0.37913 0.428308,0.26235 z m -5.101536,-0.54595 c 0.01091,-0.0109 -0.0051,-0.94681 -0.0357,-2.07978 l -0.05553,-2.05996 -5.614826,0.013 c -3.088151,0.007 -5.625692,0.0239 -5.638978,0.0371 -0.01722,0.0172 -0.190372,3.73084 -0.192506,4.1283 -2.1e-4,0.0388 11.498643,2e-4 11.53754,-0.0386 z m 4.77416,-1.85428 c 0.26635,-0.0908 0.609745,-0.4282 0.680936,-0.66915 0.156428,-0.52944 -0.05463,-0.98904 -0.570917,-1.2432 -0.996048,-0.49036 -2.131392,0.36616 -1.728083,1.30367 0.111034,0.25811 0.386209,0.5195 0.642481,0.61031 0.241396,0.0855 0.722119,0.0847 0.975583,-0.002 z"
       id="path18626" /><path
       style="fill:#000000;fill-opacity:1;stroke:#000000;stroke-width:0.158344;stroke-linecap:round;stroke-dasharray:none;stroke-opacity:1"
       d="m 46.317377,121.04051 29.981218,-0.0594 0.296837,-0.35621 -4.512017,-9.02405 -22.26328,-0.11874 -4.155815,9.20216 z"
       id="path18227" /></g><style
     type="text/css"
     id="style2475">
	.st0{fill:#E0995E;}
	.st1{opacity:0.2;}
	.st2{fill:#231F20;}
	.st3{fill:#4F5D73;}
	.st4{fill:#FFFFFF;}
	.st5{opacity:0.2;fill:#FFFFFF;}
	.st6{fill:#E0E0D1;}
</style></svg>
