<?xml version="1.0" encoding="UTF-8" standalone="no"?>
<!-- Created with Inkscape (http://www.inkscape.org/) -->

<svg
   width="111.48392mm"
   height="97.350883mm"
   viewBox="0 0 111.48392 97.350883"
   version="1.1"
   id="svg5"
   xml:space="preserve"
   inkscape:version="1.2.1 (9c6d41e410, 2022-07-14)"
   sodipodi:docname="printing.svg"
   xmlns:inkscape="http://www.inkscape.org/namespaces/inkscape"
   xmlns:sodipodi="http://sodipodi.sourceforge.net/DTD/sodipodi-0.dtd"
   xmlns="http://www.w3.org/2000/svg"
   xmlns:svg="http://www.w3.org/2000/svg"><sodipodi:namedview
     id="namedview7"
     pagecolor="#ffffff"
     bordercolor="#000000"
     borderopacity="0.25"
     inkscape:showpageshadow="2"
     inkscape:pageopacity="0.0"
     inkscape:pagecheckerboard="0"
     inkscape:deskcolor="#d1d1d1"
     inkscape:document-units="mm"
     showgrid="false"
     inkscape:zoom="0.36925856"
     inkscape:cx="1053.4624"
     inkscape:cy="517.25274"
     inkscape:window-width="1920"
     inkscape:window-height="1009"
     inkscape:window-x="-8"
     inkscape:window-y="-8"
     inkscape:window-maximized="1"
     inkscape:current-layer="layer1"
     showguides="true"><sodipodi:guide
       position="-128.25815,-161.31498"
       orientation="1,0"
       id="guide28957"
       inkscape:locked="false" /></sodipodi:namedview><defs
     id="defs2">
	
	

	
	
	
	
	
	
	
</defs><g
     inkscape:label="Calque 1"
     inkscape:groupmode="layer"
     id="layer1"
     transform="translate(-35.630506,-96.313593)"><g
       id="g21911"
       transform="matrix(0.30723151,0,0,0.30723151,45.485935,99.075777)">
</g><g
       id="g21913"
       transform="matrix(0.30723151,0,0,0.30723151,45.485935,99.075777)">
</g><g
       id="g21915"
       transform="matrix(0.30723151,0,0,0.30723151,45.485935,99.075777)">
</g><g
       id="g21917"
       transform="matrix(0.30723151,0,0,0.30723151,45.485935,99.075777)">
</g><g
       id="g21919"
       transform="matrix(0.30723151,0,0,0.30723151,45.485935,99.075777)">
</g><g
       id="g21921"
       transform="matrix(0.30723151,0,0,0.30723151,45.485935,99.075777)">
</g><g
       id="g21923"
       transform="matrix(0.30723151,0,0,0.30723151,45.485935,99.075777)">
</g><g
       id="g21925"
       transform="matrix(0.30723151,0,0,0.30723151,45.485935,99.075777)">
</g><g
       id="g21927"
       transform="matrix(0.30723151,0,0,0.30723151,45.485935,99.075777)">
</g><g
       id="g21929"
       transform="matrix(0.30723151,0,0,0.30723151,45.485935,99.075777)">
</g><g
       id="g21931"
       transform="matrix(0.30723151,0,0,0.30723151,45.485935,99.075777)">
</g><g
       id="g21933"
       transform="matrix(0.30723151,0,0,0.30723151,45.485935,99.075777)">
</g><g
       id="g21935"
       transform="matrix(0.30723151,0,0,0.30723151,45.485935,99.075777)">
</g><g
       id="g21937"
       transform="matrix(0.30723151,0,0,0.30723151,45.485935,99.075777)">
</g><g
       id="g21939"
       transform="matrix(0.30723151,0,0,0.30723151,45.485935,99.075777)">
</g><rect
       style="fill:#555753;stroke:none;stroke-width:1.13476;stroke-linecap:round"
       id="rect1406-9-2"
       width="78.166214"
       height="4.6520739"
       x="51.505733"
       y="105.62142"
       ry="0" /><rect
       style="fill:#000000;stroke:none;stroke-width:1.7066;stroke-linecap:round"
       id="rect1548"
       width="17.711479"
       height="20.615002"
       x="82.505974"
       y="98.353905"
       ry="1.3345147" /><rect
       style="fill:#000000;stroke:none;stroke-width:1.7066;stroke-linecap:round"
       id="rect1602"
       width="5.953989"
       height="12.523909"
       x="76.888367"
       y="102.25862"
       ry="1.3345147" /><path
       style="fill:#000000;stroke:none;stroke-width:1.7066;stroke-linecap:round"
       d="m 88.349891,118.88872 1.847787,5.95398 2.084231,0.0426 1.514914,-5.97267 z"
       id="path1658"
       sodipodi:nodetypes="ccccc" /><path
       style="fill:#f57900;fill-opacity:1;stroke:none;stroke-width:1.7066;stroke-linecap:round;stroke-dasharray:none;stroke-opacity:1"
       d="m 61.358155,166.2816 -0.945406,22.51782 h 1.117292 l 1.203242,-23.20538 z"
       id="path11498" /><path
       style="fill:#f57900;fill-opacity:1;stroke:none;stroke-width:1.7066;stroke-linecap:round;stroke-dasharray:none;stroke-opacity:1"
       d="m 120.34987,166.35426 0.94542,22.51782 h -1.1173 l -1.20324,-23.20538 z"
       id="path11498-7" /><path
       style="fill:#f57900;fill-opacity:1;stroke:none;stroke-width:1.7066;stroke-linecap:round;stroke-dasharray:none;stroke-opacity:1"
       d="m 60.395248,188.81623 60.772902,0.0609 -0.97236,2.0055 -58.0989,0.12164 z"
       id="path18049"
       sodipodi:nodetypes="ccccc" /><path
       style="fill:#f57900;fill-opacity:1;stroke:none;stroke-width:1.68596;stroke-linecap:round;stroke-dasharray:none;stroke-opacity:1"
       d="m 120.45053,166.34416 -59.311828,-0.0607 0.948984,-2.00552 56.702104,-0.12164 z"
       id="path18049-4"
       sodipodi:nodetypes="ccccc" /><path
       style="fill:#000000;fill-opacity:1;stroke:none;stroke-width:1.7066;stroke-linecap:round;stroke-dasharray:none;stroke-opacity:1"
       d="m 70.179693,170.52359 32.513497,-0.12146 0.36464,11.97224 -33.36433,0.18234 z"
       id="path18105" /><path
       style="fill:#3465a4;fill-opacity:1;stroke:none;stroke-width:1.7066;stroke-linecap:round;stroke-dasharray:none;stroke-opacity:1"
       d="m 71.516689,171.49598 29.717961,0.0607 0.18232,10.08832 -30.082597,-0.12164 z"
       id="path18107" /><ellipse
       style="fill:#f57900;fill-opacity:1;stroke:none;stroke-width:1.7066;stroke-linecap:round;stroke-dasharray:none;stroke-opacity:1"
       id="path18161"
       cx="115.46108"
       cy="174.14568"
       rx="3.4808083"
       ry="3.0510788" /><path
       style="fill:none;fill-opacity:1;stroke:#f57900;stroke-width:0.916916;stroke-linecap:round;stroke-dasharray:none;stroke-opacity:1"
       d="m 108.71432,177.28268 -0.086,2.66431 5.32865,4.72705 4.89892,-0.17194 0.0303,-5.45975 -7.59362,0.0452 -1.1173,-0.85946 -0.086,-0.94542"
       id="path18217"
       sodipodi:nodetypes="cccccccc" /><path
       style="fill:#3465a4;fill-opacity:1;stroke:none;stroke-width:1.7066;stroke-linecap:round;stroke-dasharray:none;stroke-opacity:1"
       d="m 114.72622,181.00691 2.27899,2.15746"
       id="path18219" /><path
       style="fill:none;fill-opacity:1;stroke:#f57900;stroke-width:0.687684;stroke-linecap:round;stroke-dasharray:none;stroke-opacity:1"
       d="m 114.08811,183.52901 3.46406,-3.616"
       id="path18223" /><path
       style="fill:none;fill-opacity:1;stroke:#f57900;stroke-width:0.8023;stroke-linecap:round;stroke-dasharray:none;stroke-opacity:1"
       d="m 114.08811,179.91301 3.46406,3.91987"
       id="path18225" /><path
       style="fill:#fcaf3e;fill-opacity:1;stroke:none;stroke-width:0.183754;stroke-linecap:round;stroke-dasharray:none;stroke-opacity:1"
       d="m 89.414325,188.78586 c -26.411023,-0.0294 -27.803618,-0.0416 -27.803618,-0.2441 0,-0.11729 0.245744,-4.91667 0.546103,-10.6654 0.300345,-5.74869 0.546478,-10.68464 0.54695,-10.96877 l 9.08e-4,-0.51655 h 28.137853 28.137839 l 9.1e-4,0.33425 c 6.1e-4,0.18384 0.24661,5.03772 0.54695,10.78645 0.30036,5.74871 0.54612,10.65763 0.54612,10.90872 v 0.45656 l -1.42818,-0.0301 c -0.78548,-0.0173 -13.93978,-0.0441 -29.231748,-0.0611 z m 29.049435,-3.99444 0.63812,-0.0644 3e-4,-1.05476 c 2.4e-4,-0.58015 0.0361,-1.91626 0.0798,-2.96914 l 0.0794,-1.91433 h -3.94158 -3.94159 l -0.44242,-0.3647 c -0.32336,-0.26652 -0.46451,-0.49534 -0.52445,-0.85018 -0.0905,-0.53614 -0.2364,-0.69417 -0.46524,-0.50423 -0.10052,0.0833 -0.12908,0.32623 -0.0859,0.72939 0.0595,0.55446 0.11774,0.64643 0.70622,1.11386 l 0.6414,0.50951 3.70386,-0.0433 3.70386,-0.0433 v 2.44255 l -10e-6,2.44255 -2.25684,0.0841 -2.25686,0.084 -1.11605,-0.9909 c -0.61382,-0.54499 -1.78143,-1.57255 -2.59469,-2.28348 l -1.4786,-1.2926 0.0688,-1.36418 c 0.0613,-1.21581 0.0461,-1.37286 -0.13999,-1.4443 -0.11486,-0.0442 -0.2554,-0.032 -0.3123,0.0272 -0.0569,0.059 -0.11978,0.7729 -0.13974,1.58639 l -0.0363,1.47909 2.73076,2.43234 2.73075,2.43232 2.00551,-0.0574 c 1.10303,-0.0317 2.29265,-0.0865 2.64362,-0.12182 z m -0.65491,-0.83709 c 0.0705,-0.18373 -0.25603,-0.62733 -1.18359,-1.60796 l -0.4863,-0.51412 0.88448,-0.91217 c 0.48647,-0.5017 0.86144,-0.98138 0.83327,-1.066 -0.12218,-0.36693 -0.48186,-0.18652 -1.26911,0.6366 l -0.82824,0.86598 -0.72927,-0.85397 c -0.48749,-0.57084 -0.80672,-0.84542 -0.96284,-0.82819 -0.42779,0.0473 -0.33203,0.29766 0.45718,1.19544 l 0.78265,0.89034 -0.78694,0.87924 c -0.43281,0.4836 -0.75171,0.93626 -0.70866,1.00592 0.17792,0.28789 0.56909,0.0841 1.21448,-0.63301 l 0.68378,-0.75966 0.85902,0.94196 c 0.86259,0.94592 1.11037,1.0977 1.24009,0.7596 z m -14.7706,-1.58071 c 0.0316,-0.0315 -0.0148,-2.74132 -0.10336,-6.02165 l -0.16078,-5.96425 -16.256741,0.0376 c -8.941196,0.0207 -16.2882,0.0691 -16.326666,0.10736 -0.04986,0.0498 -0.55119,10.80199 -0.557368,11.95274 -6.08e-4,0.11225 33.292295,5.9e-4 33.404915,-0.11172 z m 13.82274,-5.36875 c 0.77117,-0.26277 1.76541,-1.23978 1.97153,-1.93741 0.45291,-1.53288 -0.15818,-2.86357 -1.65299,-3.59947 -2.88388,-1.41973 -6.17107,1.06015 -5.00336,3.77455 0.32148,0.74731 1.1182,1.50412 1.86019,1.76704 0.69892,0.24765 2.09077,0.24534 2.82463,-0.005 z"
       id="path18626" /><path
       style="fill:#000000;fill-opacity:1;stroke:#000000;stroke-width:0.458457;stroke-linecap:round;stroke-dasharray:none;stroke-opacity:1"
       d="m 47.749175,164.03899 86.805335,-0.17193 0.85944,-1.03136 -13.06375,-26.12755 -64.459407,-0.34377 -12.032431,26.64322 z"
       id="path18227" /></g><style
     type="text/css"
     id="style2475">
	.st0{fill:#E0995E;}
	.st1{opacity:0.2;}
	.st2{fill:#231F20;}
	.st3{fill:#4F5D73;}
	.st4{fill:#FFFFFF;}
	.st5{opacity:0.2;fill:#FFFFFF;}
	.st6{fill:#E0E0D1;}
</style></svg>
