<?xml version="1.0" encoding="UTF-8" standalone="no"?>
<!-- Created with Inkscape (http://www.inkscape.org/) -->

<svg
   width="42.351997mm"
   height="32mm"
   viewBox="0 0 42.351998 32"
   version="1.1"
   id="svg5"
   xml:space="preserve"
   inkscape:version="1.3.2 (091e20e, 2023-11-25, custom)"
   sodipodi:docname="soldering.svg"
   xmlns:inkscape="http://www.inkscape.org/namespaces/inkscape"
   xmlns:sodipodi="http://sodipodi.sourceforge.net/DTD/sodipodi-0.dtd"
   xmlns="http://www.w3.org/2000/svg"
   xmlns:svg="http://www.w3.org/2000/svg"><sodipodi:namedview
     id="namedview7"
     pagecolor="#ffffff"
     bordercolor="#000000"
     borderopacity="0.25"
     inkscape:showpageshadow="2"
     inkscape:pageopacity="0.0"
     inkscape:pagecheckerboard="0"
     inkscape:deskcolor="#d1d1d1"
     inkscape:document-units="mm"
     showgrid="false"
     inkscape:zoom="0.52221046"
     inkscape:cx="164.68456"
     inkscape:cy="86.172154"
     inkscape:window-width="1419"
     inkscape:window-height="1032"
     inkscape:window-x="485"
     inkscape:window-y="0"
     inkscape:window-maximized="0"
     inkscape:current-layer="layer1" /><defs
     id="defs2">
	
	
</defs><g
     inkscape:label="Calque 1"
     inkscape:groupmode="layer"
     id="layer1"
     transform="translate(-40.451543,-111.61193)"><g
       id="g17278"
       transform="matrix(0,-0.2233597,0.2233597,0,31.627284,137.60679)"><path
         style="fill:#696969;fill-opacity:1;stroke:none;stroke-width:0.677032;stroke-linecap:round"
         d="m 103.3874,152.89596 -1.57316,-1.48864 0.0198,-1.70175 0.0198,-1.70175 1.14604,-1.00953 1.14604,-1.00953 3.90036,0.0915 3.90037,0.0915 1.30728,0.91807 1.30728,0.91808 -0.10982,1.61218 c -0.12343,1.81191 0.0616,1.53998 -2.45756,3.61201 l -1.20673,0.99256 -2.91329,0.082 -2.91329,0.082 z"
         id="path9228" /><path
         style="fill:#696969;fill-opacity:1;stroke:none;stroke-width:0.78054;stroke-linecap:round;stroke-opacity:1"
         d="m 105.77659,145.28711 c -1.00146,-0.23458 -1.65759,-0.74562 -2.11933,-1.65071 -0.81812,-1.60366 -0.35716,-3.2225 1.22028,-4.28554 0.85461,-0.57592 1.88296,-0.59745 3.05805,-0.064 1.18662,0.53867 1.70629,1.43653 1.70727,2.94977 6.8e-4,1.07486 -0.0699,1.26517 -0.74852,2.01626 -0.6682,0.73961 -0.97358,0.90065 -2.14196,1.12955 -0.17037,0.0334 -0.60948,-0.009 -0.97579,-0.0953 z"
         id="path17153" /><path
         style="fill:#696969;fill-opacity:1;stroke:none;stroke-width:0.279468;stroke-linecap:round;stroke-opacity:1"
         d="m 105.85303,53.808557 c -1.08939,-0.191149 -1.95644,-0.822748 -2.38286,-1.735778 -0.18566,-0.397513 -0.20721,-0.524403 -0.20721,-1.22005 0,-0.686187 0.0228,-0.825152 0.19672,-1.196032 0.51576,-1.100229 1.61982,-1.762825 2.93394,-1.76079 1.38524,0.0021 2.42894,0.640731 2.99288,1.831173 0.21342,0.450499 0.23551,0.563183 0.23551,1.201147 0,0.646185 -0.0199,0.744478 -0.24258,1.196743 -0.25609,0.520213 -0.78411,1.066209 -1.2716,1.314911 -0.63064,0.321728 -1.60987,0.481839 -2.2548,0.368676 z"
         id="path17155" /><path
         style="fill:#5c696a;fill-opacity:1;stroke:none;stroke-width:0.677032;stroke-linecap:round"
         d="m 114.32442,148.56387 c -0.53075,-0.44513 -2.06742,-1.38992 -3.88446,-4.29269 -1.97196,-3.15024 -1.9713,-6.18207 -1.72558,-8.30781 l 0.14243,-1.23213 0.0382,-17.97044 0.95476,-17.855854 1.10448,-3.1348 1.10447,-3.134801 0.5183,-25.257538 c 0.28506,-13.891649 -0.0611,-25.345855 0.12199,-25.826018 l 0.33756,-1.023695 1.70739,1.419567 c 1.6772,1.394469 1.55391,1.740506 1.62739,2.634808 0.13914,1.693495 -1.24906,104.055611 -1.41339,104.219941 -0.0929,0.0929 -0.35684,-0.007 -0.6335,-0.23854 z"
         id="path9216"
         sodipodi:nodetypes="ssscccccsscsssss" /><path
         style="fill:#0e0e0e;fill-opacity:1;stroke:none;stroke-width:0.677032;stroke-linecap:round;stroke-opacity:1"
         d="m 102.02317,148.69173 c -0.0623,-0.10076 -0.15967,-0.57535 -0.21644,-1.05464 -0.0822,-0.69402 -1.12219,-2.04008 -0.1665,-5.30639 l 1.19706,-4.09121 c 2.02322,-0.57539 3.49702,-0.4638 6.2052,-0.27204 l 1.93318,4.7303 c 0.98652,2.41391 0.98852,4.24247 0.95425,4.2764 -0.0343,0.0339 -0.42505,-0.008 -0.8684,-0.0941 -1.27499,-0.2464 -3.55228,-0.19653 -5.38269,0.11789 -1.5494,0.26615 -1.75835,0.35276 -2.61325,1.08312 -0.53369,0.45595 -0.97739,0.71587 -1.04241,0.61065 z m 5.5917,-4.48992 c 0.93138,-0.56786 1.32936,-1.35669 1.24691,-2.47145 -0.0875,-1.18249 -0.53371,-1.81034 -1.60329,-2.25577 -1.02805,-0.42814 -1.89482,-0.2868 -2.72816,0.44489 -1.07042,0.93984 -1.23672,2.24181 -0.45089,3.53019 0.65458,1.07319 2.39988,1.4445 3.53543,0.75214 z"
         id="path9226"
         sodipodi:nodetypes="sssccsccssssscssss" /><path
         style="fill:#000000;stroke:#000000;stroke-width:1;stroke-linecap:round"
         d="m 102.03075,59.11339 1.13811,-1.75515 7.25033,-0.774423 0.92289,1.786813 -0.77382,35.373034 -1.84538,5.906839 -5.57574,0.147464 -2.10162,-4.763283 z"
         id="path7942"
         sodipodi:nodetypes="ccccccccc" /><rect
         style="fill:#111111;fill-opacity:1;stroke:#000000;stroke-width:1;stroke-linecap:round;stroke-opacity:1"
         id="rect15692"
         width="6.3194442"
         height="28.356482"
         x="101.9213"
         y="101.75926"
         ry="1.9704463" /><path
         style="fill:#343d3c;fill-opacity:1;stroke:#343d3c;stroke-width:0.677032;stroke-linecap:round;stroke-opacity:1"
         d="m 100.81038,145.27563 c -0.32899,-1.3234 -0.32418,-2.93379 0.0169,-5.64264 0.30838,-2.44955 0.41822,-5.52328 0.75574,-21.14868 l 0.39493,-18.28258 -0.76546,-2.296929 -0.76545,-2.296924 0.5634,-25.278157 c 0.30986,-13.902983 0.60915,-26.091056 0.66506,-27.084607 l 0.10167,-1.806453 1.73132,-0.638209 c 3.1559,-1.163355 5.59363,-1.261309 8.30867,-0.333867 l 0.94616,0.323201 -0.0478,2.399589 c -0.0263,1.319773 -0.25235,13.120608 -0.5024,26.224076 l -0.45462,23.824485 -1.14737,3.4035 -1.14737,3.403495 -0.48155,18.14243 -0.48154,18.14243 0.57645,0.80269 c 0.82867,1.15391 1.87091,3.49148 2.42197,5.43211 0.26201,0.92272 0.79041,4.28538 0.75409,4.32169 -0.0363,0.0363 -1.04919,-3.95963 -1.83071,-5.72902 l -1.42095,-3.21706 -2.14958,0.0132 c -1.18226,0.007 -2.58449,0.0657 -3.11606,0.12987 l -0.96648,0.11663 -0.92384,3.76176 c -0.65543,2.66883 0.0177,6.66795 -0.0613,6.35023 z m 5.61467,-18.58098 c 1.02509,-0.60553 1.23297,-1.41409 1.23297,-4.79568 0,-2.64476 -0.0442,-3.11302 -0.35446,-3.7539 -0.44591,-0.92113 -1.15997,-1.35134 -2.24295,-1.35134 -1.08297,0 -1.79703,0.43021 -2.24295,1.35134 -0.31024,0.64088 -0.35446,1.10914 -0.35446,3.7539 0,3.35856 0.20333,4.16728 1.20351,4.787 0.65399,0.40522 2.07946,0.4097 2.75834,0.009 z m 0.42704,-15.20188 c 0.98834,-0.64759 1.07059,-0.97988 1.12653,-4.55128 0.0585,-3.73298 -0.0551,-4.20382 -1.19797,-4.96732 -1.23325,-0.82387 -2.95898,-0.33627 -3.64542,1.03 -0.25942,0.51634 -0.31325,1.11942 -0.31348,3.51189 -1.6e-4,1.58867 0.052,3.14963 0.11578,3.4688 0.13385,0.66924 1.11103,1.72623 1.71257,1.85244 0.63624,0.13349 1.73475,-0.0384 2.20199,-0.34453 z m 0.80743,-11.650105 1.16586,-0.110154 1.28773,-2.978589 1.28773,-2.978592 0.35612,-17.823582 0.35611,-17.823582 -0.87514,-0.884623 -0.87514,-0.884624 -3.63631,0.415216 c -3.45591,0.394615 -3.65659,0.438504 -4.0449,0.884621 -1.0394,1.194139 -0.93529,-0.166582 -1.47837,19.322499 l -0.50293,18.047997 1.17592,2.239142 c 0.64676,1.231529 1.25481,2.339906 1.35123,2.463059 0.1923,0.245621 2.41833,0.301477 4.43209,0.111212 z m 0.001,-46.434903 c 2.55268,-1.356495 1.50311,-5.042263 -1.43585,-5.042263 -1.63802,0 -2.8661,1.151324 -2.8661,2.686974 0,1.535647 1.22808,2.68697 2.8661,2.68697 0.44643,0 1.09256,-0.149256 1.43585,-0.331681 z"
         id="path9214"
         sodipodi:nodetypes="ccscccsscsscsscccccssssccccscccsssssscccsssscscscccccccssscssssssss" /><path
         style="fill:#4c4e58;fill-opacity:1;stroke:none;stroke-width:0.677032;stroke-linecap:round;stroke-opacity:1"
         d="m 104.02525,78.680522 c 0.0393,-3.239958 0.14515,-7.634468 0.23525,-9.765581 l 0.16379,-3.874749 1.99082,-0.280007 c 1.09495,-0.154006 2.07848,-0.304557 2.18563,-0.334562 0.20285,-0.0568 0.0694,9.285354 -0.23323,16.3252 l -0.1474,3.42925 -0.74359,0.09442 c -0.40897,0.05193 -1.3689,0.139971 -2.13317,0.195642 l -1.3896,0.101216 z"
         id="path9220" /><rect
         style="fill:#696969;fill-opacity:1;stroke:none;stroke-width:1.712;stroke-linecap:round;stroke-opacity:1"
         id="rect17209"
         width="6.072607"
         height="69.850639"
         x="104.95297"
         y="152.50262"
         ry="0" /><path
         style="fill:#696969;fill-opacity:1;stroke:none;stroke-width:1;stroke-linecap:round;stroke-opacity:1"
         d="m 104.95095,222.35259 2.23604,6.76778 h 1.62037 l 2.2201,-6.7682 z"
         id="path17265"
         sodipodi:nodetypes="ccccc" /></g><g
       id="g19059"
       transform="matrix(0,-0.50309848,0.50309848,0,-45.239699,127.17122)"><rect
         style="fill:#40e0d0;fill-opacity:1;stroke:none;stroke-width:0.308588;stroke-linecap:round;stroke-opacity:1"
         id="rect17280"
         width="47.341557"
         height="78.286766"
         x="-32.678921"
         y="172.43227"
         ry="3.2330816" /><rect
         style="fill:#16857a;fill-opacity:1;stroke:none;stroke-width:0.376752;stroke-linecap:round;stroke-opacity:1"
         id="rect17386"
         width="8.3136396"
         height="18.243818"
         x="4.2705798"
         y="176.12721"
         ry="2.2788432" /><rect
         style="fill:#16857a;fill-opacity:1;stroke:none;stroke-width:0.388494;stroke-linecap:round;stroke-opacity:1"
         id="rect17386-95"
         width="8.3136396"
         height="19.398491"
         x="4.5015216"
         y="197.18074"
         ry="2.352917" /><rect
         style="fill:#16857a;fill-opacity:1;stroke:none;stroke-width:0.308588;stroke-linecap:round;stroke-opacity:1"
         id="rect17386-7"
         width="8.3136396"
         height="12.239524"
         x="4.7324481"
         y="219.38893"
         ry="3.2330816" /><rect
         style="fill:#16857a;fill-opacity:1;stroke:none;stroke-width:0.308588;stroke-linecap:round;stroke-opacity:1"
         id="rect17386-78"
         width="8.3136396"
         height="12.239524"
         x="4.9633822"
         y="234.43816"
         ry="3.2330816" /><rect
         style="fill:#16857a;fill-opacity:1;stroke:none;stroke-width:0.741488;stroke-linecap:round;stroke-opacity:1"
         id="rect17386-78-4"
         width="8.3136396"
         height="70.665924"
         x="-30.600513"
         y="176.47362"
         ry="4.1568198" /></g></g><style
     type="text/css"
     id="style2475">
	.st0{fill:#E0995E;}
	.st1{opacity:0.2;}
	.st2{fill:#231F20;}
	.st3{fill:#4F5D73;}
	.st4{fill:#FFFFFF;}
	.st5{opacity:0.2;fill:#FFFFFF;}
	.st6{fill:#E0E0D1;}
</style></svg>
