<?xml version="1.0" encoding="UTF-8" standalone="no"?>
<!-- Created with Inkscape (http://www.inkscape.org/) -->

<svg
   width="111.48392mm"
   height="97.350883mm"
   viewBox="0 0 111.48392 97.350883"
   version="1.1"
   id="svg5"
   xml:space="preserve"
   inkscape:version="1.2.1 (9c6d41e410, 2022-07-14)"
   sodipodi:docname="upload.svg"
   xmlns:inkscape="http://www.inkscape.org/namespaces/inkscape"
   xmlns:sodipodi="http://sodipodi.sourceforge.net/DTD/sodipodi-0.dtd"
   xmlns="http://www.w3.org/2000/svg"
   xmlns:svg="http://www.w3.org/2000/svg"><sodipodi:namedview
     id="namedview7"
     pagecolor="#ffffff"
     bordercolor="#000000"
     borderopacity="0.25"
     inkscape:showpageshadow="2"
     inkscape:pageopacity="0.0"
     inkscape:pagecheckerboard="0"
     inkscape:deskcolor="#d1d1d1"
     inkscape:document-units="mm"
     showgrid="false"
     inkscape:zoom="1.0444209"
     inkscape:cx="348.03975"
     inkscape:cy="313.57089"
     inkscape:window-width="1419"
     inkscape:window-height="1032"
     inkscape:window-x="32"
     inkscape:window-y="224"
     inkscape:window-maximized="0"
     inkscape:current-layer="layer1" /><defs
     id="defs2">
	
	

	
	
	
	
	
	
	
</defs><g
     inkscape:label="Calque 1"
     inkscape:groupmode="layer"
     id="layer1"
     transform="translate(-35.630506,-96.313593)"><g
       id="g21885"
       transform="matrix(0.30723151,0,0,0.30723151,44.219284,84.889287)">
		<rect
   x="60.75"
   y="66"
   style="fill:#d0d5d9"
   width="60"
   height="60"
   id="rect21883" />
	</g><g
       id="g21895"
       transform="matrix(0.30723151,0,0,0.30723151,44.219284,84.889287)">
		<g
   id="g21889">
			<rect
   x="72.5"
   y="76.5"
   style="fill:#5d7486"
   width="12"
   height="32"
   id="rect21887" />
		</g>
		<g
   id="g21893">
			<rect
   x="97"
   y="76.5"
   style="fill:#5d7486"
   width="12"
   height="32"
   id="rect21891" />
		</g>
	</g><g
       id="g21903"
       transform="matrix(0,0.30723151,-0.30723151,0,149.19696,103.78531)">
		<path
   style="fill:#c4c6c5"
   d="m 198,52.5 c -20.953,0 -38,17.047 -38,38 v 132 c 0,9.64 -4.897,18.156 -12.333,23.195 v 11.411 C 160.824,251.126 170,237.869 170,222.5 v -132 c 0,-15.439 12.561,-28 28,-28 15.439,0 28,12.561 28,28 V 239 c 0,2.762 2.238,5 5,5 2.762,0 5,-2.238 5,-5 V 90.5 c 0,-20.953 -17.047,-38 -38,-38 z"
   id="path21901" />
	</g><g
       id="g21907"
       transform="matrix(0.30723151,0,0,0.30723151,44.219284,84.889287)">
		<path
   style="fill:#5d7486"
   d="M 104.166,214.5 H 77.334 C 61.962,214.5 49.5,202.039 49.5,186.667 V 115.5 H 132 v 71.167 c 0,15.372 -12.461,27.833 -27.834,27.833 z"
   id="path21905" />
	</g><g
       id="g21911"
       transform="matrix(0.30723151,0,0,0.30723151,45.485935,99.075777)">
</g><g
       id="g21913"
       transform="matrix(0.30723151,0,0,0.30723151,45.485935,99.075777)">
</g><g
       id="g21915"
       transform="matrix(0.30723151,0,0,0.30723151,45.485935,99.075777)">
</g><g
       id="g21917"
       transform="matrix(0.30723151,0,0,0.30723151,45.485935,99.075777)">
</g><g
       id="g21919"
       transform="matrix(0.30723151,0,0,0.30723151,45.485935,99.075777)">
</g><g
       id="g21921"
       transform="matrix(0.30723151,0,0,0.30723151,45.485935,99.075777)">
</g><g
       id="g21923"
       transform="matrix(0.30723151,0,0,0.30723151,45.485935,99.075777)">
</g><g
       id="g21925"
       transform="matrix(0.30723151,0,0,0.30723151,45.485935,99.075777)">
</g><g
       id="g21927"
       transform="matrix(0.30723151,0,0,0.30723151,45.485935,99.075777)">
</g><g
       id="g21929"
       transform="matrix(0.30723151,0,0,0.30723151,45.485935,99.075777)">
</g><g
       id="g21931"
       transform="matrix(0.30723151,0,0,0.30723151,45.485935,99.075777)">
</g><g
       id="g21933"
       transform="matrix(0.30723151,0,0,0.30723151,45.485935,99.075777)">
</g><g
       id="g21935"
       transform="matrix(0.30723151,0,0,0.30723151,45.485935,99.075777)">
</g><g
       id="g21937"
       transform="matrix(0.30723151,0,0,0.30723151,45.485935,99.075777)">
</g><g
       id="g21939"
       transform="matrix(0.30723151,0,0,0.30723151,45.485935,99.075777)">
</g><rect
       style="opacity:1;fill:#373737;fill-opacity:1;stroke:none;stroke-width:1;stroke-linecap:round;stroke-dasharray:none"
       id="rect23278"
       width="36.732876"
       height="18.999763"
       x="39.177128"
       y="165.97939"
       ry="2.2197573" /><rect
       style="opacity:1;fill:#696969;fill-opacity:1;stroke:none;stroke-width:1.05131;stroke-linecap:round;stroke-dasharray:none"
       id="rect24112"
       width="10.893197"
       height="7.9799008"
       x="40.428413"
       y="171.31468"
       ry="0" /><rect
       style="opacity:1;fill:#696969;fill-opacity:1;stroke:none;stroke-width:1;stroke-linecap:round;stroke-dasharray:none"
       id="rect24322"
       width="6.5382991"
       height="5.9113388"
       x="70.650711"
       y="171.99664"
       ry="0" /></g><style
     type="text/css"
     id="style2475">
	.st0{fill:#E0995E;}
	.st1{opacity:0.2;}
	.st2{fill:#231F20;}
	.st3{fill:#4F5D73;}
	.st4{fill:#FFFFFF;}
	.st5{opacity:0.2;fill:#FFFFFF;}
	.st6{fill:#E0E0D1;}
</style></svg>
