<?xml version="1.0" encoding="UTF-8" standalone="no"?>
<!-- Created with Inkscape (http://www.inkscape.org/) -->

<svg
   width="37.64426mm"
   height="31.999998mm"
   viewBox="0 0 37.644261 31.999998"
   version="1.1"
   id="svg5"
   xml:space="preserve"
   inkscape:version="1.3.2 (091e20e, 2023-11-25, custom)"
   sodipodi:docname="upload.svg"
   xmlns:inkscape="http://www.inkscape.org/namespaces/inkscape"
   xmlns:sodipodi="http://sodipodi.sourceforge.net/DTD/sodipodi-0.dtd"
   xmlns="http://www.w3.org/2000/svg"
   xmlns:svg="http://www.w3.org/2000/svg"><sodipodi:namedview
     id="namedview7"
     pagecolor="#ffffff"
     bordercolor="#000000"
     borderopacity="0.25"
     inkscape:showpageshadow="2"
     inkscape:pageopacity="0.0"
     inkscape:pagecheckerboard="0"
     inkscape:deskcolor="#d1d1d1"
     inkscape:document-units="mm"
     showgrid="false"
     inkscape:zoom="0.36925855"
     inkscape:cx="230.19101"
     inkscape:cy="606.62102"
     inkscape:window-width="1419"
     inkscape:window-height="1032"
     inkscape:window-x="32"
     inkscape:window-y="0"
     inkscape:window-maximized="0"
     inkscape:current-layer="layer1" /><defs
     id="defs2">
	
	

	
	
	
	
	
	
	
</defs><g
     inkscape:label="Calque 1"
     inkscape:groupmode="layer"
     id="layer1"
     transform="translate(-39.177128,-105.16657)"><g
       id="g21885"
       transform="matrix(0.12318118,0,0,0.12318118,41.198726,97.036609)">
		<rect
   x="60.75"
   y="66"
   style="fill:#d0d5d9"
   width="60"
   height="60"
   id="rect21883" />
	</g><g
       id="g21895"
       transform="matrix(0.12318118,0,0,0.12318118,41.198726,97.036609)">
		<g
   id="g21889">
			<rect
   x="72.5"
   y="76.5"
   style="fill:#5d7486"
   width="12"
   height="32"
   id="rect21887" />
		</g>
		<g
   id="g21893">
			<rect
   x="97"
   y="76.5"
   style="fill:#5d7486"
   width="12"
   height="32"
   id="rect21891" />
		</g>
	</g><g
       id="g21903"
       transform="matrix(0,0.12318118,-0.12318118,0,83.288401,104.61277)">
		<path
   style="fill:#c4c6c5"
   d="m 198,52.5 c -20.953,0 -38,17.047 -38,38 v 132 c 0,9.64 -4.897,18.156 -12.333,23.195 v 11.411 C 160.824,251.126 170,237.869 170,222.5 v -132 c 0,-15.439 12.561,-28 28,-28 15.439,0 28,12.561 28,28 V 239 c 0,2.762 2.238,5 5,5 2.762,0 5,-2.238 5,-5 V 90.5 c 0,-20.953 -17.047,-38 -38,-38 z"
   id="path21901" />
	</g><g
       id="g21907"
       transform="matrix(0.12318118,0,0,0.12318118,41.198726,97.036609)">
		<path
   style="fill:#5d7486"
   d="M 104.166,214.5 H 77.334 C 61.962,214.5 49.5,202.039 49.5,186.667 V 115.5 H 132 v 71.167 c 0,15.372 -12.461,27.833 -27.834,27.833 z"
   id="path21905" />
	</g><g
       id="g21911"
       transform="matrix(0.30723151,0,0,0.30723151,45.485935,99.075777)">
</g><g
       id="g21913"
       transform="matrix(0.30723151,0,0,0.30723151,45.485935,99.075777)">
</g><g
       id="g21915"
       transform="matrix(0.30723151,0,0,0.30723151,45.485935,99.075777)">
</g><g
       id="g21917"
       transform="matrix(0.30723151,0,0,0.30723151,45.485935,99.075777)">
</g><g
       id="g21919"
       transform="matrix(0.30723151,0,0,0.30723151,45.485935,99.075777)">
</g><g
       id="g21921"
       transform="matrix(0.30723151,0,0,0.30723151,45.485935,99.075777)">
</g><g
       id="g21923"
       transform="matrix(0.30723151,0,0,0.30723151,45.485935,99.075777)">
</g><g
       id="g21925"
       transform="matrix(0.30723151,0,0,0.30723151,45.485935,99.075777)">
</g><g
       id="g21927"
       transform="matrix(0.30723151,0,0,0.30723151,45.485935,99.075777)">
</g><g
       id="g21929"
       transform="matrix(0.30723151,0,0,0.30723151,45.485935,99.075777)">
</g><g
       id="g21931"
       transform="matrix(0.30723151,0,0,0.30723151,45.485935,99.075777)">
</g><g
       id="g21933"
       transform="matrix(0.30723151,0,0,0.30723151,45.485935,99.075777)">
</g><g
       id="g21935"
       transform="matrix(0.30723151,0,0,0.30723151,45.485935,99.075777)">
</g><g
       id="g21937"
       transform="matrix(0.30723151,0,0,0.30723151,45.485935,99.075777)">
</g><g
       id="g21939"
       transform="matrix(0.30723151,0,0,0.30723151,45.485935,99.075777)">
</g><rect
       style="opacity:1;fill:#373737;fill-opacity:1;stroke:none;stroke-width:0.400939;stroke-linecap:round;stroke-dasharray:none"
       id="rect23278"
       width="14.727654"
       height="7.6177516"
       x="39.177128"
       y="129.54881"
       ry="0.88998795" /><rect
       style="opacity:1;fill:#696969;fill-opacity:1;stroke:none;stroke-width:0.421511;stroke-linecap:round;stroke-dasharray:none"
       id="rect24112"
       width="4.3675108"
       height="3.1994557"
       x="39.678818"
       y="131.68794"
       ry="0" /><rect
       style="opacity:1;fill:#696969;fill-opacity:1;stroke:none;stroke-width:0.400939;stroke-linecap:round;stroke-dasharray:none"
       id="rect24322"
       width="2.6214609"
       height="2.3700879"
       x="51.796124"
       y="131.96136"
       ry="0" /></g><style
     type="text/css"
     id="style2475">
	.st0{fill:#E0995E;}
	.st1{opacity:0.2;}
	.st2{fill:#231F20;}
	.st3{fill:#4F5D73;}
	.st4{fill:#FFFFFF;}
	.st5{opacity:0.2;fill:#FFFFFF;}
	.st6{fill:#E0E0D1;}
</style></svg>
